<?xml version="1.0" standalone="no"?>
<!DOCTYPE svg PUBLIC "-//W3C//DTD SVG 1.1//EN" "http://www.w3.org/Graphics/SVG/1.1/DTD/svg11.dtd" >
<svg xmlns="http://www.w3.org/2000/svg" xmlns:xlink="http://www.w3.org/1999/xlink" version="1.1">
<metadata>
Created by FontForge 20170731 at Fri Oct  2 07:41:00 2020
 By Aleksey,,,
Copyright 2019 The Big Shoulders Project Authors (https://github.com/xotypeco/big_shoulders)
</metadata>
<defs>
<font id="BigShouldersStencilDisplay-Thin" horiz-adv-x="280" >
  <font-face 
    font-family="Big Shoulders Stencil Display Thin"
    font-weight="100"
    font-stretch="normal"
    units-per-em="2000"
    panose-1="0 0 0 0 0 0 0 0 0 0"
    ascent="1600"
    descent="-400"
    x-height="1200"
    cap-height="1600"
    bbox="-254 -540 2196 2156"
    underline-thickness="40"
    underline-position="-140"
    unicode-range="U+0020-FB02"
  />
<missing-glyph horiz-adv-x="814" 
d="M120 0v1600h574v-1600h-574zM407 868l227 692h-454zM160 114l226 690l-226 690v-1380zM654 114v1380l-226 -690zM178 40h458l-229 699z" />
    <glyph glyph-name="fi" unicode="fi" horiz-adv-x="640" 
d="M58 1160v40h64v232q0 96 36 138t126 42q23 0 55 -3.5t51 -8.5v-38q-21 5 -45.5 7.5t-56.5 2.5q-72 0 -99 -28.5t-27 -111.5l2 -1432h-40l-2 1160h-64zM222 1160v40h148v-40h-148zM420 1476v124h160v-124h-160zM484 0v1200h40v-1200h-40z" />
    <glyph glyph-name="fl" unicode="fl" horiz-adv-x="640" 
d="M58 1160v40h64v232q0 96 36 138t126 42q23 0 55 -3.5t51 -8.5v-38q-21 5 -45.5 7.5t-56.5 2.5q-72 0 -99 -28.5t-27 -111.5l2 -1432h-40l-2 1160h-64zM222 1160v40h148v-40h-148zM480 0v1600h40v-1600h-40z" />
    <glyph glyph-name="f_f" unicode="ff" horiz-adv-x="748" 
d="M122 1240v192q0 96 36 138t126 42q23 0 55 -3.5t51 -8.5v-38q-21 5 -45.5 7.5t-56.5 2.5q-72 0 -99 -28.5t-27 -111.5v-192h-40zM510 1240v192q0 96 36 138t126 42q23 0 55 -3.5t51 -8.5v-38q-21 5 -45.5 7.5t-56.5 2.5q-72 0 -99 -28.5t-27 -111.5v-192h-40zM58 1160v40
h700v-40h-700zM124 0l-2 1120h40l2 -1120h-40zM512 0l-2 1120h40l2 -1120h-40z" />
    <glyph glyph-name="f_f_i" unicode="ffi" horiz-adv-x="1028" 
d="M122 1240v192q0 96 36 138t126 42q23 0 55 -3.5t51 -8.5v-38q-21 5 -45.5 7.5t-56.5 2.5q-72 0 -99 -28.5t-27 -111.5v-192h-40zM510 1240v192q0 96 36 138t126 42q23 0 55 -3.5t51 -8.5v-38q-21 5 -45.5 7.5t-56.5 2.5q-72 0 -99 -28.5t-27 -111.5v-192h-40zM58 1160v40
h700v-40h-700zM124 0l-2 1120h40l2 -1120h-40zM512 0l-2 1120h40l2 -1120h-40zM808 1476v124h160v-124h-160zM872 0v1200h40v-1200h-40z" />
    <glyph glyph-name="f_f_l" unicode="ffl" horiz-adv-x="1028" 
d="M122 1240v192q0 96 36 138t126 42q23 0 55 -3.5t51 -8.5v-38q-21 5 -45.5 7.5t-56.5 2.5q-72 0 -99 -28.5t-27 -111.5v-192h-40zM510 1240v192q0 96 36 138t126 42q23 0 55 -3.5t51 -8.5v-38q-21 5 -45.5 7.5t-56.5 2.5q-72 0 -99 -28.5t-27 -111.5v-192h-40zM58 1160v40
h700v-40h-700zM124 0l-2 1120h40l2 -1120h-40zM512 0l-2 1120h40l2 -1120h-40zM868 0v1600h40v-1600h-40z" />
    <glyph glyph-name=".notdef" horiz-adv-x="814" 
d="M120 0v1600h574v-1600h-574zM407 868l227 692h-454zM160 114l226 690l-226 690v-1380zM654 114v1380l-226 -690zM178 40h458l-229 699z" />
    <glyph glyph-name=".null" horiz-adv-x="0" 
 />
    <glyph glyph-name="nonmarkingreturn" horiz-adv-x="666" 
 />
    <glyph glyph-name="space" unicode=" " horiz-adv-x="400" 
 />
    <glyph glyph-name="exclam" unicode="!" horiz-adv-x="360" 
d="M167 248l-12 920v432h50v-432l-10 -920h-28zM100 0v124h160v-124h-160z" />
    <glyph glyph-name="quotedbl" unicode="&#x22;" horiz-adv-x="390" 
d="M112 1276l-12 180v144h50v-144l-12 -180h-26zM252 1276l-12 180v144h50v-144l-12 -180h-26z" />
    <glyph glyph-name="numbersign" unicode="#" horiz-adv-x="928" 
d="M60 0l140 440h-140l14 40h140l172 536h-146l14 40h144l174 544h36l-512 -1600h-36zM320 0l140 440h-142l14 40h142l172 536h-148l14 40h146l174 544h36l-174 -544h168l-14 -40h-166l-172 -536h164l-14 -40h-164l-140 -440h-36z" />
    <glyph glyph-name="dollar" unicode="$" horiz-adv-x="512" 
d="M301 -164v197q48 9 69 43.5t23 99.5q2 69 2.5 119.5t-0.5 104t-2 132.5q-1 93 -18 152.5t-80 75.5l-72 18q-62 15 -91.5 47t-39 88.5t-11.5 144.5q-1 77 0.5 177t1.5 191q0 145 96 174v174h40v-207q-50 -8 -72 -42t-24 -101q-3 -91 -2 -182.5t2 -183.5q2 -117 18 -168
t82 -68l74 -18q90 -21 111.5 -85.5t24.5 -186.5q2 -83 2.5 -135.5t0 -101t-2.5 -119.5q-5 -142 -92 -174v-166h-40zM387 1070q6 177 0 354q-2 65 -22 99t-66 43v208h40v-177q83 -32 88 -173q3 -127 0 -354h-40zM181 -164v164q-95 31 -100 176q-2 78 -2.5 136t0 116.5
t2.5 137.5h40q-6 -195 0 -390q2 -67 25 -101t75 -42v-197h-40z" />
    <glyph glyph-name="percent" unicode="%" horiz-adv-x="788" 
d="M120 0l512 1600h36l-512 -1600h-36zM269 878v38q20 16 22 48q6 275 0 546q-2 33 -22 49v39q53 -19 56 -90q3 -270 0 -540q-3 -71 -56 -90zM189 879q-54 20 -54 89q-3 270 0 540q0 70 54 89v-38q-20 -18 -20 -51q-6 -269 0 -544q0 -29 20 -46v-39zM595 0v38q20 16 22 48
q6 275 0 546q-2 33 -22 49v39q53 -19 56 -90q3 -270 0 -540q-3 -71 -56 -90zM515 1q-54 20 -54 89q-3 270 0 540q0 70 54 89v-38q-20 -18 -20 -51q-6 -269 0 -544q0 -29 20 -46v-39z" />
    <glyph glyph-name="ampersand" unicode="&#x26;" horiz-adv-x="770" 
d="M302 876q-4 14 -8.5 26.5t-9.5 25.5q47 95 78 171.5t46.5 152t15.5 168.5q0 69 -23.5 104t-76.5 44v40q74 -9 107 -53.5t33 -134.5q0 -103 -18 -185.5t-54 -166.5t-90 -192zM618 4q-58 92 -127 224.5t-137 287.5t-122.5 316t-85.5 312.5t-26 275.5q4 89 33 133.5t91 53.5
v-41q-80 -17 -84 -146q-4 -121 27 -270t84.5 -308t120 -312.5t134 -284.5t124.5 -223zM505 378q-11 23 -21.5 46t-21.5 46q-4 86 -9.5 173.5t-14.5 158.5l40 4q12 -92 18.5 -208t8.5 -220zM268 -8q-70 10 -101 54.5t-33 129.5q-3 185 2 285.5t20 166.5q19 78 51 150
q5 -14 10.5 -28.5t10.5 -28.5q-10 -24 -17.5 -49.5t-14.5 -51.5q-15 -63 -20 -162t-2 -282q3 -125 94 -143v-41zM348 -8v40q71 9 92 50t23 111q9 -17 18 -33.5t18 -33.5q-19 -122 -151 -134z" />
    <glyph glyph-name="quotesingle" unicode="'" horiz-adv-x="250" 
d="M112 1276l-12 180v144h50v-144l-12 -180h-26z" />
    <glyph glyph-name="parenleft" unicode="(" horiz-adv-x="400" 
d="M300 -400q-80 146 -133.5 314.5t-80 343.5t-26.5 342q0 251 60 508.5t180 491.5h40q-120 -234 -180 -491.5t-60 -508.5q0 -167 26.5 -342t80 -343.5t133.5 -314.5h-40z" />
    <glyph glyph-name="parenright" unicode=")" horiz-adv-x="400" 
d="M100 -400q80 146 133.5 314.5t80 343.5t26.5 342q0 251 -60 508.5t-180 491.5h-40q120 -234 180 -491.5t60 -508.5q0 -167 -26.5 -342t-80 -343.5t-133.5 -314.5h40z" />
    <glyph glyph-name="asterisk" unicode="*" horiz-adv-x="496" 
d="M50 1302l170 90l-170 90l20 36l164 -100l-6 190h40l-6 -192l164 102l20 -36l-168 -90l168 -90l-20 -36l-164 102l6 -192h-40l6 190l-164 -100z" />
    <glyph glyph-name="plus" unicode="+" horiz-adv-x="772" 
d="M366 544v246h-246v40h246v246h40v-246h246v-40h-246v-246h-40z" />
    <glyph glyph-name="comma" unicode="," horiz-adv-x="360" 
d="M152 -160l50 160h-102v124h160v-112l-58 -172h-50z" />
    <glyph glyph-name="hyphen" unicode="-" horiz-adv-x="492" 
d="M60 780v40h372v-40h-372z" />
    <glyph glyph-name="period" unicode="." 
d="M60 0v124h160v-124h-160z" />
    <glyph glyph-name="slash" unicode="/" horiz-adv-x="560" 
d="M60 -400l400 2000h40l-400 -2000h-40z" />
    <glyph glyph-name="zero" unicode="0" horiz-adv-x="596" 
d="M122 170q-3 303 -3 629t3 629q0 157 136 179v-41q-93 -21 -96 -138q-3 -348 -3 -674t3 -584q3 -115 96 -136v-41q-136 22 -136 177zM338 -7v41q93 21 96 136q3 360 3 686t-3 572q-3 117 -96 138v41q136 -22 136 -179q3 -303 3 -629t-3 -629q0 -155 -136 -177z" />
    <glyph glyph-name="one" unicode="1" horiz-adv-x="316" 
d="M156 0v1518h-50l-6 26l60 56h36v-1600h-40z" />
    <glyph glyph-name="two" unicode="2" horiz-adv-x="618" 
d="M128 0q-1 69 -1.5 139t-0.5 139q0 159 25.5 251t62 143t70.5 86l62 64q62 63 79 120.5t21 133.5q9 174 0 348q-4 67 -27 101t-77 42v41q75 -7 107.5 -50.5t36.5 -131.5q2 -48 3 -115t1 -131t-2 -102q-5 -89 -21.5 -142.5t-46.5 -92.5t-74 -83l-56 -56q-61 -61 -91.5 -169
t-30.5 -257v-278h-40zM124 1070q-1 98 -3 189.5t1 164.5q3 88 36 132t104 52v-41q-52 -7 -75 -41.5t-25 -101.5q-1 -88 -1 -176.5t3 -177.5h-40zM248 0v40h250v-40h-250z" />
    <glyph glyph-name="three" unicode="3" horiz-adv-x="590" 
d="M80 1560v40h390v-40h-390zM312 33q94 15 94 143q9 260 0 520q-3 84 -41.5 120t-124.5 36h-58l-4 36l226 632h46l-226 -628h16q108 0 155.5 -45.5t50.5 -150.5q9 -348 0 -520q-4 -88 -35.5 -131.5t-98.5 -52.5v41zM94 176q-3 83 -3 173.5t3 216.5h40v-390q0 -127 98 -143
v-41q-70 9 -102.5 53t-35.5 131z" />
    <glyph glyph-name="four" unicode="4" horiz-adv-x="652" 
d="M328 0l2 1600h38v-1600h-40zM60 538v30l154 736h40l-150 -726h144v-40h-188zM448 538v40h84v-40h-84z" />
    <glyph glyph-name="five" unicode="5" horiz-adv-x="600" 
d="M136 748v852h40v-852h-40zM256 1560v40h220v-40h-220zM256 889v40q27 11 60 11q83 0 120 -43.5t40 -142.5q5 -163 4 -297t-6 -281q-3 -88 -35 -131.5t-99 -52.5v41q50 8 71 42.5t23 100.5q6 149 6.5 283.5t-4.5 294.5q-1 78 -29 112t-91 34q-33 0 -60 -11zM122 176
q-6 195 0 390h40q-6 -195 0 -390q2 -66 24.5 -100.5t73.5 -42.5v-41q-70 9 -102.5 53t-35.5 131z" />
    <glyph glyph-name="six" unicode="6" horiz-adv-x="585" 
d="M429 1068q6 177 0 354q-2 66 -25 100.5t-73 42.5v41q71 -9 103 -52.5t35 -131.5q1 -41 1.5 -109t0 -136t-1.5 -109h-40zM125 174q-4 265 -5.5 479.5t0 401t5.5 367.5q2 87 31.5 130.5t94.5 52.5v-41q-83 -17 -86 -142q-3 -181 -4 -367.5t0 -401t4 -479.5q0 -126 88 -143
v-41q-67 9 -96.5 53t-31.5 131zM239 876v39q36 17 78 17q83 0 120 -43.5t40 -142.5q5 -153 5 -286t-5 -286q-3 -88 -36.5 -132t-107.5 -52v41q101 16 104 143q3 153 3 286t-3 286q-1 78 -29 112t-91 34q-41 0 -78 -16z" />
    <glyph glyph-name="seven" unicode="7" horiz-adv-x="492" 
d="M80 1560v40h352v-40h-352zM124 0l254 1500h42l-256 -1500h-40z" />
    <glyph glyph-name="eight" unicode="8" horiz-adv-x="580" 
d="M118 176q-4 87 -4 200t4 288q3 71 24 109.5t66 54.5v22q-45 18 -66 56t-24 110q-4 126 -4 220.5t4 187.5q4 87 35 130.5t97 52.5v-40q-88 -17 -92 -143q-4 -109 -4 -203.5t4 -204.5q4 -135 92 -152v-48q-88 -17 -92 -152q-4 -130 -4 -243.5t4 -244.5q4 -126 92 -143v-40
q-66 9 -97 52.5t-35 130.5zM330 -7v40q92 17 92 143q5 131 5 244.5t-5 243.5q-4 135 -92 152v48q89 17 92 152q2 110 3.5 204.5t-3.5 203.5q-2 66 -23 100t-69 43v40q66 -9 97 -52.5t35 -130.5q5 -93 5 -187.5t-5 -220.5q-3 -72 -24 -109.5t-66 -54.5v-22q45 -19 66 -58
t24 -108q5 -175 5 -288t-5 -200q-4 -87 -35 -130.5t-97 -52.5z" />
    <glyph glyph-name="nine" unicode="9" horiz-adv-x="583" 
d="M107 830q-1 53 -2 131t-1 165t1 165.5t2 130.5q3 88 37 132t107 52v-41q-101 -16 -104 -143q-1 -49 -1 -128v-168v-168t1 -128q2 -78 29.5 -112t90.5 -34q45 0 78 16v-39q-37 -17 -78 -17q-82 0 -119.5 43.5t-40.5 142.5zM331 -10v41q85 17 88 143q6 300 4.5 620.5
t-4.5 627.5q0 126 -88 143v41q67 -9 97 -53t31 -131q6 -301 5.5 -624.5t-5.5 -623.5q-1 -88 -31 -131.5t-97 -52.5zM115 174q-1 41 -1.5 109t0 136t1.5 109h40q-3 -177 0 -354q3 -126 96 -143v-40q-69 9 -101 52.5t-35 130.5z" />
    <glyph glyph-name="colon" unicode=":" horiz-adv-x="360" 
d="M60 600v124h160v-124h-160zM60 0v124h160v-124h-160z" />
    <glyph glyph-name="semicolon" unicode=";" horiz-adv-x="360" 
d="M112 -160l50 160h-102v124h160v-112l-58 -172h-50zM60 606v124h160v-124h-160z" />
    <glyph glyph-name="less" unicode="&#x3c;" horiz-adv-x="768" 
d="M648 668v40l-322 58l-166 34v32l164 34l324 62v40l-528 -106v-92z" />
    <glyph glyph-name="equal" unicode="=" horiz-adv-x="732" 
d="M120 870v40h492v-40h-492zM120 710v40h492v-40h-492z" />
    <glyph glyph-name="greater" unicode="&#x3e;" horiz-adv-x="768" 
d="M120 668v40l322 58l166 34v32l-164 34l-324 62v40l528 -106v-92z" />
    <glyph glyph-name="question" unicode="?" horiz-adv-x="525" 
d="M197 248l-4 392q-1 51 18 78.5t58 41.5l44 16q35 13 50.5 37t19.5 71t4 128v412q0 126 -86 143v41q66 -9 96 -52t30 -130q0 -156 1 -237t1.5 -117.5t-0.5 -59.5q-4 -88 -7.5 -141t-26 -83.5t-82.5 -53.5l-32 -12q-37 -14 -43.5 -38.5t-6.5 -45.5l-6 -390h-28zM103 1070
q-3 201 0 354q2 86 30 129.5t88 53.5v-41q-40 -10 -58 -44t-20 -98q-6 -153 0 -354h-40zM132 0v124h160v-124h-160z" />
    <glyph glyph-name="at" unicode="@" horiz-adv-x="720" 
d="M322 -189q-94 7 -144 49.5t-52 129.5q-3 220 -5 412.5t-1 385t6 412.5q2 89 52 131.5t144 49.5v-41q-74 -6 -114 -39t-42 -101q-4 -220 -5.5 -412.5t0 -385t5.5 -412.5q2 -67 42 -99.5t114 -38.5v-41zM512 176q-46 0 -66 19.5t-22 62.5v756h40l2 -756q0 -28 9.5 -38
t36.5 -10q26 0 35 10t9 38q0 106 0.5 206t0.5 208.5t0.5 237t0.5 290.5q0 68 -40 101t-116 39v41q96 -7 146 -49.5t50 -131.5q0 -162 -0.5 -290.5t-0.5 -237t-0.5 -208.5t-0.5 -206q0 -82 -84 -82zM328 176q-45 0 -67.5 31t-24.5 103q-3 137 -4.5 282t4.5 296q3 72 25.5 103
t68.5 31h13.5t12.5 -2v-36q-3 2 -10.5 2h-9.5q-27 0 -42.5 -21t-17.5 -77q-2 -85 -3.5 -188.5t-1 -206t4.5 -183.5q3 -55 16.5 -76.5t43.5 -21.5q2 0 10.5 0.5t9.5 1.5v-34q-4 -3 -13.5 -3.5t-14.5 -0.5zM402 -189v41q75 6 114 38.5t42 99.5q2 33 1.5 56t-3.5 72h40
q3 -55 3.5 -78t-1.5 -50q-5 -87 -54 -129.5t-142 -49.5z" />
    <glyph glyph-name="A" unicode="A" horiz-adv-x="528" 
d="M60 0l142 1600h126l2 -40h-96l-54 -640l-30 -344h180l-10 -40h-174l-46 -536h-40zM428 0l-80 922l-52 598h36l136 -1520h-40z" />
    <glyph glyph-name="B" unicode="B" horiz-adv-x="559" 
d="M120 0v1600h40v-1600h-40zM240 0v40h46q68 0 98.5 34t33.5 112q5 117 5 219t-5 219q-3 84 -36.5 120t-107.5 36h-34v40h42q69 0 100 36t34 120q5 117 5 219t-5 219q-3 78 -33.5 112t-98.5 34h-44v40h44q89 0 129 -43.5t43 -142.5q3 -139 3 -241t-3 -197
q-1 -69 -21.5 -107t-64.5 -55v-30q85 -28 88 -160q3 -118 3 -219.5t-3 -218.5q-3 -99 -43 -142.5t-129 -43.5h-46z" />
    <glyph glyph-name="C" unicode="C" horiz-adv-x="548" 
d="M244 -10q-70 8 -101 51.5t-33 132.5q-3 173 -4.5 326t-1.5 299t1.5 298.5t4.5 324.5q2 91 33 134t101 50v-40q-51 -6 -71.5 -39t-22.5 -105q-3 -172 -4.5 -324.5t-1.5 -298.5t1.5 -299t4.5 -326q2 -70 22.5 -103.5t71.5 -40.5v-40zM414 1068q3 177 0 354q-1 68 -21 101
t-69 41v41q66 -10 97 -54t33 -129q1 -41 1.5 -109t0 -136t-1.5 -109h-40zM324 -9v40q53 8 75 41.5t23 101.5q2 98 1 195.5t-3 194.5h40q3 -105 4 -195t-2 -195q-2 -86 -34.5 -130t-103.5 -53z" />
    <glyph glyph-name="D" unicode="D" horiz-adv-x="572" 
d="M120 0v1600h40v-1600h-40zM240 0v40h50q72 0 102.5 34t31.5 112q6 614 0 1228q-1 78 -31 112t-101 34h-52v40h52q90 0 130.5 -43.5t41.5 -142.5q3 -220 4 -417.5t0 -394.5t-4 -416q-1 -99 -41.5 -142.5t-132.5 -43.5h-50z" />
    <glyph glyph-name="E" unicode="E" horiz-adv-x="488" 
d="M120 0v1600h40v-1600h-40zM240 1560v40h198v-40h-198zM240 780v40h178v-40h-178zM240 0v40h198v-40h-198z" />
    <glyph glyph-name="F" unicode="F" horiz-adv-x="478" 
d="M120 0v1600h40v-1600h-40zM220 1560v40h218v-40h-218zM220 780v40h198v-40h-198z" />
    <glyph glyph-name="G" unicode="G" horiz-adv-x="545" 
d="M240 -7q-69 9 -99.5 52.5t-32.5 130.5q-3 223 -4 423.5t0 401t4 423.5q2 87 33 131t99 53v-41q-89 -17 -92 -143q-2 -223 -2.5 -423.5t0 -401t2.5 -423.5q0 -126 92 -143v-40zM412 1070q3 95 3 177.5t-3 176.5q-4 126 -92 143v41q67 -9 98 -53t34 -131q3 -94 3 -176.5
t-3 -177.5h-40zM320 -8v41q97 14 100 143q2 107 2 199.5t-2 198.5h-146v40h186q2 -69 2 -170t-2 -268q-1 -88 -34 -132t-106 -52z" />
    <glyph glyph-name="H" unicode="H" horiz-adv-x="600" 
d="M120 0v1600h40v-780h220l-10 -40h-210v-780h-40zM440 0v1600h40v-1600h-40z" />
    <glyph glyph-name="I" unicode="I" 
d="M120 0v1600h40v-1600h-40z" />
    <glyph glyph-name="J" unicode="J" horiz-adv-x="515" 
d="M281 -8v41q92 17 92 143v1424h40v-1424q0 -88 -31 -131.5t-101 -52.5zM201 -8q-71 8 -102.5 52t-33.5 132q-3 105 -3 195t3 195h40q-6 -195 0 -390q2 -66 23.5 -100.5t72.5 -42.5v-41z" />
    <glyph glyph-name="K" unicode="K" horiz-adv-x="521" 
d="M120 0v790h62l144 492l94 318h44l-304 -1042v-558h-40zM120 830v770h40v-770h-40zM450 0l-202 690l22 64l226 -754h-46z" />
    <glyph glyph-name="L" unicode="L" horiz-adv-x="450" 
d="M120 0v1600h40v-1600h-40zM240 0v40h198v-40h-198z" />
    <glyph glyph-name="M" unicode="M" horiz-adv-x="814" 
d="M358 10l-44 442l-118 1108h-76v40h112l76 -682l86 -868h26l86 868l76 682h112v-40h-76l-118 -1108l-44 -442h-98zM120 0v1500h40v-1500h-40zM654 0v1500h40v-1500h-40z" />
    <glyph glyph-name="N" unicode="N" horiz-adv-x="650" 
d="M418 0l-86 600l-136 960h-76v40h110l72 -504l152 -1056h76v-40h-112zM490 100v1500h40v-1500h-40zM120 0v1500h40v-1500h-40z" />
    <glyph glyph-name="O" unicode="O" horiz-adv-x="569" 
d="M244 -8q-71 9 -101.5 51t-32.5 127q-4 225 -5.5 427t0 404t5.5 427q2 86 32.5 128.5t101.5 51.5v-40q-52 -7 -73 -39t-23 -101q-5 -220 -6 -420.5t0.5 -404.5t5.5 -433q2 -67 23 -98.5t73 -39.5v-40zM324 -8v40q52 8 73.5 39.5t22.5 98.5q5 229 6 433t-1 404.5t-5 420.5
q-1 69 -23 100t-73 40v40q74 -7 106 -50t32 -130q2 -225 2.5 -427t0 -404t-2.5 -427q0 -85 -32 -127.5t-106 -50.5z" />
    <glyph glyph-name="P" unicode="P" horiz-adv-x="517" 
d="M120 0v1600h40v-1600h-40zM240 690v40h42q71 0 101 34t33 112q5 144 5 269t-5 269q-3 78 -33 112t-99 34h-44v40h44q87 0 127.5 -43.5t44.5 -142.5q6 -162 6 -287t-6 -251q-4 -99 -44.5 -142.5t-129.5 -43.5h-42z" />
    <glyph glyph-name="Q" unicode="Q" horiz-adv-x="569" 
d="M110 170q-4 225 -5.5 427t0 404t5.5 427q2 86 32.5 128.5t101.5 51.5v-40q-52 -7 -73 -39t-23 -101q-5 -220 -6 -420.5t0.5 -404.5t5.5 -433q2 -67 23 -98.5t73 -39.5v-40q-71 9 -101.5 51t-32.5 127zM324 -8v40q52 8 73.5 39.5t22.5 98.5q5 229 6 433t-1 404.5t-5 420.5
q-1 69 -22.5 101t-73.5 39v40q74 -7 106 -50t32 -130q2 -225 2.5 -427t0 -404t-2.5 -427q0 -85 -32 -127.5t-106 -50.5zM264 -50h40q20 -74 100 -68v-36q-61 -3 -95 21.5t-45 82.5z" />
    <glyph glyph-name="R" unicode="R" horiz-adv-x="549" 
d="M448 0l-144 650h-84v40h62q71 0 101 34t33 112q9 289 0 578q-3 78 -33 112t-99 34h-44v40h44q87 0 127.5 -43.5t44.5 -142.5q12 -325 0 -578q-6 -152 -110 -178l146 -658h-44zM120 0v1600h40v-1600h-40z" />
    <glyph glyph-name="S" unicode="S" horiz-adv-x="512" 
d="M301 -7v40q48 9 69 43.5t23 99.5q2 69 2.5 119.5t-0.5 104t-2 132.5q-1 93 -18 152.5t-80 75.5l-72 18q-62 15 -91.5 47t-39 88.5t-11.5 144.5q-1 77 0.5 177t1.5 191q0 88 31.5 131t104.5 51v-41q-50 -8 -72 -42t-24 -101q-3 -91 -2 -182.5t2 -183.5q2 -117 18 -168
t82 -68l74 -18q90 -21 111.5 -85.5t24.5 -186.5q2 -83 2.5 -135.5t0 -101t-2.5 -119.5q-3 -87 -34.5 -131t-97.5 -52zM387 1070q6 177 0 354q-2 65 -22 99t-66 43v41q65 -9 95 -52.5t33 -130.5q3 -127 0 -354h-40zM221 -8q-71 8 -104 52t-36 132q-2 78 -2.5 136t0 116.5
t2.5 137.5h40q-6 -195 0 -390q2 -67 25 -101t75 -42v-41z" />
    <glyph glyph-name="T" unicode="T" horiz-adv-x="428" 
d="M20 1560v40h388v-40h-388zM194 0v1520h40v-1520h-40z" />
    <glyph glyph-name="U" unicode="U" horiz-adv-x="554" 
d="M105 170q-6 715 0 1430h40q-3 -358 -4 -714.5t2 -715.5q0 -121 94 -137v-41q-68 8 -99 50.5t-33 127.5zM317 -8v41q92 16 92 137q6 715 0 1430h40q6 -715 0 -1430q-1 -85 -32.5 -127.5t-99.5 -50.5z" />
    <glyph glyph-name="V" unicode="V" horiz-adv-x="518" 
d="M65 1600h44l84 -940l52 -580h-40zM209 40h62l54 620l84 940h44l-148 -1600h-92z" />
    <glyph glyph-name="W" unicode="W" horiz-adv-x="782" 
d="M174 0l-84 1600h40l26 -530l52 -1030h61l-3 -40h-92zM572 80l54 990l26 530h40l-84 -1520h-36zM512 0l-40 568l-70 982h-24l-72 -982l-34 -488h-36l68 990l38 520h94l36 -520l74 -1030h60l-2 -40h-92z" />
    <glyph glyph-name="X" unicode="X" horiz-adv-x="468" 
d="M52 1600h38l68 -380l70 -396h40l158 -824h-38l-74 396l-74 388h-40zM250 864l60 356l68 380h38l-132 -736h-34zM42 0l144 744h32l-64 -348l-74 -396h-38z" />
    <glyph glyph-name="Y" unicode="Y" horiz-adv-x="492" 
d="M224 0v440l-174 1160h42l72 -488l66 -450h67l-33 -222v-440h-40zM270 702l60 410l72 488h40l-134 -898h-38z" />
    <glyph glyph-name="Z" unicode="Z" horiz-adv-x="478" 
d="M62 1560v40h376v-40h-376zM56 80l322 1440h44l-324 -1440h-42zM40 0v40h358v-40h-358z" />
    <glyph glyph-name="bracketleft" unicode="[" horiz-adv-x="378" 
d="M120 -400v2000h198v-40h-158v-1920h158v-40h-198z" />
    <glyph glyph-name="backslash" unicode="\" horiz-adv-x="560" 
d="M500 -400l-400 2000h-40l400 -2000h40z" />
    <glyph glyph-name="bracketright" unicode="]" horiz-adv-x="378" 
d="M258 -400v2000h-198v-40h158v-1920h-158v-40h198z" />
    <glyph glyph-name="asciicircum" unicode="^" horiz-adv-x="610" 
d="M120 976l164 404h42l164 -404h-42l-142 352l-144 -352h-42z" />
    <glyph glyph-name="underscore" unicode="_" horiz-adv-x="1312" 
d="M60 -80h1192v-40h-1192v40z" />
    <glyph glyph-name="grave" unicode="`" horiz-adv-x="392" 
d="M230 1280l-110 198h42l110 -198h-42z" />
    <glyph glyph-name="a" unicode="a" horiz-adv-x="540" 
d="M90 820q-1 54 -2 109.5t0 98.5q3 86 35.5 128.5t98.5 51.5v-40q-43 -7 -67 -38t-27 -102q-3 -93 0 -208h-38zM384 0v1028q0 63 -18.5 96t-63.5 42v42q68 -9 95 -52.5t27 -127.5v-1028h-40zM80 180q-1 30 -2 56t0 54q3 96 30.5 175t111.5 145q20 14 41 29.5t43 30.5v-45
q-34 -24 -84 -65q-61 -52 -80 -121t-22 -149q0 -16 0.5 -47t1.5 -63q5 -72 36 -111t80 -39q40 0 68 16v-41q-27 -15 -68 -15q-76 0 -113.5 51.5t-42.5 138.5z" />
    <glyph glyph-name="b" unicode="b" horiz-adv-x="569" 
d="M120 0v1600h40v-1600h-40zM240 9v39q33 -18 82 -18q57 0 82 33t26 109q3 141 4 274.5t0 275t-4 306.5q-1 77 -26 109.5t-82 32.5q-49 0 -82 -18v39q32 19 82 19q78 0 112.5 -42t35.5 -140q2 -162 2.5 -303t0 -275.5t-2.5 -277.5q-1 -97 -35.5 -139.5t-112.5 -42.5
q-50 0 -82 19z" />
    <glyph glyph-name="c" unicode="c" horiz-adv-x="535" 
d="M100 170q-9 429 0 858q2 86 33 129t103 51v-40q-50 -7 -72 -38t-24 -102q-2 -127 -3 -230t-1 -199t1 -199t3 -230q2 -70 24 -100.5t72 -37.5v-40q-72 8 -103 50.5t-33 127.5zM410 820q3 63 2.5 113t-0.5 95q0 71 -23 102t-73 38v40q73 -8 104.5 -51t31.5 -129
q0 -42 0.5 -92.5t-2.5 -115.5h-40zM316 -8v40q50 7 73 37.5t23 100.5q0 47 0.5 98t-2.5 114h40q3 -64 3.5 -116t-1.5 -96q-3 -85 -33.5 -127.5t-102.5 -50.5z" />
    <glyph glyph-name="d" unicode="d" horiz-adv-x="569" 
d="M409 0v1600h40v-1600h-40zM99 172q-2 143 -2.5 277.5t0 275.5t2.5 303q2 98 37 140t113 42q47 0 80 -18v-39q-31 17 -80 17q-57 0 -82.5 -32.5t-27.5 -109.5q-2 -165 -2.5 -306.5t0 -275t2.5 -274.5q2 -76 26.5 -109t81.5 -33q49 0 82 18v-37q-33 -21 -82 -21
q-78 0 -112 42.5t-36 139.5z" />
    <glyph glyph-name="e" unicode="e" horiz-adv-x="541" 
d="M100 170q-9 429 0 858q2 86 34 128.5t104 51.5v-41q-51 -8 -73.5 -41t-24.5 -98q-2 -127 -3 -229.5t-1 -198t1 -199t3 -231.5q2 -70 24.5 -101t73.5 -37v-40q-74 8 -105 50.5t-33 127.5zM196 584v40h216q3 134 3 240.5t-3 163.5q-4 65 -25.5 98t-68.5 42v40q68 -9 99 -51
t35 -129q2 -54 3 -166.5t-5 -277.5h-254zM318 -8v41q49 7 70.5 37.5t23.5 99.5q2 45 1.5 96.5t-3.5 115.5h40q3 -64 3.5 -116t-1.5 -96q-4 -85 -32 -127.5t-102 -50.5z" />
    <glyph glyph-name="f" unicode="f" horiz-adv-x="360" 
d="M58 1160v40h64v232q0 96 36 138t126 42q23 0 55 -3.5t51 -8.5v-38q-21 5 -45.5 7.5t-56.5 2.5q-72 0 -99 -28.5t-27 -111.5l2 -1432h-40l-2 1160h-64zM222 1160v40h148v-40h-148z" />
    <glyph glyph-name="g" unicode="g" horiz-adv-x="597" 
d="M247 -280q-78 5 -127 40t-49 120v28q0 63 38 94t74 38v16q-70 35 -70 96v16q0 39 22 65.5t44 30.5v18q-65 37 -68 158q-2 85 -3 150.5t-1 128.5t1 136t3 173q2 86 33 129t103 51v-40q-51 -7 -72.5 -38t-23.5 -102q-9 -306 0 -588q2 -70 24.5 -100.5t71.5 -37.5v-44
q-43 -7 -68.5 -30.5t-25.5 -59.5v-16q0 -67 94 -80v-40q-58 0 -97 -25t-39 -99v-30q0 -70 39 -93t97 -26v-39zM327 262v40q50 7 72 37.5t24 100.5q9 282 0 588q-2 71 -23.5 102t-72.5 38v40q106 -12 128 -102h16q0 41 32 67.5t72 26.5v-40h-14q-42 0 -69 -45.5t-27 -132.5
v-46q0 -100 1 -174.5t0.5 -148.5t-3.5 -173q-3 -85 -33.5 -127.5t-102.5 -50.5zM327 -279v38q58 3 97 26t39 93v30q0 74 -38.5 94t-97.5 25v38q82 -8 129 -39t47 -118v-28q0 -85 -48.5 -119.5t-127.5 -39.5z" />
    <glyph glyph-name="h" unicode="h" horiz-adv-x="586" 
d="M120 0v1600h40v-1600h-40zM430 0v1028q0 77 -25.5 109.5t-82.5 32.5q-49 0 -82 -18v39q32 19 82 19q78 0 113 -42t35 -140v-1028h-40z" />
    <glyph glyph-name="i" unicode="i" 
d="M60 1476v124h160v-124h-160zM124 0v1200h40v-1200h-40z" />
    <glyph glyph-name="j" unicode="j" horiz-adv-x="342" 
d="M62 1476v124h160v-124h-160zM-4 -400q-22 0 -54 3t-52 7v38q37 -8 102 -8q72 0 99 29t27 111v1420h40v-1420q0 -96 -36 -138t-126 -42z" />
    <glyph glyph-name="k" unicode="k" horiz-adv-x="496" 
d="M120 666v934h40v-934h-40zM120 0v612h62l74 208l126 380h44l-266 -776v-424h-40zM252 526l22 60l202 -586h-46z" />
    <glyph glyph-name="l" unicode="l" 
d="M120 0v1600h40v-1600h-40z" />
    <glyph glyph-name="m" unicode="m" horiz-adv-x="896" 
d="M740 0v1028q-1 77 -26 109.5t-82 32.5q-49 0 -82 -18v41q33 17 82 17q78 0 112.5 -42t35.5 -140v-1028h-40zM430 0v1028q-1 77 -26 109.5t-82 32.5q-49 0 -82 -18v40q33 18 82 18q78 0 112.5 -42t35.5 -140v-1028h-40zM120 0v1200h40v-1200h-40z" />
    <glyph glyph-name="n" unicode="n" horiz-adv-x="586" 
d="M430 0v1028q-1 77 -26 109.5t-82 32.5q-45 0 -82 -23v40q35 23 82 23q78 0 112.5 -42t35.5 -140v-1028h-40zM120 0v1200h40v-1200h-40z" />
    <glyph glyph-name="o" unicode="o" horiz-adv-x="556" 
d="M102 170q-12 429 0 858q3 86 33.5 129t102.5 51v-40q-51 -7 -72.5 -38t-23.5 -102q-4 -127 -5.5 -230t-1.5 -199t1.5 -199t5.5 -230q2 -70 24.5 -100.5t71.5 -37.5v-40q-72 8 -102.5 50.5t-33.5 127.5zM318 -8v40q50 7 72 37.5t24 100.5q4 127 6 230t2 199t-2 199t-6 230
q-2 71 -23.5 102t-72.5 38v40q72 -8 102.5 -51t33.5 -129q12 -429 0 -858q-3 -85 -33.5 -127.5t-102.5 -50.5z" />
    <glyph glyph-name="p" unicode="p" horiz-adv-x="569" 
d="M238 49q34 -19 84 -19q57 0 82 33t26 109q4 183 4.5 325t-1 268.5t-3.5 262.5q-1 77 -26 109.5t-82 32.5q-50 0 -84 -19v39q31 20 84 20q78 0 112.5 -42t35.5 -140q2 -80 2.5 -185.5t0.5 -222t-0.5 -232t-2.5 -216.5q-1 -97 -35.5 -139.5t-112.5 -42.5q-53 0 -84 20v39z
M120 -400v1600h40v-1600h-40z" />
    <glyph glyph-name="q" unicode="q" horiz-adv-x="570" 
d="M100 172q-1 78 -2.5 182.5t-1.5 221t1 233t3 219.5q2 98 36 140t112 42q50 0 82 -19v-39q-33 18 -82 18q-57 0 -81.5 -32.5t-26.5 -109.5q-3 -176 -4.5 -315.5t-0.5 -268.5t5 -272q2 -76 26.5 -109t81.5 -33q49 0 82 18v-39q-32 -19 -82 -19q-78 0 -112 42.5t-36 139.5z
M410 -400v1600h40v-1600h-40z" />
    <glyph glyph-name="r" unicode="r" horiz-adv-x="390" 
d="M120 0v1200h40v-1200h-40zM240 1146v40q29 14 80 14h50v-40h-50q-49 0 -80 -14z" />
    <glyph glyph-name="s" unicode="s" horiz-adv-x="514" 
d="M293 -8v40q49 7 69.5 37.5t22.5 100.5q2 48 3 98t-1 90q-3 99 -20.5 148.5t-77.5 71.5l-68 26q-57 22 -84 53.5t-36 85t-12 141.5q-1 39 0 72t2 72q3 86 29.5 129t96.5 51v-40q-48 -7 -66 -38t-20 -102q-1 -42 -2 -75t0 -69q3 -96 15.5 -153t78.5 -83l70 -26
q72 -27 104 -85.5t32 -178.5q0 -43 -0.5 -93.5t-3.5 -94.5q-5 -85 -33 -127.5t-99 -50.5zM381 820q3 63 2.5 113t-0.5 95q-1 71 -19.5 102t-66.5 38v40q71 -8 98 -51t28 -129q0 -42 0.5 -92.5t-2.5 -115.5h-40zM87 170q-1 44 -1 96t3 116h40q-3 -63 -2.5 -114t0.5 -98
q2 -70 20 -100.5t66 -37.5v-40q-70 8 -97 50.5t-29 127.5z" />
    <glyph glyph-name="t" unicode="t" horiz-adv-x="360" 
d="M58 1160v40h64v340h40v-1370q0 -82 17 -111t89 -29q32 0 46.5 2t35.5 6v-38q-43 -10 -86 -10q-90 0 -116 42t-26 138v990h-64zM222 1160v40h108v-40h-108z" />
    <glyph glyph-name="u" unicode="u" horiz-adv-x="572" 
d="M102 172v1028h40v-1028q0 -76 25.5 -109t82.5 -33q45 0 82 23v-40q-35 -23 -82 -23q-78 0 -113 42.5t-35 139.5zM412 0v1200h40v-1200h-40z" />
    <glyph glyph-name="v" unicode="v" horiz-adv-x="484" 
d="M55 1200h44l68 -608l60 -492h-40zM190 40h63l64 552l68 608h44l-142 -1200h-92z" />
    <glyph glyph-name="w" unicode="w" horiz-adv-x="764" 
d="M170 0l-110 1200h40l56 -608l48 -552h62l-4 -40h-92zM562 100l46 492l56 608h40l-104 -1100h-38zM500 0l-42 456l-64 694h-24l-66 -694l-34 -356h-40l46 492l58 598h96l56 -598l48 -552h62l-4 -40h-92z" />
    <glyph glyph-name="x" unicode="x" horiz-adv-x="428" 
d="M354 0l-74 328l-62 256h-42l-138 616h40l58 -268l68 -308h42l148 -624h-40zM230 684l60 248l60 268h40l-124 -516h-36zM34 0l124 524h38l-48 -196l-74 -328h-40z" />
    <glyph glyph-name="y" unicode="y" horiz-adv-x="554" 
d="M262 0l-140 1200h44l68 -608l62 -552h63l-5 -40h-92zM328 100l56 492l68 608h44l-130 -1100h-38zM166 -398q-22 0 -54 3t-52 7v38q21 -4 46 -7t56 -3q71 0 92.5 30t33.5 112l24 168h38l-22 -168q-12 -96 -46.5 -138t-115.5 -42z" />
    <glyph glyph-name="z" unicode="z" horiz-adv-x="424" 
d="M44 1156v40l350 4v-40zM50 100l284 1000h46l-286 -1000h-44zM36 0v40h340v-40h-340z" />
    <glyph glyph-name="braceleft" unicode="{" horiz-adv-x="462" 
d="M402 -400q-121 0 -190.5 76t-69.5 206q0 28 2 83.5t5 123t6 132t5 111t2 58.5q0 83 -28 118.5t-72 35.5h-2v112h2q44 0 72 36t28 118q0 12 -2 58.5t-5 111t-6 132t-5 123t-2 83.5q0 131 69.5 206.5t190.5 75.5v-40q-105 0 -162.5 -63t-57.5 -179q0 -27 2 -82.5t5 -123
t6 -132t5 -111t2 -59.5q0 -81 -26.5 -133t-73.5 -63v-28q47 -10 73.5 -62.5t26.5 -133.5q0 -13 -2 -59.5t-5 -111t-6 -132t-5 -123t-2 -82.5q0 -115 57.5 -178.5t162.5 -63.5v-40z" />
    <glyph glyph-name="bar" unicode="|" 
d="M120 1820h40v-2060h-40v2060z" />
    <glyph glyph-name="braceright" unicode="}" horiz-adv-x="422" 
d="M20 -400q121 0 190.5 76t69.5 206q0 28 -2 83.5t-5 123t-6 132t-5 111t-2 58.5q0 83 28 118.5t72 35.5h2v112h-2q-44 0 -72 36t-28 118q0 12 2 58.5t5 111t6 132t5 123t2 83.5q0 131 -69.5 206.5t-190.5 75.5v-40q105 0 162.5 -63t57.5 -179q0 -27 -2 -82.5t-5 -123
t-6 -132t-5 -111t-2 -59.5q0 -81 26.5 -133t73.5 -63v-28q-47 -10 -73.5 -62.5t-26.5 -133.5q0 -13 2 -59.5t5 -111t6 -132t5 -123t2 -82.5q0 -115 -57.5 -178.5t-162.5 -63.5v-40z" />
    <glyph glyph-name="asciitilde" unicode="~" horiz-adv-x="828" 
d="M532 730q-49 7 -78 33.5t-58 54t-78 38.5q-61 14 -105.5 -19t-52.5 -99h-40q11 87 70 129t134 27q54 -11 85 -38.5t58 -54t69 -33.5q57 -7 94 28.5t40 95.5h38q-4 -79 -52.5 -125.5t-123.5 -36.5z" />
    <glyph glyph-name="uni00A0" unicode="&#xa0;" horiz-adv-x="400" 
 />
    <glyph glyph-name="exclamdown" unicode="&#xa1;" horiz-adv-x="360" 
d="M167 952l-12 -920v-432h50v432l-10 920h-28zM100 1200v-124h160v124h-160z" />
    <glyph glyph-name="cent" unicode="&#xa2;" horiz-adv-x="534" 
d="M255 1470v130h40v-130h-40zM235 192q-72 8 -103 50.5t-33 127.5q-6 429 0 858q2 86 33 129t103 51v-40q-50 -7 -72 -38t-24 -102q-2 -127 -3 -230t-1 -199t1 -199t3 -230q2 -70 24 -100.5t72 -37.5v-40zM409 1020q3 63 2.5 113t-0.5 95q0 71 -23 102t-73 38v40
q73 -8 104.5 -51t31.5 -129q0 -42 0.5 -92.5t-2.5 -115.5h-40zM315 192v40q50 7 73 37.5t23 100.5q0 47 0.5 98t-2.5 114h40q3 -64 3.5 -116t-1.5 -96q-3 -85 -33.5 -127.5t-102.5 -50.5zM255 0v130h40v-130h-40z" />
    <glyph glyph-name="sterling" unicode="&#xa3;" horiz-adv-x="616" 
d="M183 120q26 56 40.5 148t14.5 232q0 83 -6.5 151t-15.5 129h-88v40h80q-15 85 -31.5 169.5t-28.5 188t-12 244.5q0 89 30 132t96 52v-40q-46 -9 -66 -42t-20 -102q0 -150 16 -263t37 -211t37 -201t16 -233q0 -149 -18 -243.5t-48 -150.5h-33zM440 1068q3 177 0 354
q-1 71 -22.5 104t-75.5 40v40q71 -9 103 -53t35 -131q1 -41 1.5 -109t0 -136t-1.5 -109h-40zM322 780q-1 11 -2.5 20.5t-3.5 19.5h116v-40h-110zM120 0v40h376v-40h-376z" />
    <glyph glyph-name="currency" unicode="&#xa4;" horiz-adv-x="760" 
d="M520 1354l-32 24l116 162l34 -24zM154 68l-34 24l103 142q-38 41 -41 136q-12 429 0 858q4 107 50 147l-102 141l34 24l103 -144q22 9 51 12v-40q-51 -7 -72.5 -38t-23.5 -102q-4 -127 -5.5 -230t-1.5 -199t1.5 -199t5.5 -230q2 -70 24.5 -100.5t71.5 -37.5v-40
q-37 4 -63 17zM398 192v40q50 7 72 37.5t24 100.5q4 127 6 230t2 199t-2 199t-6 230q-2 71 -23.5 102t-72.5 38v40q72 -8 102.5 -51t33.5 -129q12 -429 0 -858q-3 -85 -33.5 -127.5t-102.5 -50.5zM606 68l-116 162l32 24l118 -162z" />
    <glyph glyph-name="yen" unicode="&#xa5;" horiz-adv-x="492" 
d="M224 0v370h-126v40h126v30l-2 14h-124v40h118l-166 1106h42l72 -488l66 -450h67l-25 -168h122v-40h-128l-2 -14v-30h130v-40h-130v-370h-40zM270 702l60 410l72 488h40l-134 -898h-38z" />
    <glyph glyph-name="brokenbar" unicode="&#xa6;" 
d="M120 1820h40v-804h-40v804zM120 536h40v-776h-40v776z" />
    <glyph glyph-name="section" unicode="&#xa7;" horiz-adv-x="588" 
d="M252 206q-60 17 -92.5 54.5t-35.5 113.5q-3 114 -3 221.5t3 236.5q2 56 23 92.5t51 55.5v34q-46 27 -58.5 70t-17.5 148q-1 39 1 98t3 98q3 86 29.5 129t96.5 51v-40q-48 -7 -66 -38t-20 -102q-1 -42 -3 -101t-1 -95q5 -94 16 -142.5t74 -64.5v-63q-48 -14 -68 -52
t-20 -78q-4 -100 -2.5 -228t2.5 -230q2 -41 21 -80.5t67 -53.5v-34zM416 1220q3 63 3.5 113t-1.5 95q-2 71 -20 102t-66 38v40q71 -8 98.5 -51t27.5 -129q0 -42 0.5 -92.5t-2.5 -115.5h-40zM332 -407v40q47 8 66.5 38.5t21.5 98.5q2 48 3 105t-1 97q-3 96 -17.5 150.5
t-72.5 67.5v48q50 12 68 53t22 83q3 102 4 230t-4 228q-2 42 -20 82t-70 51v42q53 -14 89.5 -53t40.5 -122q8 -129 5.5 -236.5t-7.5 -221.5q-3 -57 -19.5 -92.5t-58.5 -55.5v-28q51 -27 66.5 -84.5t15.5 -141.5q0 -43 -0.5 -100.5t-3.5 -101.5q-5 -84 -32.5 -126.5
t-95.5 -50.5zM252 -408q-73 7 -100 49.5t-30 128.5q-1 44 -1 96t3 116h40q-3 -63 -3 -114t1 -98q2 -71 21 -101.5t69 -36.5v-40z" />
    <glyph glyph-name="dieresis" unicode="&#xa8;" horiz-adv-x="480" 
d="M270 1280v60h60v-60h-60zM150 1280v60h60v-60h-60z" />
    <glyph glyph-name="copyright" unicode="&#xa9;" horiz-adv-x="1152" 
d="M120 600q0 314 96.5 456.5t319.5 152.5v-40q-202 -10 -289 -143.5t-87 -425.5t87 -425t289 -144v-40q-223 11 -319.5 153.5t-96.5 455.5zM616 -9v40q202 11 289 144t87 425q0 289 -88 423.5t-288 145.5v40q221 -10 318.5 -152.5t97.5 -456.5q0 -313 -96.5 -455.5
t-319.5 -153.5zM400 318q-2 78 -2 174t0.5 194.5t1.5 183.5q2 86 33 129t103 51v-40q-50 -7 -72 -38t-24 -102q-2 -111 -3.5 -196.5t-1 -168.5t4.5 -187q2 -70 24.5 -100.5t71.5 -37.5v-40q-72 8 -102.5 50.5t-33.5 127.5zM616 1050q73 -8 104.5 -51t31.5 -129v-40t-2 -50
h-40q2 30 2 47.5v42.5q0 71 -23 102t-73 38v40zM616 140v40q50 7 73 37.5t23 100.5v47t-2 57h40q2 -37 2 -59v-45q0 -84 -31.5 -127t-104.5 -51z" />
    <glyph glyph-name="ordfeminine" unicode="&#xaa;" horiz-adv-x="529" 
d="M370 762v716q-1 39 -13.5 61.5t-42.5 29.5v38q52 -7 72.5 -38.5t21.5 -94.5v-712h-38zM130 1332q-1 19 -1.5 52.5t-0.5 61.5v30q0 56 24.5 89.5t81.5 41.5v-36q-29 -6 -46.5 -27.5t-21.5 -67.5q-1 -19 0 -65t2 -79h-38zM122 892q-1 24 -1.5 37.5t-0.5 38.5
q0 102 43 154.5t127 101.5v-38q-70 -45 -101 -90t-31 -128q0 -18 0.5 -38.5t1.5 -37.5q6 -61 42.5 -86t87.5 -11v-36q-70 -20 -116.5 16t-51.5 117z" />
    <glyph glyph-name="guillemotleft" unicode="&#xab;" horiz-adv-x="538" 
d="M238 312l-218 270v68l218 270v-68l-190 -236l190 -236v-68zM398 312l-218 270v68l218 270v-68l-190 -236l190 -236v-68z" />
    <glyph glyph-name="logicalnot" unicode="&#xac;" horiz-adv-x="732" 
d="M572 618v252h-452v40h492v-292h-40z" />
    <glyph glyph-name="uni00AD" unicode="&#xad;" horiz-adv-x="492" 
d="M60 780v40h372v-40h-372z" />
    <glyph glyph-name="registered" unicode="&#xae;" horiz-adv-x="690" 
d="M308 1084q-101 11 -144.5 81t-43.5 215q0 149 43.5 220.5t144.5 81.5v-24q-90 -10 -127 -74t-37 -204q0 -136 38 -199t126 -73v-24zM388 1084v24q86 11 122 74t36 198q0 138 -36 203t-122 75v24q97 -10 139.5 -81.5t42.5 -220.5q0 -145 -42.5 -215t-139.5 -81zM284 1176
v424h28v-424h-28zM388 1176q3 94 0 150q-3 38 -36 40v26q31 3 34 38q3 48 0 108q-3 34 -34 36v26q61 -2 64 -64q3 -57 0 -102q-3 -43 -34 -52v-8q31 -9 34 -50q2 -33 2 -65t-2 -83h-28z" />
    <glyph glyph-name="macron" unicode="&#xaf;" horiz-adv-x="612" 
d="M160 1320h292v-40h-292v40z" />
    <glyph glyph-name="degree" unicode="&#xb0;" horiz-adv-x="678" 
d="M300 1186q-76 14 -128 74.5t-52 139.5q0 80 52 141t128 75v-41q-59 -13 -99.5 -62.5t-40.5 -112.5q0 -62 40.5 -110.5t99.5 -62.5v-41zM380 1186v41q59 14 98.5 63t39.5 110q0 63 -39.5 112t-98.5 63v41q75 -14 126.5 -75t51.5 -141q0 -78 -51.5 -139t-126.5 -75z" />
    <glyph glyph-name="plusminus" unicode="&#xb1;" horiz-adv-x="772" 
d="M366 664v126h-246v40h246v126h40v-126h246v-40h-246v-126h-40zM120 520v40h532v-40h-532z" />
    <glyph glyph-name="uni00B2" unicode="&#xb2;" horiz-adv-x="331" 
d="M79 880v128q0 102 26 145.5t54 70.5l32 30q27 26 36 51t10 59q3 74 0 148q0 40 -24 53v37q55 -15 58 -94q2 -31 3 -64t-1 -80q-1 -61 -20 -90.5t-54 -59.5l-32 -28q-27 -24 -39.5 -71t-12.5 -107v-128h-36zM79 1356q-1 42 -2 80t0 72q1 41 15.5 63t40.5 30v-36
q-22 -15 -22 -53q0 -37 0.5 -77t1.5 -79h-34zM195 880v32h80v-32h-80z" />
    <glyph glyph-name="uni00B3" unicode="&#xb3;" horiz-adv-x="333" 
d="M63 1568v32h204v-32h-204zM203 879v38q19 14 20 53q2 53 2.5 105t-2.5 109q-1 36 -17 52t-55 16h-36l-2 30l100 246h38l-100 -242q45 0 76 -19.5t32 -82.5q2 -51 2 -112.5t-2 -97.5q-2 -37 -14 -62t-42 -33zM123 879q-26 8 -40.5 30t-15.5 63t-1 71.5t1 88.5h34
q-3 -96 0 -162q2 -39 22 -54v-37z" />
    <glyph glyph-name="acute" unicode="&#xb4;" horiz-adv-x="392" 
d="M120 1280l110 198h42l-110 -198h-42z" />
    <glyph glyph-name="uni00B5" unicode="&#xb5;" horiz-adv-x="610" 
d="M120 -400v1600h40v-1028q2 -76 26.5 -109t81.5 -33q41 0 74 19v-39q-32 -20 -74 -20q-73 0 -108 38v-428h-40zM450 0q-28 44 -28 162v1038h40v-1038q0 -118 28 -162h-40z" />
    <glyph glyph-name="paragraph" unicode="&#xb6;" horiz-adv-x="722" 
d="M374 -200v1152h-76q-94 0 -133.5 42t-42.5 138q-3 78 -3 155t3 131q6 98 44 140t132 42h116v-1800h-40zM480 -200v1800h122v-40h-82v-1760h-40z" />
    <glyph glyph-name="periodcentered" unicode="&#xb7;" horiz-adv-x="260" 
d="M100 800v60h60v-60h-60z" />
    <glyph glyph-name="cedilla" unicode="&#xb8;" horiz-adv-x="394" 
d="M80 -224v36h54q69 0 54 74l-24 114h40l24 -114q22 -110 -94 -110h-54z" />
    <glyph glyph-name="uni00B9" unicode="&#xb9;" horiz-adv-x="234" 
d="M103 880v672h-46l-2 16l54 32h30v-720h-36z" />
    <glyph glyph-name="ordmasculine" unicode="&#xba;" horiz-adv-x="544" 
d="M126 890q-2 30 -3 89.5t-1.5 133t-0.5 146t1.5 130.5t3.5 85q5 62 25.5 94.5t78.5 39.5v-37q-31 -6 -47.5 -27t-18.5 -68q-2 -116 -3 -202.5t-0.5 -175.5t3.5 -212q2 -45 18.5 -66t47.5 -27v-37q-55 7 -77.5 38.5t-26.5 95.5zM310 756v36q37 5 53 26.5t17 67.5
q3 92 4.5 164t1.5 136.5t-1.5 134t-4.5 157.5q-1 47 -17 68t-53 26v36q62 -7 85 -40.5t25 -93.5q1 -27 2 -85t1.5 -130.5t0.5 -146t-1 -133t-3 -89.5q-4 -60 -26 -93t-84 -41z" />
    <glyph glyph-name="guillemotright" unicode="&#xbb;" horiz-adv-x="538" 
d="M300 312l218 270v68l-218 270v-68l190 -236l-190 -236v-68zM140 312l218 270v68l-218 270v-68l190 -236l-190 -236v-68z" />
    <glyph glyph-name="onequarter" unicode="&#xbc;" horiz-adv-x="624" 
d="M103 880v672h-46l-2 16l54 32h30v-720h-36zM-20 0l512 1600h36l-512 -1600h-36zM450 0l2 720h30v-720h-32zM314 234v28l76 316h36l-76 -312h40v-32h-76zM542 234v32h60v-32h-60z" />
    <glyph glyph-name="onehalf" unicode="&#xbd;" horiz-adv-x="605" 
d="M103 880v672h-46l-2 16l54 32h30v-720h-36zM-20 0l512 1600h36l-512 -1600h-36zM353 0v128q0 102 26 145.5t54 70.5l32 30q27 26 36 51t10 59q3 74 0 148q0 40 -24 53v37q55 -15 58 -94q2 -31 3 -64t-1 -80q-1 -61 -20 -90.5t-54 -59.5l-32 -28q-27 -24 -39.5 -71
t-12.5 -107v-128h-36zM353 476q-1 42 -2 80t0 72q1 41 15.5 63t40.5 30v-36q-22 -15 -22 -53q0 -37 0.5 -77t1.5 -79h-34zM469 0v32h80v-32h-80z" />
    <glyph glyph-name="threequarters" unicode="&#xbe;" horiz-adv-x="723" 
d="M63 1568v32h204v-32h-204zM203 879v38q19 14 20 53q2 53 2.5 105t-2.5 109q-1 36 -17 52t-55 16h-36l-2 30l100 246h38l-100 -242q45 0 76 -19.5t32 -82.5q2 -51 2 -112.5t-2 -97.5q-2 -37 -14 -62t-42 -33zM123 879q-26 8 -40.5 30t-15.5 63t-1 71.5t1 88.5h34
q-3 -96 0 -162q2 -39 22 -54v-37zM79 0l512 1600h36l-512 -1600h-36zM549 0l2 720h30v-720h-32zM413 234v28l76 316h36l-76 -312h40v-32h-76zM641 234v32h60v-32h-60z" />
    <glyph glyph-name="questiondown" unicode="&#xbf;" horiz-adv-x="525" 
d="M335 952l4 -392q1 -51 -18 -78.5t-58 -41.5l-44 -16q-35 -13 -50.5 -37t-19.5 -71t-4 -128v-412q0 -126 86 -143v-41q-66 9 -96 52t-30 130q0 156 -1 237t-1.5 117.5t0.5 59.5q4 88 7.5 141t26 83.5t82.5 53.5l32 12q37 14 43.5 38.5t6.5 45.5l6 390h28zM429 130
q3 -201 0 -354q-2 -86 -30 -129.5t-88 -53.5v41q40 10 58 44t20 98q6 153 0 354h40zM400 1200v-124h-160v124h160z" />
    <glyph glyph-name="Agrave" unicode="&#xc0;" horiz-adv-x="528" 
d="M60 0l142 1600h126l2 -40h-96l-54 -640l-30 -344h180l-10 -40h-174l-46 -536h-40zM428 0l-80 922l-52 598h36l136 -1520h-40zM244 1680l-110 198h42l110 -198h-42z" />
    <glyph glyph-name="Aacute" unicode="&#xc1;" horiz-adv-x="528" 
d="M60 0l142 1600h126l2 -40h-96l-54 -640l-30 -344h180l-10 -40h-174l-46 -536h-40zM428 0l-80 922l-52 598h36l136 -1520h-40zM244 1680l110 198h42l-110 -198h-42z" />
    <glyph glyph-name="Acircumflex" unicode="&#xc2;" horiz-adv-x="528" 
d="M60 0l142 1600h126l2 -40h-96l-54 -640l-30 -344h180l-10 -40h-174l-46 -536h-40zM428 0l-80 922l-52 598h36l136 -1520h-40zM136 1680l110 198h42l110 -198h-46l-84 156l-86 -156h-46z" />
    <glyph glyph-name="Atilde" unicode="&#xc3;" horiz-adv-x="528" 
d="M60 0l142 1600h126l2 -40h-96l-54 -640l-30 -344h180l-10 -40h-174l-46 -536h-40zM428 0l-80 922l-52 598h36l136 -1520h-40zM406 1754h38q3 -49 -28.5 -80.5t-81.5 -25.5q-31 4 -48.5 18.5t-33 29.5t-40.5 22q-22 6 -51.5 -5.5t-34.5 -58.5h-38q6 68 47.5 90.5
t84.5 11.5q31 -7 48.5 -23t32 -31t35.5 -18q33 -4 52.5 18t17.5 52z" />
    <glyph glyph-name="Adieresis" unicode="&#xc4;" horiz-adv-x="528" 
d="M60 0l142 1600h126l2 -40h-96l-54 -640l-30 -344h180l-10 -40h-174l-46 -536h-40zM428 0l-80 922l-52 598h36l136 -1520h-40zM296 1680v60h60v-60h-60zM176 1680v60h60v-60h-60z" />
    <glyph glyph-name="Aring" unicode="&#xc5;" horiz-adv-x="528" 
d="M60 0l142 1600h126l2 -40h-96l-54 -640l-30 -344h180l-10 -40h-174l-46 -536h-40zM428 0l-80 922l-52 598h36l136 -1520h-40zM266 1676q-37 0 -64.5 26.5t-27.5 65.5q0 38 27.5 65t64.5 27q38 0 65 -27t27 -65q0 -39 -27 -65.5t-65 -26.5zM266 1714q23 0 38.5 16t15.5 38
q0 23 -15.5 38.5t-38.5 15.5q-22 0 -38 -15.5t-16 -38.5q0 -22 16 -38t38 -16z" />
    <glyph glyph-name="AE" unicode="&#xc6;" horiz-adv-x="724" 
d="M282 1600h392v-40h-358l-90 -638l-48 -346h120l-12 -40h-112l-74 -536h-40zM356 0v1480h40v-1480h-40zM476 820h178v-40h-178v40zM476 0v40h198v-40h-198z" />
    <glyph glyph-name="Ccedilla" unicode="&#xc7;" horiz-adv-x="548" 
d="M244 -10q-70 8 -101 51.5t-33 132.5q-3 173 -4.5 326t-1.5 299t1.5 298.5t4.5 324.5q2 91 33 134t101 50v-40q-51 -6 -71.5 -39t-22.5 -105q-3 -172 -4.5 -324.5t-1.5 -298.5t1.5 -299t4.5 -326q2 -70 22.5 -103.5t71.5 -40.5v-40zM414 1068q3 177 0 354q-1 68 -21 101
t-69 41v41q66 -10 97 -54t33 -129q1 -41 1.5 -109t0 -136t-1.5 -109h-40zM324 -9v40q53 8 75 41.5t23 101.5q2 98 1 195.5t-3 194.5h40q3 -105 4 -195t-2 -195q-2 -86 -34.5 -130t-103.5 -53zM176 -264v36h54q69 0 54 74l-24 114h40l24 -114q22 -110 -94 -110h-54z" />
    <glyph glyph-name="Egrave" unicode="&#xc8;" horiz-adv-x="488" 
d="M120 0v1600h40v-1600h-40zM240 1560v40h198v-40h-198zM240 780v40h178v-40h-178zM240 0v40h198v-40h-198zM248 1680l-110 198h42l110 -198h-42z" />
    <glyph glyph-name="Eacute" unicode="&#xc9;" horiz-adv-x="488" 
d="M120 0v1600h40v-1600h-40zM240 1560v40h198v-40h-198zM240 780v40h178v-40h-178zM240 0v40h198v-40h-198zM248 1680l110 198h42l-110 -198h-42z" />
    <glyph glyph-name="Ecircumflex" unicode="&#xca;" horiz-adv-x="488" 
d="M120 0v1600h40v-1600h-40zM240 1560v40h198v-40h-198zM240 780v40h178v-40h-178zM240 0v40h198v-40h-198zM140 1680l110 198h42l110 -198h-46l-84 156l-86 -156h-46z" />
    <glyph glyph-name="Edieresis" unicode="&#xcb;" horiz-adv-x="488" 
d="M120 0v1600h40v-1600h-40zM240 1560v40h198v-40h-198zM240 780v40h178v-40h-178zM240 0v40h198v-40h-198zM300 1680v60h60v-60h-60zM180 1680v60h60v-60h-60z" />
    <glyph glyph-name="Igrave" unicode="&#xcc;" 
d="M120 0v1600h40v-1600h-40zM118 1680l-110 198h42l110 -198h-42z" />
    <glyph glyph-name="Iacute" unicode="&#xcd;" 
d="M120 0v1600h40v-1600h-40zM118 1680l110 198h42l-110 -198h-42z" />
    <glyph glyph-name="Icircumflex" unicode="&#xce;" 
d="M120 0v1600h40v-1600h-40zM10 1680l110 198h42l110 -198h-46l-84 156l-86 -156h-46z" />
    <glyph glyph-name="Idieresis" unicode="&#xcf;" 
d="M120 0v1600h40v-1600h-40zM170 1680v60h60v-60h-60zM50 1680v60h60v-60h-60z" />
    <glyph glyph-name="Eth" unicode="&#xd0;" horiz-adv-x="650" 
d="M198 0v906h-78v40h78v654h40v-1600h-40zM318 0v40h50q72 0 102.5 34t31.5 112q6 614 0 1228q-1 78 -31 112t-101 34h-52v40h52q90 0 130.5 -43.5t41.5 -142.5q3 -220 4 -417.5t0 -394.5t-4 -416q-1 -99 -41.5 -142.5t-132.5 -43.5h-50zM300 946h102v-40h-102v40z" />
    <glyph glyph-name="Ntilde" unicode="&#xd1;" horiz-adv-x="650" 
d="M418 0l-86 600l-136 960h-76v40h110l72 -504l152 -1056h76v-40h-112zM490 100v1500h40v-1500h-40zM120 0v1500h40v-1500h-40zM476 1754h38q3 -49 -28.5 -80.5t-81.5 -25.5q-31 4 -48.5 18.5t-33 29.5t-40.5 22q-22 6 -51.5 -5.5t-34.5 -58.5h-38q6 68 47.5 90.5
t84.5 11.5q31 -7 48.5 -23t32 -31t35.5 -18q33 -4 52.5 18t17.5 52z" />
    <glyph glyph-name="Ograve" unicode="&#xd2;" horiz-adv-x="569" 
d="M244 -8q-71 9 -101.5 51t-32.5 127q-4 225 -5.5 427t0 404t5.5 427q2 86 32.5 128.5t101.5 51.5v-40q-52 -7 -73 -39t-23 -101q-5 -220 -6 -420.5t0.5 -404.5t5.5 -433q2 -67 23 -98.5t73 -39.5v-40zM324 -8v40q52 8 73.5 39.5t22.5 98.5q5 229 6 433t-1 404.5t-5 420.5
q-1 69 -23 100t-73 40v40q74 -7 106 -50t32 -130q2 -225 2.5 -427t0 -404t-2.5 -427q0 -85 -32 -127.5t-106 -50.5zM260 1680l-110 198h42l110 -198h-42z" />
    <glyph glyph-name="Oacute" unicode="&#xd3;" horiz-adv-x="569" 
d="M244 -8q-71 9 -101.5 51t-32.5 127q-4 225 -5.5 427t0 404t5.5 427q2 86 32.5 128.5t101.5 51.5v-40q-52 -7 -73 -39t-23 -101q-5 -220 -6 -420.5t0.5 -404.5t5.5 -433q2 -67 23 -98.5t73 -39.5v-40zM324 -8v40q52 8 73.5 39.5t22.5 98.5q5 229 6 433t-1 404.5t-5 420.5
q-1 69 -23 100t-73 40v40q74 -7 106 -50t32 -130q2 -225 2.5 -427t0 -404t-2.5 -427q0 -85 -32 -127.5t-106 -50.5zM260 1680l110 198h42l-110 -198h-42z" />
    <glyph glyph-name="Ocircumflex" unicode="&#xd4;" horiz-adv-x="569" 
d="M244 -8q-71 9 -101.5 51t-32.5 127q-4 225 -5.5 427t0 404t5.5 427q2 86 32.5 128.5t101.5 51.5v-40q-52 -7 -73 -39t-23 -101q-5 -220 -6 -420.5t0.5 -404.5t5.5 -433q2 -67 23 -98.5t73 -39.5v-40zM324 -8v40q52 8 73.5 39.5t22.5 98.5q5 229 6 433t-1 404.5t-5 420.5
q-1 69 -23 100t-73 40v40q74 -7 106 -50t32 -130q2 -225 2.5 -427t0 -404t-2.5 -427q0 -85 -32 -127.5t-106 -50.5zM152 1680l110 198h42l110 -198h-46l-84 156l-86 -156h-46z" />
    <glyph glyph-name="Otilde" unicode="&#xd5;" horiz-adv-x="569" 
d="M244 -8q-71 9 -101.5 51t-32.5 127q-4 225 -5.5 427t0 404t5.5 427q2 86 32.5 128.5t101.5 51.5v-40q-52 -7 -73 -39t-23 -101q-5 -220 -6 -420.5t0.5 -404.5t5.5 -433q2 -67 23 -98.5t73 -39.5v-40zM324 -8v40q52 8 73.5 39.5t22.5 98.5q5 229 6 433t-1 404.5t-5 420.5
q-1 69 -23 100t-73 40v40q74 -7 106 -50t32 -130q2 -225 2.5 -427t0 -404t-2.5 -427q0 -85 -32 -127.5t-106 -50.5zM422 1754h38q3 -49 -28.5 -80.5t-81.5 -25.5q-31 4 -48.5 18.5t-33 29.5t-40.5 22q-22 6 -51.5 -5.5t-34.5 -58.5h-38q6 68 47.5 90.5t84.5 11.5
q31 -7 48.5 -23t32 -31t35.5 -18q33 -4 52.5 18t17.5 52z" />
    <glyph glyph-name="Odieresis" unicode="&#xd6;" horiz-adv-x="569" 
d="M244 -8q-71 9 -101.5 51t-32.5 127q-4 225 -5.5 427t0 404t5.5 427q2 86 32.5 128.5t101.5 51.5v-40q-52 -7 -73 -39t-23 -101q-5 -220 -6 -420.5t0.5 -404.5t5.5 -433q2 -67 23 -98.5t73 -39.5v-40zM324 -8v40q52 8 73.5 39.5t22.5 98.5q5 229 6 433t-1 404.5t-5 420.5
q-1 69 -23 100t-73 40v40q74 -7 106 -50t32 -130q2 -225 2.5 -427t0 -404t-2.5 -427q0 -85 -32 -127.5t-106 -50.5zM312 1680v60h60v-60h-60zM192 1680v60h60v-60h-60z" />
    <glyph glyph-name="multiply" unicode="&#xd7;" horiz-adv-x="644" 
d="M148 608l-28 28l174 174l-174 174l28 28l174 -174l174 174l28 -28l-174 -174l174 -174l-28 -28l-174 174z" />
    <glyph glyph-name="Oslash" unicode="&#xd8;" horiz-adv-x="569" 
d="M244 -8q-71 9 -101.5 51t-32.5 127q-4 225 -5.5 427t0 404t5.5 427q2 86 32.5 128.5t101.5 51.5v-40q-52 -7 -73 -39t-23 -101q-5 -220 -6 -420.5t0.5 -404.5t5.5 -433q2 -67 23 -98.5t73 -39.5v-40zM324 -8v40q52 8 73.5 39.5t22.5 98.5q5 229 6 433t-1 404.5t-5 420.5
q-1 69 -23 100t-73 40v40q74 -7 106 -50t32 -130q2 -225 2.5 -427t0 -404t-2.5 -427q0 -85 -32 -127.5t-106 -50.5zM206 534v92l192 374v-92z" />
    <glyph glyph-name="Ugrave" unicode="&#xd9;" horiz-adv-x="554" 
d="M105 170q-6 715 0 1430h40q-3 -358 -4 -714.5t2 -715.5q0 -121 94 -137v-41q-68 8 -99 50.5t-33 127.5zM317 -8v41q92 16 92 137q6 715 0 1430h40q6 -715 0 -1430q-1 -85 -32.5 -127.5t-99.5 -50.5zM255 1680l-110 198h42l110 -198h-42z" />
    <glyph glyph-name="Uacute" unicode="&#xda;" horiz-adv-x="554" 
d="M105 170q-6 715 0 1430h40q-3 -358 -4 -714.5t2 -715.5q0 -121 94 -137v-41q-68 8 -99 50.5t-33 127.5zM317 -8v41q92 16 92 137q6 715 0 1430h40q6 -715 0 -1430q-1 -85 -32.5 -127.5t-99.5 -50.5zM255 1680l110 198h42l-110 -198h-42z" />
    <glyph glyph-name="Ucircumflex" unicode="&#xdb;" horiz-adv-x="554" 
d="M105 170q-6 715 0 1430h40q-3 -358 -4 -714.5t2 -715.5q0 -121 94 -137v-41q-68 8 -99 50.5t-33 127.5zM317 -8v41q92 16 92 137q6 715 0 1430h40q6 -715 0 -1430q-1 -85 -32.5 -127.5t-99.5 -50.5zM147 1680l110 198h42l110 -198h-46l-84 156l-86 -156h-46z" />
    <glyph glyph-name="Udieresis" unicode="&#xdc;" horiz-adv-x="554" 
d="M105 170q-6 715 0 1430h40q-3 -358 -4 -714.5t2 -715.5q0 -121 94 -137v-41q-68 8 -99 50.5t-33 127.5zM317 -8v41q92 16 92 137q6 715 0 1430h40q6 -715 0 -1430q-1 -85 -32.5 -127.5t-99.5 -50.5zM307 1680v60h60v-60h-60zM187 1680v60h60v-60h-60z" />
    <glyph glyph-name="Yacute" unicode="&#xdd;" horiz-adv-x="492" 
d="M224 0v440l-174 1160h42l72 -488l66 -450h67l-33 -222v-440h-40zM270 702l60 410l72 488h40l-134 -898h-38zM222 1680l110 198h42l-110 -198h-42z" />
    <glyph glyph-name="Thorn" unicode="&#xde;" horiz-adv-x="522" 
d="M120 0v1600h40v-1600h-40zM240 370v40h42q71 0 101 34t33 112q6 144 6 269t-6 269q-3 78 -33 112t-99 34h-44v40h44q87 0 128 -43.5t44 -142.5q5 -162 5.5 -287t-5.5 -251q-4 -99 -44.5 -142.5t-129.5 -43.5h-42z" />
    <glyph glyph-name="germandbls" unicode="&#xdf;" horiz-adv-x="567" 
d="M120 0v1418q0 86 29.5 129t100.5 51v-40q-51 -7 -70.5 -39t-19.5 -101v-1418h-40zM244 0v40h50q68 0 98.5 34t33.5 112q5 117 5 219t-5 219q-3 84 -36.5 120t-107.5 36h-36v40h36q69 0 100 36t34 120q5 117 5 219t-5 219q-2 65 -21.5 99t-64.5 43v42q66 -9 94.5 -53
t31.5 -131q3 -139 3 -241t-3 -197q-1 -69 -21.5 -107t-64.5 -55v-26q93 -29 96 -164q3 -118 3 -219.5t-3 -218.5q-3 -99 -43 -142.5t-129 -43.5h-50z" />
    <glyph glyph-name="agrave" unicode="&#xe0;" horiz-adv-x="540" 
d="M90 820q-1 54 -2 109.5t0 98.5q3 86 35.5 128.5t98.5 51.5v-40q-43 -7 -67 -38t-27 -102q-3 -93 0 -208h-38zM384 0v1028q0 63 -18.5 96t-63.5 42v42q68 -9 95 -52.5t27 -127.5v-1028h-40zM80 180q-1 30 -2 56t0 54q3 96 30.5 175t111.5 145q20 14 41 29.5t43 30.5v-45
q-34 -24 -84 -65q-61 -52 -80 -121t-22 -149q0 -16 0.5 -47t1.5 -63q5 -72 36 -111t80 -39q40 0 68 16v-41q-27 -15 -68 -15q-76 0 -113.5 51.5t-42.5 138.5zM240 1280l-110 198h42l110 -198h-42z" />
    <glyph glyph-name="aacute" unicode="&#xe1;" horiz-adv-x="540" 
d="M90 820q-1 54 -2 109.5t0 98.5q3 86 35.5 128.5t98.5 51.5v-40q-43 -7 -67 -38t-27 -102q-3 -93 0 -208h-38zM384 0v1028q0 63 -18.5 96t-63.5 42v42q68 -9 95 -52.5t27 -127.5v-1028h-40zM80 180q-1 30 -2 56t0 54q3 96 30.5 175t111.5 145q20 14 41 29.5t43 30.5v-45
q-34 -24 -84 -65q-61 -52 -80 -121t-22 -149q0 -16 0.5 -47t1.5 -63q5 -72 36 -111t80 -39q40 0 68 16v-41q-27 -15 -68 -15q-76 0 -113.5 51.5t-42.5 138.5zM240 1280l110 198h42l-110 -198h-42z" />
    <glyph glyph-name="acircumflex" unicode="&#xe2;" horiz-adv-x="540" 
d="M90 820q-1 54 -2 109.5t0 98.5q3 86 35.5 128.5t98.5 51.5v-40q-43 -7 -67 -38t-27 -102q-3 -93 0 -208h-38zM384 0v1028q0 63 -18.5 96t-63.5 42v42q68 -9 95 -52.5t27 -127.5v-1028h-40zM80 180q-1 30 -2 56t0 54q3 96 30.5 175t111.5 145q20 14 41 29.5t43 30.5v-45
q-34 -24 -84 -65q-61 -52 -80 -121t-22 -149q0 -16 0.5 -47t1.5 -63q5 -72 36 -111t80 -39q40 0 68 16v-41q-27 -15 -68 -15q-76 0 -113.5 51.5t-42.5 138.5zM132 1280l110 198h42l110 -198h-46l-84 156l-86 -156h-46z" />
    <glyph glyph-name="atilde" unicode="&#xe3;" horiz-adv-x="540" 
d="M90 820q-1 54 -2 109.5t0 98.5q3 86 35.5 128.5t98.5 51.5v-40q-43 -7 -67 -38t-27 -102q-3 -93 0 -208h-38zM384 0v1028q0 63 -18.5 96t-63.5 42v42q68 -9 95 -52.5t27 -127.5v-1028h-40zM80 180q-1 30 -2 56t0 54q3 96 30.5 175t111.5 145q20 14 41 29.5t43 30.5v-45
q-34 -24 -84 -65q-61 -52 -80 -121t-22 -149q0 -16 0.5 -47t1.5 -63q5 -72 36 -111t80 -39q40 0 68 16v-41q-27 -15 -68 -15q-76 0 -113.5 51.5t-42.5 138.5zM402 1354h38q3 -49 -28.5 -80.5t-81.5 -25.5q-31 4 -48.5 18.5t-33 29.5t-40.5 22q-22 6 -51.5 -5.5t-34.5 -58.5
h-38q6 68 47.5 90.5t84.5 11.5q31 -7 48.5 -23t32 -31t35.5 -18q33 -4 52.5 18t17.5 52z" />
    <glyph glyph-name="adieresis" unicode="&#xe4;" horiz-adv-x="540" 
d="M90 820q-1 54 -2 109.5t0 98.5q3 86 35.5 128.5t98.5 51.5v-40q-43 -7 -67 -38t-27 -102q-3 -93 0 -208h-38zM384 0v1028q0 63 -18.5 96t-63.5 42v42q68 -9 95 -52.5t27 -127.5v-1028h-40zM80 180q-1 30 -2 56t0 54q3 96 30.5 175t111.5 145q20 14 41 29.5t43 30.5v-45
q-34 -24 -84 -65q-61 -52 -80 -121t-22 -149q0 -16 0.5 -47t1.5 -63q5 -72 36 -111t80 -39q40 0 68 16v-41q-27 -15 -68 -15q-76 0 -113.5 51.5t-42.5 138.5zM292 1280v60h60v-60h-60zM172 1280v60h60v-60h-60z" />
    <glyph glyph-name="aring" unicode="&#xe5;" horiz-adv-x="540" 
d="M90 820q-1 54 -2 109.5t0 98.5q3 86 35.5 128.5t98.5 51.5v-40q-43 -7 -67 -38t-27 -102q-3 -93 0 -208h-38zM384 0v1028q0 63 -18.5 96t-63.5 42v42q68 -9 95 -52.5t27 -127.5v-1028h-40zM80 180q-1 30 -2 56t0 54q3 96 30.5 175t111.5 145q20 14 41 29.5t43 30.5v-45
q-34 -24 -84 -65q-61 -52 -80 -121t-22 -149q0 -16 0.5 -47t1.5 -63q5 -72 36 -111t80 -39q40 0 68 16v-41q-27 -15 -68 -15q-76 0 -113.5 51.5t-42.5 138.5zM262 1276q-37 0 -64.5 26.5t-27.5 65.5q0 38 27.5 65t64.5 27q38 0 65 -27t27 -65q0 -39 -27 -65.5t-65 -26.5z
M262 1314q23 0 38.5 16t15.5 38q0 23 -15.5 38.5t-38.5 15.5q-22 0 -38 -15.5t-16 -38.5q0 -22 16 -38t38 -16z" />
    <glyph glyph-name="ae" unicode="&#xe6;" horiz-adv-x="821" 
d="M80 820q-1 54 -2 109.5t0 98.5q3 86 35.5 128.5t98.5 51.5v-40q-43 -7 -67 -38t-27 -102q-3 -93 0 -208h-38zM520 -8q-109 12 -134 102h-10q-12 -37 -40 -64t-70 -36v42q45 11 77 53t35 123v816q0 121 -86 138v42q79 -12 108 -70q32 61 120 70v-40q-102 -17 -102 -140
v-858q0 -72 25 -102t77 -36v-40zM496 610v40h196q6 264 0 378q-9 124 -92 138v42q68 -9 98 -51.5t34 -128.5q2 -54 3 -153.5t-5 -264.5h-234zM196 -6q-56 14 -84 62.5t-32 123.5q-1 30 -2 56t0 54q3 104 69 177t159 134v-45q-82 -55 -133.5 -117t-54.5 -149q0 -16 0.5 -47
t1.5 -63q8 -113 76 -142v-44zM600 -8v40q48 8 68.5 38.5t23.5 99.5q2 45 1.5 96.5t-3.5 115.5h40q3 -64 3.5 -116t-1.5 -96q-4 -85 -32 -127.5t-100 -50.5z" />
    <glyph glyph-name="ccedilla" unicode="&#xe7;" horiz-adv-x="535" 
d="M100 170q-9 429 0 858q2 86 33 129t103 51v-40q-50 -7 -72 -38t-24 -102q-2 -127 -3 -230t-1 -199t1 -199t3 -230q2 -70 24 -100.5t72 -37.5v-40q-72 8 -103 50.5t-33 127.5zM410 820q3 63 2.5 113t-0.5 95q0 71 -23 102t-73 38v40q73 -8 104.5 -51t31.5 -129
q0 -42 0.5 -92.5t-2.5 -115.5h-40zM316 -8v40q50 7 73 37.5t23 100.5q0 47 0.5 98t-2.5 114h40q3 -64 3.5 -116t-1.5 -96q-3 -85 -33.5 -127.5t-102.5 -50.5zM176 -264v36h54q69 0 54 74l-24 114h40l24 -114q22 -110 -94 -110h-54z" />
    <glyph glyph-name="egrave" unicode="&#xe8;" horiz-adv-x="541" 
d="M100 170q-9 429 0 858q2 86 34 128.5t104 51.5v-41q-51 -8 -73.5 -41t-24.5 -98q-2 -127 -3 -229.5t-1 -198t1 -199t3 -231.5q2 -70 24.5 -101t73.5 -37v-40q-74 8 -105 50.5t-33 127.5zM196 584v40h216q3 134 3 240.5t-3 163.5q-4 65 -25.5 98t-68.5 42v40q68 -9 99 -51
t35 -129q2 -54 3 -166.5t-5 -277.5h-254zM318 -8v41q49 7 70.5 37.5t23.5 99.5q2 45 1.5 96.5t-3.5 115.5h40q3 -64 3.5 -116t-1.5 -96q-4 -85 -32 -127.5t-102 -50.5zM254 1280l-110 198h42l110 -198h-42z" />
    <glyph glyph-name="eacute" unicode="&#xe9;" horiz-adv-x="541" 
d="M100 170q-9 429 0 858q2 86 34 128.5t104 51.5v-41q-51 -8 -73.5 -41t-24.5 -98q-2 -127 -3 -229.5t-1 -198t1 -199t3 -231.5q2 -70 24.5 -101t73.5 -37v-40q-74 8 -105 50.5t-33 127.5zM196 584v40h216q3 134 3 240.5t-3 163.5q-4 65 -25.5 98t-68.5 42v40q68 -9 99 -51
t35 -129q2 -54 3 -166.5t-5 -277.5h-254zM318 -8v41q49 7 70.5 37.5t23.5 99.5q2 45 1.5 96.5t-3.5 115.5h40q3 -64 3.5 -116t-1.5 -96q-4 -85 -32 -127.5t-102 -50.5zM254 1280l110 198h42l-110 -198h-42z" />
    <glyph glyph-name="ecircumflex" unicode="&#xea;" horiz-adv-x="541" 
d="M100 170q-9 429 0 858q2 86 34 128.5t104 51.5v-41q-51 -8 -73.5 -41t-24.5 -98q-2 -127 -3 -229.5t-1 -198t1 -199t3 -231.5q2 -70 24.5 -101t73.5 -37v-40q-74 8 -105 50.5t-33 127.5zM196 584v40h216q3 134 3 240.5t-3 163.5q-4 65 -25.5 98t-68.5 42v40q68 -9 99 -51
t35 -129q2 -54 3 -166.5t-5 -277.5h-254zM318 -8v41q49 7 70.5 37.5t23.5 99.5q2 45 1.5 96.5t-3.5 115.5h40q3 -64 3.5 -116t-1.5 -96q-4 -85 -32 -127.5t-102 -50.5zM146 1280l110 198h42l110 -198h-46l-84 156l-86 -156h-46z" />
    <glyph glyph-name="edieresis" unicode="&#xeb;" horiz-adv-x="541" 
d="M100 170q-9 429 0 858q2 86 34 128.5t104 51.5v-41q-51 -8 -73.5 -41t-24.5 -98q-2 -127 -3 -229.5t-1 -198t1 -199t3 -231.5q2 -70 24.5 -101t73.5 -37v-40q-74 8 -105 50.5t-33 127.5zM196 584v40h216q3 134 3 240.5t-3 163.5q-4 65 -25.5 98t-68.5 42v40q68 -9 99 -51
t35 -129q2 -54 3 -166.5t-5 -277.5h-254zM318 -8v41q49 7 70.5 37.5t23.5 99.5q2 45 1.5 96.5t-3.5 115.5h40q3 -64 3.5 -116t-1.5 -96q-4 -85 -32 -127.5t-102 -50.5zM306 1280v60h60v-60h-60zM186 1280v60h60v-60h-60z" />
    <glyph glyph-name="igrave" unicode="&#xec;" 
d="M120 0v1200h40v-1200h-40zM118 1280l-110 198h42l110 -198h-42z" />
    <glyph glyph-name="iacute" unicode="&#xed;" 
d="M120 0v1200h40v-1200h-40zM118 1280l110 198h42l-110 -198h-42z" />
    <glyph glyph-name="icircumflex" unicode="&#xee;" 
d="M120 0v1200h40v-1200h-40zM10 1280l110 198h42l110 -198h-46l-84 156l-86 -156h-46z" />
    <glyph glyph-name="idieresis" unicode="&#xef;" 
d="M120 0v1200h40v-1200h-40zM170 1280v60h60v-60h-60zM50 1280v60h60v-60h-60z" />
    <glyph glyph-name="eth" unicode="&#xf0;" horiz-adv-x="580" 
d="M284 -12q-96 0 -138.5 43.5t-45.5 142.5q-4 153 -4 331t4 421q2 99 40 142.5t120 43.5q43 0 81.5 -19t54.5 -47h13q-9 79 -25 143t-39 117l-179 -88l-18 36l180 87q-36 73 -85 127.5t-107 103.5l20 36q65 -55 118 -112.5t92 -135.5l116 58l18 -36l-118 -58
q37 -86 56.5 -204.5t19.5 -287.5v-658q0 -99 -42.5 -142.5t-131.5 -43.5zM140 174q3 -78 36 -112t108 -34q68 0 101 34t33 112v684q0 48 -2 92q-9 59 -52.5 90.5t-103.5 31.5q-63 0 -90.5 -34t-29.5 -112q-4 -243 -4 -421t4 -331z" />
    <glyph glyph-name="ntilde" unicode="&#xf1;" horiz-adv-x="586" 
d="M430 0v1028q-1 77 -26 109.5t-82 32.5q-45 0 -82 -23v40q35 23 82 23q78 0 112.5 -42t35.5 -140v-1028h-40zM120 0v1200h40v-1200h-40zM438 1354h38q3 -49 -28.5 -80.5t-81.5 -25.5q-31 4 -48.5 18.5t-33 29.5t-40.5 22q-22 6 -51.5 -5.5t-34.5 -58.5h-38q6 68 47.5 90.5
t84.5 11.5q31 -7 48.5 -23t32 -31t35.5 -18q33 -4 52.5 18t17.5 52z" />
    <glyph glyph-name="ograve" unicode="&#xf2;" horiz-adv-x="556" 
d="M102 170q-12 429 0 858q3 86 33.5 129t102.5 51v-40q-51 -7 -72.5 -38t-23.5 -102q-4 -127 -5.5 -230t-1.5 -199t1.5 -199t5.5 -230q2 -70 24.5 -100.5t71.5 -37.5v-40q-72 8 -102.5 50.5t-33.5 127.5zM318 -8v40q50 7 72 37.5t24 100.5q4 127 6 230t2 199t-2 199t-6 230
q-2 71 -23.5 102t-72.5 38v40q72 -8 102.5 -51t33.5 -129q12 -429 0 -858q-3 -85 -33.5 -127.5t-102.5 -50.5zM256 1280l-110 198h42l110 -198h-42z" />
    <glyph glyph-name="oacute" unicode="&#xf3;" horiz-adv-x="556" 
d="M102 170q-12 429 0 858q3 86 33.5 129t102.5 51v-40q-51 -7 -72.5 -38t-23.5 -102q-4 -127 -5.5 -230t-1.5 -199t1.5 -199t5.5 -230q2 -70 24.5 -100.5t71.5 -37.5v-40q-72 8 -102.5 50.5t-33.5 127.5zM318 -8v40q50 7 72 37.5t24 100.5q4 127 6 230t2 199t-2 199t-6 230
q-2 71 -23.5 102t-72.5 38v40q72 -8 102.5 -51t33.5 -129q12 -429 0 -858q-3 -85 -33.5 -127.5t-102.5 -50.5zM256 1280l110 198h42l-110 -198h-42z" />
    <glyph glyph-name="ocircumflex" unicode="&#xf4;" horiz-adv-x="556" 
d="M102 170q-12 429 0 858q3 86 33.5 129t102.5 51v-40q-51 -7 -72.5 -38t-23.5 -102q-4 -127 -5.5 -230t-1.5 -199t1.5 -199t5.5 -230q2 -70 24.5 -100.5t71.5 -37.5v-40q-72 8 -102.5 50.5t-33.5 127.5zM318 -8v40q50 7 72 37.5t24 100.5q4 127 6 230t2 199t-2 199t-6 230
q-2 71 -23.5 102t-72.5 38v40q72 -8 102.5 -51t33.5 -129q12 -429 0 -858q-3 -85 -33.5 -127.5t-102.5 -50.5zM148 1280l110 198h42l110 -198h-46l-84 156l-86 -156h-46z" />
    <glyph glyph-name="otilde" unicode="&#xf5;" horiz-adv-x="556" 
d="M102 170q-12 429 0 858q3 86 33.5 129t102.5 51v-40q-51 -7 -72.5 -38t-23.5 -102q-4 -127 -5.5 -230t-1.5 -199t1.5 -199t5.5 -230q2 -70 24.5 -100.5t71.5 -37.5v-40q-72 8 -102.5 50.5t-33.5 127.5zM318 -8v40q50 7 72 37.5t24 100.5q4 127 6 230t2 199t-2 199t-6 230
q-2 71 -23.5 102t-72.5 38v40q72 -8 102.5 -51t33.5 -129q12 -429 0 -858q-3 -85 -33.5 -127.5t-102.5 -50.5zM418 1354h38q3 -49 -28.5 -80.5t-81.5 -25.5q-31 4 -48.5 18.5t-33 29.5t-40.5 22q-22 6 -51.5 -5.5t-34.5 -58.5h-38q6 68 47.5 90.5t84.5 11.5q31 -7 48.5 -23
t32 -31t35.5 -18q33 -4 52.5 18t17.5 52z" />
    <glyph glyph-name="odieresis" unicode="&#xf6;" horiz-adv-x="556" 
d="M102 170q-12 429 0 858q3 86 33.5 129t102.5 51v-40q-51 -7 -72.5 -38t-23.5 -102q-4 -127 -5.5 -230t-1.5 -199t1.5 -199t5.5 -230q2 -70 24.5 -100.5t71.5 -37.5v-40q-72 8 -102.5 50.5t-33.5 127.5zM318 -8v40q50 7 72 37.5t24 100.5q4 127 6 230t2 199t-2 199t-6 230
q-2 71 -23.5 102t-72.5 38v40q72 -8 102.5 -51t33.5 -129q12 -429 0 -858q-3 -85 -33.5 -127.5t-102.5 -50.5zM308 1280v60h60v-60h-60zM188 1280v60h60v-60h-60z" />
    <glyph glyph-name="divide" unicode="&#xf7;" horiz-adv-x="812" 
d="M356 930v100h100v-100h-100zM120 790v40h572v-40h-572zM356 590v100h100v-100h-100z" />
    <glyph glyph-name="oslash" unicode="&#xf8;" horiz-adv-x="556" 
d="M102 170q-12 429 0 858q3 86 33.5 129t102.5 51v-40q-51 -7 -72.5 -38t-23.5 -102q-4 -127 -5.5 -230t-1.5 -199t1.5 -199t5.5 -230q2 -70 24.5 -100.5t71.5 -37.5v-40q-72 8 -102.5 50.5t-33.5 127.5zM318 -8v40q50 7 72 37.5t24 100.5q4 127 6 230t2 199t-2 199t-6 230
q-2 71 -23.5 102t-72.5 38v40q72 -8 102.5 -51t33.5 -129q12 -429 0 -858q-3 -85 -33.5 -127.5t-102.5 -50.5zM200 424v66l204 294q0 -18 0.5 -34.5t1.5 -33.5z" />
    <glyph glyph-name="ugrave" unicode="&#xf9;" horiz-adv-x="572" 
d="M102 172v1028h40v-1028q0 -76 25.5 -109t82.5 -33q45 0 82 23v-40q-35 -23 -82 -23q-78 0 -113 42.5t-35 139.5zM412 0v1200h40v-1200h-40zM254 1280l-110 198h42l110 -198h-42z" />
    <glyph glyph-name="uacute" unicode="&#xfa;" horiz-adv-x="572" 
d="M102 172v1028h40v-1028q0 -76 25.5 -109t82.5 -33q45 0 82 23v-40q-35 -23 -82 -23q-78 0 -113 42.5t-35 139.5zM412 0v1200h40v-1200h-40zM254 1280l110 198h42l-110 -198h-42z" />
    <glyph glyph-name="ucircumflex" unicode="&#xfb;" horiz-adv-x="572" 
d="M102 172v1028h40v-1028q0 -76 25.5 -109t82.5 -33q45 0 82 23v-40q-35 -23 -82 -23q-78 0 -113 42.5t-35 139.5zM412 0v1200h40v-1200h-40zM146 1280l110 198h42l110 -198h-46l-84 156l-86 -156h-46z" />
    <glyph glyph-name="udieresis" unicode="&#xfc;" horiz-adv-x="572" 
d="M102 172v1028h40v-1028q0 -76 25.5 -109t82.5 -33q45 0 82 23v-40q-35 -23 -82 -23q-78 0 -113 42.5t-35 139.5zM412 0v1200h40v-1200h-40zM306 1280v60h60v-60h-60zM186 1280v60h60v-60h-60z" />
    <glyph glyph-name="yacute" unicode="&#xfd;" horiz-adv-x="554" 
d="M262 0l-140 1200h44l68 -608l62 -552h63l-5 -40h-92zM328 100l56 492l68 608h44l-130 -1100h-38zM166 -398q-22 0 -54 3t-52 7v38q21 -4 46 -7t56 -3q71 0 92.5 30t33.5 112l24 168h38l-22 -168q-12 -96 -46.5 -138t-115.5 -42zM298 1280l110 198h42l-110 -198h-42z" />
    <glyph glyph-name="thorn" unicode="&#xfe;" horiz-adv-x="569" 
d="M120 -400v2000h40v-2000h-40zM240 48q33 -18 82 -18q57 0 82 33t26 109q4 183 4.5 325t-1 268.5t-3.5 262.5q-1 77 -26 109.5t-82 32.5q-49 0 -82 -18v39q32 19 82 19q78 0 112.5 -42t35.5 -140q2 -80 2.5 -185.5t0.5 -222t-0.5 -232t-2.5 -216.5q-1 -97 -35.5 -139.5
t-112.5 -42.5q-50 0 -82 19v39z" />
    <glyph glyph-name="ydieresis" unicode="&#xff;" horiz-adv-x="554" 
d="M262 0l-140 1200h44l68 -608l62 -552h63l-5 -40h-92zM328 100l56 492l68 608h44l-130 -1100h-38zM166 -398q-22 0 -54 3t-52 7v38q21 -4 46 -7t56 -3q71 0 92.5 30t33.5 112l24 168h38l-22 -168q-12 -96 -46.5 -138t-115.5 -42zM350 1280v60h60v-60h-60zM230 1280v60h60
v-60h-60z" />
    <glyph glyph-name="Amacron" unicode="&#x100;" horiz-adv-x="528" 
d="M60 0l142 1600h126l2 -40h-96l-54 -640l-30 -344h180l-10 -40h-174l-46 -536h-40zM428 0l-80 922l-52 598h36l136 -1520h-40zM120 1720h292v-40h-292v40z" />
    <glyph glyph-name="amacron" unicode="&#x101;" horiz-adv-x="540" 
d="M90 820q-1 54 -2 109.5t0 98.5q3 86 35.5 128.5t98.5 51.5v-40q-43 -7 -67 -38t-27 -102q-3 -93 0 -208h-38zM384 0v1028q0 63 -18.5 96t-63.5 42v42q68 -9 95 -52.5t27 -127.5v-1028h-40zM80 180q-1 30 -2 56t0 54q3 96 30.5 175t111.5 145q20 14 41 29.5t43 30.5v-45
q-34 -24 -84 -65q-61 -52 -80 -121t-22 -149q0 -16 0.5 -47t1.5 -63q5 -72 36 -111t80 -39q40 0 68 16v-41q-27 -15 -68 -15q-76 0 -113.5 51.5t-42.5 138.5zM116 1320h292v-40h-292v40z" />
    <glyph glyph-name="Abreve" unicode="&#x102;" horiz-adv-x="528" 
d="M60 0l142 1600h126l2 -40h-96l-54 -640l-30 -344h180l-10 -40h-174l-46 -536h-40zM428 0l-80 922l-52 598h36l136 -1520h-40zM266 1676q-84 0 -121 37.5t-39 124.5h40q2 -69 27.5 -96.5t92.5 -27.5q68 0 93.5 27.5t26.5 96.5h40q-1 -87 -38.5 -124.5t-121.5 -37.5z" />
    <glyph glyph-name="abreve" unicode="&#x103;" horiz-adv-x="540" 
d="M90 820q-1 54 -2 109.5t0 98.5q3 86 35.5 128.5t98.5 51.5v-40q-43 -7 -67 -38t-27 -102q-3 -93 0 -208h-38zM384 0v1028q0 63 -18.5 96t-63.5 42v42q68 -9 95 -52.5t27 -127.5v-1028h-40zM80 180q-1 30 -2 56t0 54q3 96 30.5 175t111.5 145q20 14 41 29.5t43 30.5v-45
q-34 -24 -84 -65q-61 -52 -80 -121t-22 -149q0 -16 0.5 -47t1.5 -63q5 -72 36 -111t80 -39q40 0 68 16v-41q-27 -15 -68 -15q-76 0 -113.5 51.5t-42.5 138.5zM262 1276q-84 0 -121 37.5t-39 124.5h40q2 -69 27.5 -96.5t92.5 -27.5q68 0 93.5 27.5t26.5 96.5h40
q-1 -87 -38.5 -124.5t-121.5 -37.5z" />
    <glyph glyph-name="Aogonek" unicode="&#x104;" horiz-adv-x="528" 
d="M60 0l142 1600h126l2 -40h-96l-54 -640l-30 -344h180l-10 -40h-174l-46 -536h-40zM428 0l-80 922l-52 598h36l136 -1520h-40zM546 -304h-54q-116 0 -94 110l24 114h40l-24 -114q-15 -74 54 -74h54v-36z" />
    <glyph glyph-name="aogonek" unicode="&#x105;" horiz-adv-x="540" 
d="M90 820q-1 54 -2 109.5t0 98.5q3 86 35.5 128.5t98.5 51.5v-40q-43 -7 -67 -38t-27 -102q-3 -93 0 -208h-38zM384 0v1028q0 63 -18.5 96t-63.5 42v42q68 -9 95 -52.5t27 -127.5v-1028h-40zM80 180q-1 30 -2 56t0 54q3 96 30.5 175t111.5 145q20 14 41 29.5t43 30.5v-45
q-34 -24 -84 -65q-61 -52 -80 -121t-22 -149q0 -16 0.5 -47t1.5 -63q5 -72 36 -111t80 -39q40 0 68 16v-41q-27 -15 -68 -15q-76 0 -113.5 51.5t-42.5 138.5zM507 -304h-54q-116 0 -94 110l24 114h40l-24 -114q-15 -74 54 -74h54v-36z" />
    <glyph glyph-name="Cacute" unicode="&#x106;" horiz-adv-x="548" 
d="M244 -10q-70 8 -101 51.5t-33 132.5q-3 173 -4.5 326t-1.5 299t1.5 298.5t4.5 324.5q2 91 33 134t101 50v-40q-51 -6 -71.5 -39t-22.5 -105q-3 -172 -4.5 -324.5t-1.5 -298.5t1.5 -299t4.5 -326q2 -70 22.5 -103.5t71.5 -40.5v-40zM414 1068q3 177 0 354q-1 68 -21 101
t-69 41v41q66 -10 97 -54t33 -129q1 -41 1.5 -109t0 -136t-1.5 -109h-40zM324 -9v40q53 8 75 41.5t23 101.5q2 98 1 195.5t-3 194.5h40q3 -105 4 -195t-2 -195q-2 -86 -34.5 -130t-103.5 -53zM252 1680l110 198h42l-110 -198h-42z" />
    <glyph glyph-name="cacute" unicode="&#x107;" horiz-adv-x="535" 
d="M100 170q-9 429 0 858q2 86 33 129t103 51v-40q-50 -7 -72 -38t-24 -102q-2 -127 -3 -230t-1 -199t1 -199t3 -230q2 -70 24 -100.5t72 -37.5v-40q-72 8 -103 50.5t-33 127.5zM410 820q3 63 2.5 113t-0.5 95q0 71 -23 102t-73 38v40q73 -8 104.5 -51t31.5 -129
q0 -42 0.5 -92.5t-2.5 -115.5h-40zM316 -8v40q50 7 73 37.5t23 100.5q0 47 0.5 98t-2.5 114h40q3 -64 3.5 -116t-1.5 -96q-3 -85 -33.5 -127.5t-102.5 -50.5zM254 1280l110 198h42l-110 -198h-42z" />
    <glyph glyph-name="Ccircumflex" unicode="&#x108;" horiz-adv-x="548" 
d="M244 -10q-70 8 -101 51.5t-33 132.5q-3 173 -4.5 326t-1.5 299t1.5 298.5t4.5 324.5q2 91 33 134t101 50v-40q-51 -6 -71.5 -39t-22.5 -105q-3 -172 -4.5 -324.5t-1.5 -298.5t1.5 -299t4.5 -326q2 -70 22.5 -103.5t71.5 -40.5v-40zM414 1068q3 177 0 354q-1 68 -21 101
t-69 41v41q66 -10 97 -54t33 -129q1 -41 1.5 -109t0 -136t-1.5 -109h-40zM324 -9v40q53 8 75 41.5t23 101.5q2 98 1 195.5t-3 194.5h40q3 -105 4 -195t-2 -195q-2 -86 -34.5 -130t-103.5 -53zM144 1680l110 198h42l110 -198h-46l-84 156l-86 -156h-46z" />
    <glyph glyph-name="ccircumflex" unicode="&#x109;" horiz-adv-x="535" 
d="M100 170q-9 429 0 858q2 86 33 129t103 51v-40q-50 -7 -72 -38t-24 -102q-2 -127 -3 -230t-1 -199t1 -199t3 -230q2 -70 24 -100.5t72 -37.5v-40q-72 8 -103 50.5t-33 127.5zM410 820q3 63 2.5 113t-0.5 95q0 71 -23 102t-73 38v40q73 -8 104.5 -51t31.5 -129
q0 -42 0.5 -92.5t-2.5 -115.5h-40zM316 -8v40q50 7 73 37.5t23 100.5q0 47 0.5 98t-2.5 114h40q3 -64 3.5 -116t-1.5 -96q-3 -85 -33.5 -127.5t-102.5 -50.5zM146 1280l110 198h42l110 -198h-46l-84 156l-86 -156h-46z" />
    <glyph glyph-name="Cdotaccent" unicode="&#x10a;" horiz-adv-x="548" 
d="M244 -10q-70 8 -101 51.5t-33 132.5q-3 173 -4.5 326t-1.5 299t1.5 298.5t4.5 324.5q2 91 33 134t101 50v-40q-51 -6 -71.5 -39t-22.5 -105q-3 -172 -4.5 -324.5t-1.5 -298.5t1.5 -299t4.5 -326q2 -70 22.5 -103.5t71.5 -40.5v-40zM414 1068q3 177 0 354q-1 68 -21 101
t-69 41v41q66 -10 97 -54t33 -129q1 -41 1.5 -109t0 -136t-1.5 -109h-40zM324 -9v40q53 8 75 41.5t23 101.5q2 98 1 195.5t-3 194.5h40q3 -105 4 -195t-2 -195q-2 -86 -34.5 -130t-103.5 -53zM244 1680v60h60v-60h-60z" />
    <glyph glyph-name="cdotaccent" unicode="&#x10b;" horiz-adv-x="535" 
d="M100 170q-9 429 0 858q2 86 33 129t103 51v-40q-50 -7 -72 -38t-24 -102q-2 -127 -3 -230t-1 -199t1 -199t3 -230q2 -70 24 -100.5t72 -37.5v-40q-72 8 -103 50.5t-33 127.5zM410 820q3 63 2.5 113t-0.5 95q0 71 -23 102t-73 38v40q73 -8 104.5 -51t31.5 -129
q0 -42 0.5 -92.5t-2.5 -115.5h-40zM316 -8v40q50 7 73 37.5t23 100.5q0 47 0.5 98t-2.5 114h40q3 -64 3.5 -116t-1.5 -96q-3 -85 -33.5 -127.5t-102.5 -50.5zM246 1280v60h60v-60h-60z" />
    <glyph glyph-name="Ccaron" unicode="&#x10c;" horiz-adv-x="548" 
d="M244 -10q-70 8 -101 51.5t-33 132.5q-3 173 -4.5 326t-1.5 299t1.5 298.5t4.5 324.5q2 91 33 134t101 50v-40q-51 -6 -71.5 -39t-22.5 -105q-3 -172 -4.5 -324.5t-1.5 -298.5t1.5 -299t4.5 -326q2 -70 22.5 -103.5t71.5 -40.5v-40zM414 1068q3 177 0 354q-1 68 -21 101
t-69 41v41q66 -10 97 -54t33 -129q1 -41 1.5 -109t0 -136t-1.5 -109h-40zM324 -9v40q53 8 75 41.5t23 101.5q2 98 1 195.5t-3 194.5h40q3 -105 4 -195t-2 -195q-2 -86 -34.5 -130t-103.5 -53zM254 1680l-110 198h42l90 -160l88 160h42l-110 -198h-42z" />
    <glyph glyph-name="ccaron" unicode="&#x10d;" horiz-adv-x="535" 
d="M100 170q-9 429 0 858q2 86 33 129t103 51v-40q-50 -7 -72 -38t-24 -102q-2 -127 -3 -230t-1 -199t1 -199t3 -230q2 -70 24 -100.5t72 -37.5v-40q-72 8 -103 50.5t-33 127.5zM410 820q3 63 2.5 113t-0.5 95q0 71 -23 102t-73 38v40q73 -8 104.5 -51t31.5 -129
q0 -42 0.5 -92.5t-2.5 -115.5h-40zM316 -8v40q50 7 73 37.5t23 100.5q0 47 0.5 98t-2.5 114h40q3 -64 3.5 -116t-1.5 -96q-3 -85 -33.5 -127.5t-102.5 -50.5zM256 1280l-110 198h42l90 -160l88 160h42l-110 -198h-42z" />
    <glyph glyph-name="Dcaron" unicode="&#x10e;" horiz-adv-x="572" 
d="M120 0v1600h40v-1600h-40zM240 0v40h50q72 0 102.5 34t31.5 112q6 614 0 1228q-1 78 -31 112t-101 34h-52v40h52q90 0 130.5 -43.5t41.5 -142.5q3 -220 4 -417.5t0 -394.5t-4 -416q-1 -99 -41.5 -142.5t-132.5 -43.5h-50zM254 1680l-110 198h42l90 -160l88 160h42
l-110 -198h-42z" />
    <glyph glyph-name="dcaron" unicode="&#x10f;" horiz-adv-x="581" 
d="M409 0v1600h40v-1600h-40zM99 172q-2 143 -2.5 277.5t0 275.5t2.5 303q2 98 37 140t113 42q47 0 80 -18v-39q-31 17 -80 17q-57 0 -82.5 -32.5t-27.5 -109.5q-2 -165 -2.5 -306.5t0 -275t2.5 -274.5q2 -76 26.5 -109t81.5 -33q49 0 82 18v-37q-33 -21 -82 -21
q-78 0 -112 42.5t-36 139.5zM509 1400l30 198h42l-30 -198h-42z" />
    <glyph glyph-name="Dcroat" unicode="&#x110;" horiz-adv-x="650" 
d="M198 0v906h-78v40h78v654h40v-1600h-40zM318 0v40h50q72 0 102.5 34t31.5 112q6 614 0 1228q-1 78 -31 112t-101 34h-52v40h52q90 0 130.5 -43.5t41.5 -142.5q3 -220 4 -417.5t0 -394.5t-4 -416q-1 -99 -41.5 -142.5t-132.5 -43.5h-50zM300 946h102v-40h-102v40z" />
    <glyph glyph-name="dcroat" unicode="&#x111;" horiz-adv-x="568" 
d="M409 0v1366h-101v40h101v194h40v-1600h-40zM491 1366v40h57v-40h-57zM99 172q-2 143 -2.5 277.5t0 275.5t2.5 303q2 98 37 140t113 42q47 0 80 -18v-39q-31 17 -80 17q-57 0 -82.5 -32.5t-27.5 -109.5q-2 -165 -2.5 -306.5t0 -275t2.5 -274.5q2 -76 26.5 -109t81.5 -33
q49 0 82 18v-37q-33 -21 -82 -21q-78 0 -112 42.5t-36 139.5z" />
    <glyph glyph-name="Emacron" unicode="&#x112;" horiz-adv-x="488" 
d="M120 0v1600h40v-1600h-40zM240 1560v40h198v-40h-198zM240 780v40h178v-40h-178zM240 0v40h198v-40h-198zM124 1720h292v-40h-292v40z" />
    <glyph glyph-name="emacron" unicode="&#x113;" horiz-adv-x="541" 
d="M100 170q-9 429 0 858q2 86 34 128.5t104 51.5v-41q-51 -8 -73.5 -41t-24.5 -98q-2 -127 -3 -229.5t-1 -198t1 -199t3 -231.5q2 -70 24.5 -101t73.5 -37v-40q-74 8 -105 50.5t-33 127.5zM196 584v40h216q3 134 3 240.5t-3 163.5q-4 65 -25.5 98t-68.5 42v40q68 -9 99 -51
t35 -129q2 -54 3 -166.5t-5 -277.5h-254zM318 -8v41q49 7 70.5 37.5t23.5 99.5q2 45 1.5 96.5t-3.5 115.5h40q3 -64 3.5 -116t-1.5 -96q-4 -85 -32 -127.5t-102 -50.5zM130 1320h292v-40h-292v40z" />
    <glyph glyph-name="Ebreve" unicode="&#x114;" horiz-adv-x="488" 
d="M120 0v1600h40v-1600h-40zM240 1560v40h198v-40h-198zM240 780v40h178v-40h-178zM240 0v40h198v-40h-198zM270 1676q-84 0 -121 37.5t-39 124.5h40q2 -69 27.5 -96.5t92.5 -27.5q68 0 93.5 27.5t26.5 96.5h40q-1 -87 -38.5 -124.5t-121.5 -37.5z" />
    <glyph glyph-name="ebreve" unicode="&#x115;" horiz-adv-x="541" 
d="M100 170q-9 429 0 858q2 86 34 128.5t104 51.5v-41q-51 -8 -73.5 -41t-24.5 -98q-2 -127 -3 -229.5t-1 -198t1 -199t3 -231.5q2 -70 24.5 -101t73.5 -37v-40q-74 8 -105 50.5t-33 127.5zM196 584v40h216q3 134 3 240.5t-3 163.5q-4 65 -25.5 98t-68.5 42v40q68 -9 99 -51
t35 -129q2 -54 3 -166.5t-5 -277.5h-254zM318 -8v41q49 7 70.5 37.5t23.5 99.5q2 45 1.5 96.5t-3.5 115.5h40q3 -64 3.5 -116t-1.5 -96q-4 -85 -32 -127.5t-102 -50.5zM276 1276q-84 0 -121 37.5t-39 124.5h40q2 -69 27.5 -96.5t92.5 -27.5q68 0 93.5 27.5t26.5 96.5h40
q-1 -87 -38.5 -124.5t-121.5 -37.5z" />
    <glyph glyph-name="Edotaccent" unicode="&#x116;" horiz-adv-x="488" 
d="M120 0v1600h40v-1600h-40zM240 1560v40h198v-40h-198zM240 780v40h178v-40h-178zM240 0v40h198v-40h-198zM240 1680v60h60v-60h-60z" />
    <glyph glyph-name="edotaccent" unicode="&#x117;" horiz-adv-x="541" 
d="M100 170q-9 429 0 858q2 86 34 128.5t104 51.5v-41q-51 -8 -73.5 -41t-24.5 -98q-2 -127 -3 -229.5t-1 -198t1 -199t3 -231.5q2 -70 24.5 -101t73.5 -37v-40q-74 8 -105 50.5t-33 127.5zM196 584v40h216q3 134 3 240.5t-3 163.5q-4 65 -25.5 98t-68.5 42v40q68 -9 99 -51
t35 -129q2 -54 3 -166.5t-5 -277.5h-254zM318 -8v41q49 7 70.5 37.5t23.5 99.5q2 45 1.5 96.5t-3.5 115.5h40q3 -64 3.5 -116t-1.5 -96q-4 -85 -32 -127.5t-102 -50.5zM246 1280v60h60v-60h-60z" />
    <glyph glyph-name="Eogonek" unicode="&#x118;" horiz-adv-x="488" 
d="M120 0v1600h40v-1600h-40zM240 1560v40h198v-40h-198zM240 780v40h178v-40h-178zM240 0v40h198v-40h-198zM446 -304h-54q-116 0 -94 110l24 114h40l-24 -114q-15 -74 54 -74h54v-36z" />
    <glyph glyph-name="eogonek" unicode="&#x119;" horiz-adv-x="541" 
d="M100 170q-9 429 0 858q2 86 34 128.5t104 51.5v-41q-51 -8 -73.5 -41t-24.5 -98q-2 -127 -3 -229.5t-1 -198t1 -199t3 -231.5q2 -70 24.5 -101t73.5 -37v-40q-74 8 -105 50.5t-33 127.5zM196 584v40h216q3 134 3 240.5t-3 163.5q-4 65 -25.5 98t-68.5 42v40q68 -9 99 -51
t35 -129q2 -54 3 -166.5t-5 -277.5h-254zM318 -8v41q49 7 70.5 37.5t23.5 99.5q2 45 1.5 96.5t-3.5 115.5h40q3 -64 3.5 -116t-1.5 -96q-4 -85 -32 -127.5t-102 -50.5zM456 -304h-54q-116 0 -94 110l24 114h40l-24 -114q-15 -74 54 -74h54v-36z" />
    <glyph glyph-name="Ecaron" unicode="&#x11a;" horiz-adv-x="488" 
d="M120 0v1600h40v-1600h-40zM240 1560v40h198v-40h-198zM240 780v40h178v-40h-178zM240 0v40h198v-40h-198zM250 1680l-110 198h42l90 -160l88 160h42l-110 -198h-42z" />
    <glyph glyph-name="ecaron" unicode="&#x11b;" horiz-adv-x="541" 
d="M100 170q-9 429 0 858q2 86 34 128.5t104 51.5v-41q-51 -8 -73.5 -41t-24.5 -98q-2 -127 -3 -229.5t-1 -198t1 -199t3 -231.5q2 -70 24.5 -101t73.5 -37v-40q-74 8 -105 50.5t-33 127.5zM196 584v40h216q3 134 3 240.5t-3 163.5q-4 65 -25.5 98t-68.5 42v40q68 -9 99 -51
t35 -129q2 -54 3 -166.5t-5 -277.5h-254zM318 -8v41q49 7 70.5 37.5t23.5 99.5q2 45 1.5 96.5t-3.5 115.5h40q3 -64 3.5 -116t-1.5 -96q-4 -85 -32 -127.5t-102 -50.5zM256 1280l-110 198h42l90 -160l88 160h42l-110 -198h-42z" />
    <glyph glyph-name="Gcircumflex" unicode="&#x11c;" horiz-adv-x="545" 
d="M240 -7q-69 9 -99.5 52.5t-32.5 130.5q-3 223 -4 423.5t0 401t4 423.5q2 87 33 131t99 53v-41q-89 -17 -92 -143q-2 -223 -2.5 -423.5t0 -401t2.5 -423.5q0 -126 92 -143v-40zM412 1070q3 95 3 177.5t-3 176.5q-4 126 -92 143v41q67 -9 98 -53t34 -131q3 -94 3 -176.5
t-3 -177.5h-40zM320 -8v41q97 14 100 143q2 107 2 199.5t-2 198.5h-146v40h186q2 -69 2 -170t-2 -268q-1 -88 -34 -132t-106 -52zM144 1680l110 198h42l110 -198h-46l-84 156l-86 -156h-46z" />
    <glyph glyph-name="gcircumflex" unicode="&#x11d;" horiz-adv-x="597" 
d="M247 -280q-78 5 -127 40t-49 120v28q0 63 38 94t74 38v16q-70 35 -70 96v16q0 39 22 65.5t44 30.5v18q-65 37 -68 158q-2 85 -3 150.5t-1 128.5t1 136t3 173q2 86 33 129t103 51v-40q-51 -7 -72.5 -38t-23.5 -102q-9 -306 0 -588q2 -70 24.5 -100.5t71.5 -37.5v-44
q-43 -7 -68.5 -30.5t-25.5 -59.5v-16q0 -67 94 -80v-40q-58 0 -97 -25t-39 -99v-30q0 -70 39 -93t97 -26v-39zM327 262v40q50 7 72 37.5t24 100.5q9 282 0 588q-2 71 -23.5 102t-72.5 38v40q106 -12 128 -102h16q0 41 32 67.5t72 26.5v-40h-14q-42 0 -69 -45.5t-27 -132.5
v-46q0 -100 1 -174.5t0.5 -148.5t-3.5 -173q-3 -85 -33.5 -127.5t-102.5 -50.5zM327 -279v38q58 3 97 26t39 93v30q0 74 -38.5 94t-97.5 25v38q82 -8 129 -39t47 -118v-28q0 -85 -48.5 -119.5t-127.5 -39.5zM157 1280l110 198h42l110 -198h-46l-84 156l-86 -156h-46z" />
    <glyph glyph-name="Gbreve" unicode="&#x11e;" horiz-adv-x="545" 
d="M240 -7q-69 9 -99.5 52.5t-32.5 130.5q-3 223 -4 423.5t0 401t4 423.5q2 87 33 131t99 53v-41q-89 -17 -92 -143q-2 -223 -2.5 -423.5t0 -401t2.5 -423.5q0 -126 92 -143v-40zM412 1070q3 95 3 177.5t-3 176.5q-4 126 -92 143v41q67 -9 98 -53t34 -131q3 -94 3 -176.5
t-3 -177.5h-40zM320 -8v41q97 14 100 143q2 107 2 199.5t-2 198.5h-146v40h186q2 -69 2 -170t-2 -268q-1 -88 -34 -132t-106 -52zM274 1676q-84 0 -121 37.5t-39 124.5h40q2 -69 27.5 -96.5t92.5 -27.5q68 0 93.5 27.5t26.5 96.5h40q-1 -87 -38.5 -124.5t-121.5 -37.5z" />
    <glyph glyph-name="gbreve" unicode="&#x11f;" horiz-adv-x="597" 
d="M247 -280q-78 5 -127 40t-49 120v28q0 63 38 94t74 38v16q-70 35 -70 96v16q0 39 22 65.5t44 30.5v18q-65 37 -68 158q-2 85 -3 150.5t-1 128.5t1 136t3 173q2 86 33 129t103 51v-40q-51 -7 -72.5 -38t-23.5 -102q-9 -306 0 -588q2 -70 24.5 -100.5t71.5 -37.5v-44
q-43 -7 -68.5 -30.5t-25.5 -59.5v-16q0 -67 94 -80v-40q-58 0 -97 -25t-39 -99v-30q0 -70 39 -93t97 -26v-39zM327 262v40q50 7 72 37.5t24 100.5q9 282 0 588q-2 71 -23.5 102t-72.5 38v40q106 -12 128 -102h16q0 41 32 67.5t72 26.5v-40h-14q-42 0 -69 -45.5t-27 -132.5
v-46q0 -100 1 -174.5t0.5 -148.5t-3.5 -173q-3 -85 -33.5 -127.5t-102.5 -50.5zM327 -279v38q58 3 97 26t39 93v30q0 74 -38.5 94t-97.5 25v38q82 -8 129 -39t47 -118v-28q0 -85 -48.5 -119.5t-127.5 -39.5zM287 1276q-84 0 -121 37.5t-39 124.5h40q2 -69 27.5 -96.5
t92.5 -27.5q68 0 93.5 27.5t26.5 96.5h40q-1 -87 -38.5 -124.5t-121.5 -37.5z" />
    <glyph glyph-name="Gdotaccent" unicode="&#x120;" horiz-adv-x="545" 
d="M240 -7q-69 9 -99.5 52.5t-32.5 130.5q-3 223 -4 423.5t0 401t4 423.5q2 87 33 131t99 53v-41q-89 -17 -92 -143q-2 -223 -2.5 -423.5t0 -401t2.5 -423.5q0 -126 92 -143v-40zM412 1070q3 95 3 177.5t-3 176.5q-4 126 -92 143v41q67 -9 98 -53t34 -131q3 -94 3 -176.5
t-3 -177.5h-40zM320 -8v41q97 14 100 143q2 107 2 199.5t-2 198.5h-146v40h186q2 -69 2 -170t-2 -268q-1 -88 -34 -132t-106 -52zM244 1680v60h60v-60h-60z" />
    <glyph glyph-name="gdotaccent" unicode="&#x121;" horiz-adv-x="597" 
d="M247 -280q-78 5 -127 40t-49 120v28q0 63 38 94t74 38v16q-70 35 -70 96v16q0 39 22 65.5t44 30.5v18q-65 37 -68 158q-2 85 -3 150.5t-1 128.5t1 136t3 173q2 86 33 129t103 51v-40q-51 -7 -72.5 -38t-23.5 -102q-9 -306 0 -588q2 -70 24.5 -100.5t71.5 -37.5v-44
q-43 -7 -68.5 -30.5t-25.5 -59.5v-16q0 -67 94 -80v-40q-58 0 -97 -25t-39 -99v-30q0 -70 39 -93t97 -26v-39zM327 262v40q50 7 72 37.5t24 100.5q9 282 0 588q-2 71 -23.5 102t-72.5 38v40q106 -12 128 -102h16q0 41 32 67.5t72 26.5v-40h-14q-42 0 -69 -45.5t-27 -132.5
v-46q0 -100 1 -174.5t0.5 -148.5t-3.5 -173q-3 -85 -33.5 -127.5t-102.5 -50.5zM327 -279v38q58 3 97 26t39 93v30q0 74 -38.5 94t-97.5 25v38q82 -8 129 -39t47 -118v-28q0 -85 -48.5 -119.5t-127.5 -39.5zM257 1280v60h60v-60h-60z" />
    <glyph glyph-name="uni0122" unicode="&#x122;" horiz-adv-x="545" 
d="M240 -7q-69 9 -99.5 52.5t-32.5 130.5q-3 223 -4 423.5t0 401t4 423.5q2 87 33 131t99 53v-41q-89 -17 -92 -143q-2 -223 -2.5 -423.5t0 -401t2.5 -423.5q0 -126 92 -143v-40zM412 1070q3 95 3 177.5t-3 176.5q-4 126 -92 143v41q67 -9 98 -53t34 -131q3 -94 3 -176.5
t-3 -177.5h-40zM320 -8v41q97 14 100 143q2 107 2 199.5t-2 198.5h-146v40h186q2 -69 2 -170t-2 -268q-1 -88 -34 -132t-106 -52zM242 -288l40 108h-54v100h100v-88l-42 -120h-44z" />
    <glyph glyph-name="uni0123" unicode="&#x123;" horiz-adv-x="597" 
d="M247 -280q-78 5 -127 40t-49 120v28q0 63 38 94t74 38v16q-70 35 -70 96v16q0 39 22 65.5t44 30.5v18q-65 37 -68 158q-2 85 -3 150.5t-1 128.5t1 136t3 173q2 86 33 129t103 51v-40q-51 -7 -72.5 -38t-23.5 -102q-9 -306 0 -588q2 -70 24.5 -100.5t71.5 -37.5v-44
q-43 -7 -68.5 -30.5t-25.5 -59.5v-16q0 -67 94 -80v-40q-58 0 -97 -25t-39 -99v-30q0 -70 39 -93t97 -26v-39zM327 262v40q50 7 72 37.5t24 100.5q9 282 0 588q-2 71 -23.5 102t-72.5 38v40q106 -12 128 -102h16q0 41 32 67.5t72 26.5v-40h-14q-42 0 -69 -45.5t-27 -132.5
v-46q0 -100 1 -174.5t0.5 -148.5t-3.5 -173q-3 -85 -33.5 -127.5t-102.5 -50.5zM327 -279v38q58 3 97 26t39 93v30q0 74 -38.5 94t-97.5 25v38q82 -8 129 -39t47 -118v-28q0 -85 -48.5 -119.5t-127.5 -39.5zM323 1536l-40 -108h54v-100h-100v88l42 120h44z" />
    <glyph glyph-name="Hcircumflex" unicode="&#x124;" horiz-adv-x="600" 
d="M120 0v1600h40v-780h220l-10 -40h-210v-780h-40zM440 0v1600h40v-1600h-40zM170 1680l110 198h42l110 -198h-46l-84 156l-86 -156h-46z" />
    <glyph glyph-name="hcircumflex" unicode="&#x125;" horiz-adv-x="586" 
d="M120 0v1600h40v-1600h-40zM430 0v1028q0 77 -25.5 109.5t-82.5 32.5q-49 0 -82 -18v39q32 19 82 19q78 0 113 -42t35 -140v-1028h-40zM168 1680l110 198h42l110 -198h-46l-84 156l-86 -156h-46z" />
    <glyph glyph-name="Hbar" unicode="&#x126;" horiz-adv-x="560" 
d="M101 0v1160h-86v40h86v400h40v-780h220l-10 -40h-210v-780h-40zM421 0v1160h-198v40h198v400h40v-400h84v-40h-84v-1160h-40z" />
    <glyph glyph-name="hbar" unicode="&#x127;" horiz-adv-x="610" 
d="M144 0v1366h-100v40h100v194h40v-1600h-40zM244 1406h96v-40h-96v40zM454 0v1028q0 77 -25.5 109.5t-82.5 32.5q-49 0 -82 -18v39q32 19 82 19q78 0 113 -42t35 -140v-1028h-40z" />
    <glyph glyph-name="Itilde" unicode="&#x128;" 
d="M120 0v1600h40v-1600h-40zM280 1754h38q3 -49 -28.5 -80.5t-81.5 -25.5q-31 4 -48.5 18.5t-33 29.5t-40.5 22q-22 6 -51.5 -5.5t-34.5 -58.5h-38q6 68 47.5 90.5t84.5 11.5q31 -7 48.5 -23t32 -31t35.5 -18q33 -4 52.5 18t17.5 52z" />
    <glyph glyph-name="itilde" unicode="&#x129;" 
d="M120 0v1200h40v-1200h-40zM280 1354h38q3 -49 -28.5 -80.5t-81.5 -25.5q-31 4 -48.5 18.5t-33 29.5t-40.5 22q-22 6 -51.5 -5.5t-34.5 -58.5h-38q6 68 47.5 90.5t84.5 11.5q31 -7 48.5 -23t32 -31t35.5 -18q33 -4 52.5 18t17.5 52z" />
    <glyph glyph-name="Imacron" unicode="&#x12a;" 
d="M120 0v1600h40v-1600h-40zM-6 1720h292v-40h-292v40z" />
    <glyph glyph-name="imacron" unicode="&#x12b;" 
d="M120 0v1200h40v-1200h-40zM-6 1320h292v-40h-292v40z" />
    <glyph glyph-name="Ibreve" unicode="&#x12c;" 
d="M120 0v1600h40v-1600h-40zM140 1676q-84 0 -121 37.5t-39 124.5h40q2 -69 27.5 -96.5t92.5 -27.5q68 0 93.5 27.5t26.5 96.5h40q-1 -87 -38.5 -124.5t-121.5 -37.5z" />
    <glyph glyph-name="ibreve" unicode="&#x12d;" 
d="M120 0v1200h40v-1200h-40zM140 1276q-84 0 -121 37.5t-39 124.5h40q2 -69 27.5 -96.5t92.5 -27.5q68 0 93.5 27.5t26.5 96.5h40q-1 -87 -38.5 -124.5t-121.5 -37.5z" />
    <glyph glyph-name="Iogonek" unicode="&#x12e;" 
d="M120 0v1600h40v-1600h-40zM246 -304h-54q-116 0 -94 110l24 114h40l-24 -114q-15 -74 54 -74h54v-36z" />
    <glyph glyph-name="iogonek" unicode="&#x12f;" 
d="M62 1476v124h160v-124h-160zM120 0v1200h40v-1200h-40zM244 -304h-54q-116 0 -94 110l24 114h40l-24 -114q-15 -74 54 -74h54v-36z" />
    <glyph glyph-name="Idotaccent" unicode="&#x130;" 
d="M120 0v1600h40v-1600h-40zM110 1680v60h60v-60h-60z" />
    <glyph glyph-name="dotlessi" unicode="&#x131;" 
d="M120 0v1200h40v-1200h-40z" />
    <glyph glyph-name="Jcircumflex" unicode="&#x134;" horiz-adv-x="515" 
d="M281 -8v41q92 17 92 143v1424h40v-1424q0 -88 -31 -131.5t-101 -52.5zM201 -8q-71 8 -102.5 52t-33.5 132q-3 105 -3 195t3 195h40q-6 -195 0 -390q2 -66 23.5 -100.5t72.5 -42.5v-41zM159 1680l110 198h42l110 -198h-46l-84 156l-86 -156h-46z" />
    <glyph glyph-name="jcircumflex" unicode="&#x135;" horiz-adv-x="278" 
d="M-4 -400q-22 0 -54 3t-52 7v38q37 -8 102 -8q72 0 99 29t27 111v1420h40v-1420q0 -96 -36 -138t-126 -42zM6 1280l110 198h42l110 -198h-46l-84 156l-86 -156h-46z" />
    <glyph glyph-name="uni0136" unicode="&#x136;" horiz-adv-x="521" 
d="M120 0v790h62l144 492l94 318h44l-304 -1042v-558h-40zM120 830v770h40v-770h-40zM450 0l-202 690l22 64l226 -754h-46zM266 -288l40 108h-54v100h100v-88l-42 -120h-44z" />
    <glyph glyph-name="uni0137" unicode="&#x137;" horiz-adv-x="496" 
d="M120 666v934h40v-934h-40zM120 0v612h62l74 208l126 380h44l-266 -776v-424h-40zM252 526l22 60l202 -586h-46zM236 -288l40 108h-54v100h100v-88l-42 -120h-44z" />
    <glyph glyph-name="kgreenlandic" unicode="&#x138;" horiz-adv-x="536" 
d="M120 0v612h62l74 208l126 380h44l-266 -776v-424h-40zM120 652v548h40v-548h-40zM232 516l22 60l222 -576h-46z" />
    <glyph glyph-name="Lacute" unicode="&#x139;" horiz-adv-x="450" 
d="M120 0v1600h40v-1600h-40zM240 0v40h198v-40h-198zM228 1680l110 198h42l-110 -198h-42z" />
    <glyph glyph-name="lacute" unicode="&#x13a;" 
d="M120 0v1600h40v-1600h-40zM118 1680l110 198h42l-110 -198h-42z" />
    <glyph glyph-name="uni013B" unicode="&#x13b;" horiz-adv-x="450" 
d="M120 0v1600h40v-1600h-40zM240 0v40h198v-40h-198zM250 -288l40 108h-54v100h100v-88l-42 -120h-44z" />
    <glyph glyph-name="uni013C" unicode="&#x13c;" 
d="M120 0v1600h40v-1600h-40zM108 -288l40 108h-54v100h100v-88l-42 -120h-44z" />
    <glyph glyph-name="Lcaron" unicode="&#x13d;" horiz-adv-x="450" 
d="M120 0v1600h40v-1600h-40zM240 0v40h198v-40h-198zM253 1403l30 198h42l-30 -198h-42z" />
    <glyph glyph-name="lcaron" unicode="&#x13e;" horiz-adv-x="292" 
d="M120 0v1600h40v-1600h-40zM260 1400l30 198h42l-30 -198h-42z" />
    <glyph glyph-name="Ldot" unicode="&#x13f;" horiz-adv-x="450" 
d="M120 0v1600h40v-1600h-40zM240 0v40h198v-40h-198zM358 777v60h60v-60h-60z" />
    <glyph glyph-name="ldot" unicode="&#x140;" horiz-adv-x="326" 
d="M120 0v1600h40v-1600h-40zM236 800v60h60v-60h-60z" />
    <glyph glyph-name="Lslash" unicode="&#x141;" horiz-adv-x="530" 
d="M200 0v603l-40 -203h-40l80 396v804h40v-602l40 202h40l-80 -396v-804h-40zM320 0v40h198v-40h-198z" />
    <glyph glyph-name="lslash" unicode="&#x142;" horiz-adv-x="320" 
d="M140 0v603l-40 -203h-40l80 396v804h40v-602l40 202h40l-80 -396v-804h-40z" />
    <glyph glyph-name="Nacute" unicode="&#x143;" horiz-adv-x="650" 
d="M418 0l-86 600l-136 960h-76v40h110l72 -504l152 -1056h76v-40h-112zM490 100v1500h40v-1500h-40zM120 0v1500h40v-1500h-40zM314 1680l110 198h42l-110 -198h-42z" />
    <glyph glyph-name="nacute" unicode="&#x144;" horiz-adv-x="586" 
d="M430 0v1028q-1 77 -26 109.5t-82 32.5q-45 0 -82 -23v40q35 23 82 23q78 0 112.5 -42t35.5 -140v-1028h-40zM120 0v1200h40v-1200h-40zM276 1280l110 198h42l-110 -198h-42z" />
    <glyph glyph-name="uni0145" unicode="&#x145;" horiz-adv-x="650" 
d="M418 0l-86 600l-136 960h-76v40h110l72 -504l152 -1056h76v-40h-112zM490 100v1500h40v-1500h-40zM120 0v1500h40v-1500h-40zM290 -288l40 108h-54v100h100v-88l-42 -120h-44z" />
    <glyph glyph-name="uni0146" unicode="&#x146;" horiz-adv-x="586" 
d="M430 0v1028q-1 77 -26 109.5t-82 32.5q-45 0 -82 -23v40q35 23 82 23q78 0 112.5 -42t35.5 -140v-1028h-40zM120 0v1200h40v-1200h-40zM266 -288l40 108h-54v100h100v-88l-42 -120h-44z" />
    <glyph glyph-name="Ncaron" unicode="&#x147;" horiz-adv-x="650" 
d="M418 0l-86 600l-136 960h-76v40h110l72 -504l152 -1056h76v-40h-112zM490 100v1500h40v-1500h-40zM120 0v1500h40v-1500h-40zM316 1680l-110 198h42l90 -160l88 160h42l-110 -198h-42z" />
    <glyph glyph-name="ncaron" unicode="&#x148;" horiz-adv-x="586" 
d="M430 0v1028q-1 77 -26 109.5t-82 32.5q-45 0 -82 -23v40q35 23 82 23q78 0 112.5 -42t35.5 -140v-1028h-40zM120 0v1200h40v-1200h-40zM278 1280l-110 198h42l90 -160l88 160h42l-110 -198h-42z" />
    <glyph glyph-name="Eng" unicode="&#x14a;" horiz-adv-x="650" 
d="M418 0l-86 600l-136 960h-76v40h110l72 -504l152 -1056h76v-260q0 -96 -36 -138t-126 -42q-22 0 -54 3t-52 7v38q37 -8 102 -8q72 0 99 29t27 111v220h-72zM490 100v1500h40v-1500h-40zM120 0v1500h40v-1500h-40z" />
    <glyph glyph-name="eng" unicode="&#x14b;" horiz-adv-x="584" 
d="M200 -390v38q37 -8 102 -8q72 0 99 29t27 111v1248q0 77 -24.5 109.5t-81.5 32.5q-45 0 -82 -23v40q35 23 82 23q78 0 112 -42t34 -140v-1248q0 -96 -36 -138t-126 -42q-22 0 -54 3t-52 7zM120 0v1200h40v-1200h-40z" />
    <glyph glyph-name="Omacron" unicode="&#x14c;" horiz-adv-x="569" 
d="M244 -8q-71 9 -101.5 51t-32.5 127q-4 225 -5.5 427t0 404t5.5 427q2 86 32.5 128.5t101.5 51.5v-40q-52 -7 -73 -39t-23 -101q-5 -220 -6 -420.5t0.5 -404.5t5.5 -433q2 -67 23 -98.5t73 -39.5v-40zM324 -8v40q52 8 73.5 39.5t22.5 98.5q5 229 6 433t-1 404.5t-5 420.5
q-1 69 -23 100t-73 40v40q74 -7 106 -50t32 -130q2 -225 2.5 -427t0 -404t-2.5 -427q0 -85 -32 -127.5t-106 -50.5zM136 1720h292v-40h-292v40z" />
    <glyph glyph-name="omacron" unicode="&#x14d;" horiz-adv-x="556" 
d="M102 170q-12 429 0 858q3 86 33.5 129t102.5 51v-40q-51 -7 -72.5 -38t-23.5 -102q-4 -127 -5.5 -230t-1.5 -199t1.5 -199t5.5 -230q2 -70 24.5 -100.5t71.5 -37.5v-40q-72 8 -102.5 50.5t-33.5 127.5zM318 -8v40q50 7 72 37.5t24 100.5q4 127 6 230t2 199t-2 199t-6 230
q-2 71 -23.5 102t-72.5 38v40q72 -8 102.5 -51t33.5 -129q12 -429 0 -858q-3 -85 -33.5 -127.5t-102.5 -50.5zM132 1320h292v-40h-292v40z" />
    <glyph glyph-name="Obreve" unicode="&#x14e;" horiz-adv-x="569" 
d="M244 -8q-71 9 -101.5 51t-32.5 127q-4 225 -5.5 427t0 404t5.5 427q2 86 32.5 128.5t101.5 51.5v-40q-52 -7 -73 -39t-23 -101q-5 -220 -6 -420.5t0.5 -404.5t5.5 -433q2 -67 23 -98.5t73 -39.5v-40zM324 -8v40q52 8 73.5 39.5t22.5 98.5q5 229 6 433t-1 404.5t-5 420.5
q-1 69 -23 100t-73 40v40q74 -7 106 -50t32 -130q2 -225 2.5 -427t0 -404t-2.5 -427q0 -85 -32 -127.5t-106 -50.5zM282 1676q-84 0 -121 37.5t-39 124.5h40q2 -69 27.5 -96.5t92.5 -27.5q68 0 93.5 27.5t26.5 96.5h40q-1 -87 -38.5 -124.5t-121.5 -37.5z" />
    <glyph glyph-name="obreve" unicode="&#x14f;" horiz-adv-x="556" 
d="M102 170q-12 429 0 858q3 86 33.5 129t102.5 51v-40q-51 -7 -72.5 -38t-23.5 -102q-4 -127 -5.5 -230t-1.5 -199t1.5 -199t5.5 -230q2 -70 24.5 -100.5t71.5 -37.5v-40q-72 8 -102.5 50.5t-33.5 127.5zM318 -8v40q50 7 72 37.5t24 100.5q4 127 6 230t2 199t-2 199t-6 230
q-2 71 -23.5 102t-72.5 38v40q72 -8 102.5 -51t33.5 -129q12 -429 0 -858q-3 -85 -33.5 -127.5t-102.5 -50.5zM278 1276q-84 0 -121 37.5t-39 124.5h40q2 -69 27.5 -96.5t92.5 -27.5q68 0 93.5 27.5t26.5 96.5h40q-1 -87 -38.5 -124.5t-121.5 -37.5z" />
    <glyph glyph-name="Ohungarumlaut" unicode="&#x150;" horiz-adv-x="569" 
d="M244 -8q-71 9 -101.5 51t-32.5 127q-4 225 -5.5 427t0 404t5.5 427q2 86 32.5 128.5t101.5 51.5v-40q-52 -7 -73 -39t-23 -101q-5 -220 -6 -420.5t0.5 -404.5t5.5 -433q2 -67 23 -98.5t73 -39.5v-40zM324 -8v40q52 8 73.5 39.5t22.5 98.5q5 229 6 433t-1 404.5t-5 420.5
q-1 69 -23 100t-73 40v40q74 -7 106 -50t32 -130q2 -225 2.5 -427t0 -404t-2.5 -427q0 -85 -32 -127.5t-106 -50.5zM186 1680l110 198h42l-110 -198h-42zM306 1680l110 198h42l-110 -198h-42z" />
    <glyph glyph-name="ohungarumlaut" unicode="&#x151;" horiz-adv-x="556" 
d="M102 170q-12 429 0 858q3 86 33.5 129t102.5 51v-40q-51 -7 -72.5 -38t-23.5 -102q-4 -127 -5.5 -230t-1.5 -199t1.5 -199t5.5 -230q2 -70 24.5 -100.5t71.5 -37.5v-40q-72 8 -102.5 50.5t-33.5 127.5zM318 -8v40q50 7 72 37.5t24 100.5q4 127 6 230t2 199t-2 199t-6 230
q-2 71 -23.5 102t-72.5 38v40q72 -8 102.5 -51t33.5 -129q12 -429 0 -858q-3 -85 -33.5 -127.5t-102.5 -50.5zM182 1280l110 198h42l-110 -198h-42zM302 1280l110 198h42l-110 -198h-42z" />
    <glyph glyph-name="OE" unicode="&#x152;" horiz-adv-x="812" 
d="M244 -8q-71 9 -101.5 51t-32.5 127q-4 225 -5.5 427t0 404t5.5 427q2 86 32.5 128.5t101.5 51.5v-40q-52 -7 -73 -39t-23 -101q-5 -220 -6 -420.5t0.5 -404.5t5.5 -433q2 -67 23 -98.5t73 -39.5v-40zM324 -8v40q52 8 73.5 39.5t22.5 98.5q5 229 6 433t-1 404.5t-5 420.5
q-1 69 -23 100t-73 40v40q74 -7 106 -50t32 -130q2 -225 2.5 -427t0 -404t-2.5 -427q0 -85 -32 -127.5t-106 -50.5zM444 0v1600h40v-1600h-40zM564 1560v40h198v-40h-198zM564 780v40h178v-40h-178zM564 0v40h198v-40h-198z" />
    <glyph glyph-name="oe" unicode="&#x153;" horiz-adv-x="867" 
d="M102 170q-12 429 0 858q3 86 33.5 129t102.5 51v-40q-51 -7 -72.5 -38t-23.5 -102q-4 -127 -5.5 -230t-1.5 -199t1.5 -199t5.5 -230q2 -70 24.5 -100.5t71.5 -37.5v-40q-72 8 -102.5 50.5t-33.5 127.5zM318 -8v40q50 7 72 37.5t24 100.5q4 127 6 230t2 199t-2 199t-6 230
q-2 71 -23.5 102t-72.5 38v40q72 -8 102.5 -51t33.5 -129q12 -429 0 -858q-3 -85 -33.5 -127.5t-102.5 -50.5zM426 170q-9 429 0 858q2 86 34 128.5t104 51.5v-41q-51 -8 -73.5 -41t-24.5 -98q-2 -127 -3 -229.5t-1 -198t1 -199t3 -231.5q2 -70 24.5 -101t73.5 -37v-40
q-74 8 -105 50.5t-33 127.5zM522 584v40h216q3 134 3 240.5t-3 163.5q-4 65 -25.5 98t-68.5 42v40q68 -9 99 -51t35 -129q2 -54 3 -166.5t-5 -277.5h-254zM644 -8v41q49 7 70.5 37.5t23.5 99.5q2 45 1.5 96.5t-3.5 115.5h40q3 -64 3.5 -116t-1.5 -96q-4 -85 -32 -127.5
t-102 -50.5z" />
    <glyph glyph-name="Racute" unicode="&#x154;" horiz-adv-x="549" 
d="M448 0l-144 650h-84v40h62q71 0 101 34t33 112q9 289 0 578q-3 78 -33 112t-99 34h-44v40h44q87 0 127.5 -43.5t44.5 -142.5q12 -325 0 -578q-6 -152 -110 -178l146 -658h-44zM120 0v1600h40v-1600h-40zM242 1680l110 198h42l-110 -198h-42z" />
    <glyph glyph-name="racute" unicode="&#x155;" horiz-adv-x="390" 
d="M120 0v1200h40v-1200h-40zM240 1146v40q29 14 80 14h50v-40h-50q-49 0 -80 -14zM198 1280l110 198h42l-110 -198h-42z" />
    <glyph glyph-name="uni0156" unicode="&#x156;" horiz-adv-x="549" 
d="M448 0l-144 650h-84v40h62q71 0 101 34t33 112q9 289 0 578q-3 78 -33 112t-99 34h-44v40h44q87 0 127.5 -43.5t44.5 -142.5q12 -325 0 -578q-6 -152 -110 -178l146 -658h-44zM120 0v1600h40v-1600h-40zM262 -288l40 108h-54v100h100v-88l-42 -120h-44z" />
    <glyph glyph-name="uni0157" unicode="&#x157;" horiz-adv-x="390" 
d="M120 0v1200h40v-1200h-40zM240 1146v40q29 14 80 14h50v-40h-50q-49 0 -80 -14zM109 -288l40 108h-54v100h100v-88l-42 -120h-44z" />
    <glyph glyph-name="Rcaron" unicode="&#x158;" horiz-adv-x="549" 
d="M448 0l-144 650h-84v40h62q71 0 101 34t33 112q9 289 0 578q-3 78 -33 112t-99 34h-44v40h44q87 0 127.5 -43.5t44.5 -142.5q12 -325 0 -578q-6 -152 -110 -178l146 -658h-44zM120 0v1600h40v-1600h-40zM244 1680l-110 198h42l90 -160l88 160h42l-110 -198h-42z" />
    <glyph glyph-name="rcaron" unicode="&#x159;" horiz-adv-x="390" 
d="M120 0v1200h40v-1200h-40zM240 1146v40q29 14 80 14h50v-40h-50q-49 0 -80 -14zM200 1280l-110 198h42l90 -160l88 160h42l-110 -198h-42z" />
    <glyph glyph-name="Sacute" unicode="&#x15a;" horiz-adv-x="512" 
d="M301 -7v40q48 9 69 43.5t23 99.5q2 69 2.5 119.5t-0.5 104t-2 132.5q-1 93 -18 152.5t-80 75.5l-72 18q-62 15 -91.5 47t-39 88.5t-11.5 144.5q-1 77 0.5 177t1.5 191q0 88 31.5 131t104.5 51v-41q-50 -8 -72 -42t-24 -101q-3 -91 -2 -182.5t2 -183.5q2 -117 18 -168
t82 -68l74 -18q90 -21 111.5 -85.5t24.5 -186.5q2 -83 2.5 -135.5t0 -101t-2.5 -119.5q-3 -87 -34.5 -131t-97.5 -52zM387 1070q6 177 0 354q-2 65 -22 99t-66 43v41q65 -9 95 -52.5t33 -130.5q3 -127 0 -354h-40zM221 -8q-71 8 -104 52t-36 132q-2 78 -2.5 136t0 116.5
t2.5 137.5h40q-6 -195 0 -390q2 -67 25 -101t75 -42v-41zM235 1680l110 198h42l-110 -198h-42z" />
    <glyph glyph-name="sacute" unicode="&#x15b;" horiz-adv-x="514" 
d="M293 -8v40q49 7 69.5 37.5t22.5 100.5q2 48 3 98t-1 90q-3 99 -20.5 148.5t-77.5 71.5l-68 26q-57 22 -84 53.5t-36 85t-12 141.5q-1 39 0 72t2 72q3 86 29.5 129t96.5 51v-40q-48 -7 -66 -38t-20 -102q-1 -42 -2 -75t0 -69q3 -96 15.5 -153t78.5 -83l70 -26
q72 -27 104 -85.5t32 -178.5q0 -43 -0.5 -93.5t-3.5 -94.5q-5 -85 -33 -127.5t-99 -50.5zM381 820q3 63 2.5 113t-0.5 95q-1 71 -19.5 102t-66.5 38v40q71 -8 98 -51t28 -129q0 -42 0.5 -92.5t-2.5 -115.5h-40zM87 170q-1 44 -1 96t3 116h40q-3 -63 -2.5 -114t0.5 -98
q2 -70 20 -100.5t66 -37.5v-40q-70 8 -97 50.5t-29 127.5zM235 1280l110 198h42l-110 -198h-42z" />
    <glyph glyph-name="Scircumflex" unicode="&#x15c;" horiz-adv-x="512" 
d="M301 -7v40q48 9 69 43.5t23 99.5q2 69 2.5 119.5t-0.5 104t-2 132.5q-1 93 -18 152.5t-80 75.5l-72 18q-62 15 -91.5 47t-39 88.5t-11.5 144.5q-1 77 0.5 177t1.5 191q0 88 31.5 131t104.5 51v-41q-50 -8 -72 -42t-24 -101q-3 -91 -2 -182.5t2 -183.5q2 -117 18 -168
t82 -68l74 -18q90 -21 111.5 -85.5t24.5 -186.5q2 -83 2.5 -135.5t0 -101t-2.5 -119.5q-3 -87 -34.5 -131t-97.5 -52zM387 1070q6 177 0 354q-2 65 -22 99t-66 43v41q65 -9 95 -52.5t33 -130.5q3 -127 0 -354h-40zM221 -8q-71 8 -104 52t-36 132q-2 78 -2.5 136t0 116.5
t2.5 137.5h40q-6 -195 0 -390q2 -67 25 -101t75 -42v-41zM127 1680l110 198h42l110 -198h-46l-84 156l-86 -156h-46z" />
    <glyph glyph-name="scircumflex" unicode="&#x15d;" horiz-adv-x="514" 
d="M293 -8v40q49 7 69.5 37.5t22.5 100.5q2 48 3 98t-1 90q-3 99 -20.5 148.5t-77.5 71.5l-68 26q-57 22 -84 53.5t-36 85t-12 141.5q-1 39 0 72t2 72q3 86 29.5 129t96.5 51v-40q-48 -7 -66 -38t-20 -102q-1 -42 -2 -75t0 -69q3 -96 15.5 -153t78.5 -83l70 -26
q72 -27 104 -85.5t32 -178.5q0 -43 -0.5 -93.5t-3.5 -94.5q-5 -85 -33 -127.5t-99 -50.5zM381 820q3 63 2.5 113t-0.5 95q-1 71 -19.5 102t-66.5 38v40q71 -8 98 -51t28 -129q0 -42 0.5 -92.5t-2.5 -115.5h-40zM87 170q-1 44 -1 96t3 116h40q-3 -63 -2.5 -114t0.5 -98
q2 -70 20 -100.5t66 -37.5v-40q-70 8 -97 50.5t-29 127.5zM127 1280l110 198h42l110 -198h-46l-84 156l-86 -156h-46z" />
    <glyph glyph-name="Scedilla" unicode="&#x15e;" horiz-adv-x="512" 
d="M301 -7v40q48 9 69 43.5t23 99.5q2 69 2.5 119.5t-0.5 104t-2 132.5q-1 93 -18 152.5t-80 75.5l-72 18q-62 15 -91.5 47t-39 88.5t-11.5 144.5q-1 77 0.5 177t1.5 191q0 88 31.5 131t104.5 51v-41q-50 -8 -72 -42t-24 -101q-3 -91 -2 -182.5t2 -183.5q2 -117 18 -168
t82 -68l74 -18q90 -21 111.5 -85.5t24.5 -186.5q2 -83 2.5 -135.5t0 -101t-2.5 -119.5q-3 -87 -34.5 -131t-97.5 -52zM387 1070q6 177 0 354q-2 65 -22 99t-66 43v41q65 -9 95 -52.5t33 -130.5q3 -127 0 -354h-40zM221 -8q-71 8 -104 52t-36 132q-2 78 -2.5 136t0 116.5
t2.5 137.5h40q-6 -195 0 -390q2 -67 25 -101t75 -42v-41zM156 -264v36h54q69 0 54 74l-24 114h40l24 -114q22 -110 -94 -110h-54z" />
    <glyph glyph-name="scedilla" unicode="&#x15f;" horiz-adv-x="514" 
d="M293 -8v40q49 7 69.5 37.5t22.5 100.5q2 48 3 98t-1 90q-3 99 -20.5 148.5t-77.5 71.5l-68 26q-57 22 -84 53.5t-36 85t-12 141.5q-1 39 0 72t2 72q3 86 29.5 129t96.5 51v-40q-48 -7 -66 -38t-20 -102q-1 -42 -2 -75t0 -69q3 -96 15.5 -153t78.5 -83l70 -26
q72 -27 104 -85.5t32 -178.5q0 -43 -0.5 -93.5t-3.5 -94.5q-5 -85 -33 -127.5t-99 -50.5zM381 820q3 63 2.5 113t-0.5 95q-1 71 -19.5 102t-66.5 38v40q71 -8 98 -51t28 -129q0 -42 0.5 -92.5t-2.5 -115.5h-40zM87 170q-1 44 -1 96t3 116h40q-3 -63 -2.5 -114t0.5 -98
q2 -70 20 -100.5t66 -37.5v-40q-70 8 -97 50.5t-29 127.5zM146 -264v36h54q69 0 54 74l-24 114h40l24 -114q22 -110 -94 -110h-54z" />
    <glyph glyph-name="Scaron" unicode="&#x160;" horiz-adv-x="512" 
d="M301 -7v40q48 9 69 43.5t23 99.5q2 69 2.5 119.5t-0.5 104t-2 132.5q-1 93 -18 152.5t-80 75.5l-72 18q-62 15 -91.5 47t-39 88.5t-11.5 144.5q-1 77 0.5 177t1.5 191q0 88 31.5 131t104.5 51v-41q-50 -8 -72 -42t-24 -101q-3 -91 -2 -182.5t2 -183.5q2 -117 18 -168
t82 -68l74 -18q90 -21 111.5 -85.5t24.5 -186.5q2 -83 2.5 -135.5t0 -101t-2.5 -119.5q-3 -87 -34.5 -131t-97.5 -52zM387 1070q6 177 0 354q-2 65 -22 99t-66 43v41q65 -9 95 -52.5t33 -130.5q3 -127 0 -354h-40zM221 -8q-71 8 -104 52t-36 132q-2 78 -2.5 136t0 116.5
t2.5 137.5h40q-6 -195 0 -390q2 -67 25 -101t75 -42v-41zM237 1680l-110 198h42l90 -160l88 160h42l-110 -198h-42z" />
    <glyph glyph-name="scaron" unicode="&#x161;" horiz-adv-x="514" 
d="M293 -8v40q49 7 69.5 37.5t22.5 100.5q2 48 3 98t-1 90q-3 99 -20.5 148.5t-77.5 71.5l-68 26q-57 22 -84 53.5t-36 85t-12 141.5q-1 39 0 72t2 72q3 86 29.5 129t96.5 51v-40q-48 -7 -66 -38t-20 -102q-1 -42 -2 -75t0 -69q3 -96 15.5 -153t78.5 -83l70 -26
q72 -27 104 -85.5t32 -178.5q0 -43 -0.5 -93.5t-3.5 -94.5q-5 -85 -33 -127.5t-99 -50.5zM381 820q3 63 2.5 113t-0.5 95q-1 71 -19.5 102t-66.5 38v40q71 -8 98 -51t28 -129q0 -42 0.5 -92.5t-2.5 -115.5h-40zM87 170q-1 44 -1 96t3 116h40q-3 -63 -2.5 -114t0.5 -98
q2 -70 20 -100.5t66 -37.5v-40q-70 8 -97 50.5t-29 127.5zM237 1280l-110 198h42l90 -160l88 160h42l-110 -198h-42z" />
    <glyph glyph-name="uni0162" unicode="&#x162;" horiz-adv-x="428" 
d="M20 1560v40h388v-40h-388zM194 0v1520h40v-1520h-40zM110 -264v36h54q69 0 54 74l-24 114h40l24 -114q22 -110 -94 -110h-54z" />
    <glyph glyph-name="uni0163" unicode="&#x163;" horiz-adv-x="360" 
d="M58 1160v40h64v340h40v-1370q0 -82 17 -111t89 -29q32 0 46.5 2t35.5 6v-38q-43 -10 -86 -10q-90 0 -116 42t-26 138v990h-64zM222 1160v40h108v-40h-108zM156 -264v36h54q69 0 54 74l-24 114h40l24 -114q22 -110 -94 -110h-54z" />
    <glyph glyph-name="Tcaron" unicode="&#x164;" horiz-adv-x="428" 
d="M20 1560v40h388v-40h-388zM194 0v1520h40v-1520h-40zM194 1680l-110 198h42l90 -160l88 160h42l-110 -198h-42z" />
    <glyph glyph-name="tcaron" unicode="&#x165;" horiz-adv-x="360" 
d="M58 1160v40h64v340h40v-1370q0 -82 17 -111t89 -29q32 0 46.5 2t35.5 6v-38q-43 -10 -86 -10q-90 0 -116 42t-26 138v990h-64zM222 1160v40h108v-40h-108zM250 1400l30 198h42l-30 -198h-42z" />
    <glyph glyph-name="Tbar" unicode="&#x166;" horiz-adv-x="428" 
d="M20 1560v40h388v-40h-388zM194 0v688h-110v40h110v792h40v-792h110v-40h-110v-688h-40z" />
    <glyph glyph-name="tbar" unicode="&#x167;" horiz-adv-x="360" 
d="M64 688v40h58v432h-64v40h64v340h40v-1370q0 -82 17 -111t89 -29q32 0 46.5 2t35.5 6v-38q-43 -10 -86 -10q-90 0 -116 42t-26 138v518h-58zM222 1160v40h108v-40h-108zM209 688v40h116v-40h-116z" />
    <glyph glyph-name="Utilde" unicode="&#x168;" horiz-adv-x="554" 
d="M105 170q-6 715 0 1430h40q-3 -358 -4 -714.5t2 -715.5q0 -121 94 -137v-41q-68 8 -99 50.5t-33 127.5zM317 -8v41q92 16 92 137q6 715 0 1430h40q6 -715 0 -1430q-1 -85 -32.5 -127.5t-99.5 -50.5zM417 1754h38q3 -49 -28.5 -80.5t-81.5 -25.5q-31 4 -48.5 18.5
t-33 29.5t-40.5 22q-22 6 -51.5 -5.5t-34.5 -58.5h-38q6 68 47.5 90.5t84.5 11.5q31 -7 48.5 -23t32 -31t35.5 -18q33 -4 52.5 18t17.5 52z" />
    <glyph glyph-name="utilde" unicode="&#x169;" horiz-adv-x="572" 
d="M102 172v1028h40v-1028q0 -76 25.5 -109t82.5 -33q45 0 82 23v-40q-35 -23 -82 -23q-78 0 -113 42.5t-35 139.5zM412 0v1200h40v-1200h-40zM416 1354h38q3 -49 -28.5 -80.5t-81.5 -25.5q-31 4 -48.5 18.5t-33 29.5t-40.5 22q-22 6 -51.5 -5.5t-34.5 -58.5h-38
q6 68 47.5 90.5t84.5 11.5q31 -7 48.5 -23t32 -31t35.5 -18q33 -4 52.5 18t17.5 52z" />
    <glyph glyph-name="Umacron" unicode="&#x16a;" horiz-adv-x="554" 
d="M105 170q-6 715 0 1430h40q-3 -358 -4 -714.5t2 -715.5q0 -121 94 -137v-41q-68 8 -99 50.5t-33 127.5zM317 -8v41q92 16 92 137q6 715 0 1430h40q6 -715 0 -1430q-1 -85 -32.5 -127.5t-99.5 -50.5zM131 1720h292v-40h-292v40z" />
    <glyph glyph-name="umacron" unicode="&#x16b;" horiz-adv-x="572" 
d="M102 172v1028h40v-1028q0 -76 25.5 -109t82.5 -33q45 0 82 23v-40q-35 -23 -82 -23q-78 0 -113 42.5t-35 139.5zM412 0v1200h40v-1200h-40zM130 1320h292v-40h-292v40z" />
    <glyph glyph-name="Ubreve" unicode="&#x16c;" horiz-adv-x="554" 
d="M105 170q-6 715 0 1430h40q-3 -358 -4 -714.5t2 -715.5q0 -121 94 -137v-41q-68 8 -99 50.5t-33 127.5zM317 -8v41q92 16 92 137q6 715 0 1430h40q6 -715 0 -1430q-1 -85 -32.5 -127.5t-99.5 -50.5zM277 1676q-84 0 -121 37.5t-39 124.5h40q2 -69 27.5 -96.5t92.5 -27.5
q68 0 93.5 27.5t26.5 96.5h40q-1 -87 -38.5 -124.5t-121.5 -37.5z" />
    <glyph glyph-name="ubreve" unicode="&#x16d;" horiz-adv-x="572" 
d="M102 172v1028h40v-1028q0 -76 25.5 -109t82.5 -33q45 0 82 23v-40q-35 -23 -82 -23q-78 0 -113 42.5t-35 139.5zM412 0v1200h40v-1200h-40zM276 1276q-84 0 -121 37.5t-39 124.5h40q2 -69 27.5 -96.5t92.5 -27.5q68 0 93.5 27.5t26.5 96.5h40q-1 -87 -38.5 -124.5
t-121.5 -37.5z" />
    <glyph glyph-name="Uring" unicode="&#x16e;" horiz-adv-x="554" 
d="M105 170q-6 715 0 1430h40q-3 -358 -4 -714.5t2 -715.5q0 -121 94 -137v-41q-68 8 -99 50.5t-33 127.5zM317 -8v41q92 16 92 137q6 715 0 1430h40q6 -715 0 -1430q-1 -85 -32.5 -127.5t-99.5 -50.5zM277 1676q-37 0 -64.5 26.5t-27.5 65.5q0 38 27.5 65t64.5 27
q38 0 65 -27t27 -65q0 -39 -27 -65.5t-65 -26.5zM277 1714q23 0 38.5 16t15.5 38q0 23 -15.5 38.5t-38.5 15.5q-22 0 -38 -15.5t-16 -38.5q0 -22 16 -38t38 -16z" />
    <glyph glyph-name="uring" unicode="&#x16f;" horiz-adv-x="572" 
d="M102 172v1028h40v-1028q0 -76 25.5 -109t82.5 -33q45 0 82 23v-40q-35 -23 -82 -23q-78 0 -113 42.5t-35 139.5zM412 0v1200h40v-1200h-40zM276 1276q-37 0 -64.5 26.5t-27.5 65.5q0 38 27.5 65t64.5 27q38 0 65 -27t27 -65q0 -39 -27 -65.5t-65 -26.5zM276 1314
q23 0 38.5 16t15.5 38q0 23 -15.5 38.5t-38.5 15.5q-22 0 -38 -15.5t-16 -38.5q0 -22 16 -38t38 -16z" />
    <glyph glyph-name="Uhungarumlaut" unicode="&#x170;" horiz-adv-x="554" 
d="M105 170q-6 715 0 1430h40q-3 -358 -4 -714.5t2 -715.5q0 -121 94 -137v-41q-68 8 -99 50.5t-33 127.5zM317 -8v41q92 16 92 137q6 715 0 1430h40q6 -715 0 -1430q-1 -85 -32.5 -127.5t-99.5 -50.5zM181 1680l110 198h42l-110 -198h-42zM301 1680l110 198h42l-110 -198
h-42z" />
    <glyph glyph-name="uhungarumlaut" unicode="&#x171;" horiz-adv-x="572" 
d="M102 172v1028h40v-1028q0 -76 25.5 -109t82.5 -33q45 0 82 23v-40q-35 -23 -82 -23q-78 0 -113 42.5t-35 139.5zM412 0v1200h40v-1200h-40zM180 1280l110 198h42l-110 -198h-42zM300 1280l110 198h42l-110 -198h-42z" />
    <glyph glyph-name="Uogonek" unicode="&#x172;" horiz-adv-x="554" 
d="M105 170q-6 715 0 1430h40q-3 -358 -4 -714.5t2 -715.5q0 -121 94 -137v-41q-68 8 -99 50.5t-33 127.5zM317 -8v41q92 16 92 137q6 715 0 1430h40q6 -715 0 -1430q-1 -85 -32.5 -127.5t-99.5 -50.5zM404 -304h-54q-116 0 -94 110l24 114h40l-24 -114q-15 -74 54 -74h54
v-36z" />
    <glyph glyph-name="uogonek" unicode="&#x173;" horiz-adv-x="572" 
d="M102 172v1028h40v-1028q0 -76 25.5 -109t82.5 -33q45 0 82 23v-40q-35 -23 -82 -23q-78 0 -113 42.5t-35 139.5zM412 0v1200h40v-1200h-40zM558 -304h-54q-116 0 -94 110l24 114h40l-24 -114q-15 -74 54 -74h54v-36z" />
    <glyph glyph-name="Wcircumflex" unicode="&#x174;" horiz-adv-x="782" 
d="M174 0l-84 1600h40l26 -530l52 -1030h61l-3 -40h-92zM572 80l54 990l26 530h40l-84 -1520h-36zM512 0l-40 568l-70 982h-24l-72 -982l-34 -488h-36l68 990l38 520h94l36 -520l74 -1030h60l-2 -40h-92zM262 1680l110 198h42l110 -198h-46l-84 156l-86 -156h-46z" />
    <glyph glyph-name="wcircumflex" unicode="&#x175;" horiz-adv-x="764" 
d="M170 0l-110 1200h40l56 -608l48 -552h62l-4 -40h-92zM562 100l46 492l56 608h40l-104 -1100h-38zM500 0l-42 456l-64 694h-24l-66 -694l-34 -356h-40l46 492l58 598h96l56 -598l48 -552h62l-4 -40h-92zM252 1280l110 198h42l110 -198h-46l-84 156l-86 -156h-46z" />
    <glyph glyph-name="Ycircumflex" unicode="&#x176;" horiz-adv-x="492" 
d="M224 0v440l-174 1160h42l72 -488l66 -450h67l-33 -222v-440h-40zM270 702l60 410l72 488h40l-134 -898h-38zM114 1680l110 198h42l110 -198h-46l-84 156l-86 -156h-46z" />
    <glyph glyph-name="ycircumflex" unicode="&#x177;" horiz-adv-x="554" 
d="M262 0l-140 1200h44l68 -608l62 -552h63l-5 -40h-92zM328 100l56 492l68 608h44l-130 -1100h-38zM166 -398q-22 0 -54 3t-52 7v38q21 -4 46 -7t56 -3q71 0 92.5 30t33.5 112l24 168h38l-22 -168q-12 -96 -46.5 -138t-115.5 -42zM190 1280l110 198h42l110 -198h-46
l-84 156l-86 -156h-46z" />
    <glyph glyph-name="Ydieresis" unicode="&#x178;" horiz-adv-x="492" 
d="M224 0v440l-174 1160h42l72 -488l66 -450h67l-33 -222v-440h-40zM270 702l60 410l72 488h40l-134 -898h-38zM274 1680v60h60v-60h-60zM154 1680v60h60v-60h-60z" />
    <glyph glyph-name="Zacute" unicode="&#x179;" horiz-adv-x="478" 
d="M62 1560v40h376v-40h-376zM56 80l322 1440h44l-324 -1440h-42zM40 0v40h358v-40h-358zM218 1680l110 198h42l-110 -198h-42z" />
    <glyph glyph-name="zacute" unicode="&#x17a;" horiz-adv-x="424" 
d="M44 1156v40l350 4v-40zM50 100l284 1000h46l-286 -1000h-44zM36 0v40h340v-40h-340zM194 1280l110 198h42l-110 -198h-42z" />
    <glyph glyph-name="Zdotaccent" unicode="&#x17b;" horiz-adv-x="478" 
d="M62 1560v40h376v-40h-376zM56 80l322 1440h44l-324 -1440h-42zM40 0v40h358v-40h-358zM210 1680v60h60v-60h-60z" />
    <glyph glyph-name="zdotaccent" unicode="&#x17c;" horiz-adv-x="424" 
d="M44 1156v40l350 4v-40zM50 100l284 1000h46l-286 -1000h-44zM36 0v40h340v-40h-340zM186 1280v60h60v-60h-60z" />
    <glyph glyph-name="Zcaron" unicode="&#x17d;" horiz-adv-x="478" 
d="M62 1560v40h376v-40h-376zM56 80l322 1440h44l-324 -1440h-42zM40 0v40h358v-40h-358zM220 1680l-110 198h42l90 -160l88 160h42l-110 -198h-42z" />
    <glyph glyph-name="zcaron" unicode="&#x17e;" horiz-adv-x="424" 
d="M44 1156v40l350 4v-40zM50 100l284 1000h46l-286 -1000h-44zM36 0v40h340v-40h-340zM196 1280l-110 198h42l90 -160l88 160h42l-110 -198h-42z" />
    <glyph glyph-name="uni018F" unicode="&#x18f;" horiz-adv-x="580" 
d="M332 -10v40q51 9 74 43.5t24 100.5q4 222 5.5 422.5t0 401.5t-5.5 424q-1 66 -24 100.5t-74 43.5v40q72 -9 104.5 -52t33.5 -132q4 -223 5.5 -424t0 -401.5t-5.5 -422.5q-1 -88 -33.5 -132t-104.5 -52zM108 1032q-3 123 -4 214t2 176q3 89 39 133t115 51v-40
q-59 -7 -85.5 -41.5t-28.5 -102.5q-1 -69 0 -159.5t2 -230.5h-40zM106 174q-1 180 -1 329.5t1 312.5h250v-40h-210q-1 -151 -1 -292.5t1 -309.5q2 -66 26.5 -100.5t79.5 -43.5v-40q-76 9 -110 52.5t-36 131.5z" />
    <glyph glyph-name="florin" unicode="&#x192;" horiz-adv-x="1160" 
d="M224 -12q-24 0 -55 3t-49 7l4 38q37 -8 98 -8q74 0 110 30t58 112l340 1264q26 96 72 137t134 41q24 0 55 -2.5t49 -7.5l-4 -38q-37 8 -98 8q-73 0 -109 -29.5t-59 -112.5l-340 -1264q-25 -96 -71 -137t-135 -41zM674 780l12 40h158v-40h-170zM362 780v40h122l-10 -40
h-112z" />
    <glyph glyph-name="Ohorn" unicode="&#x1a0;" horiz-adv-x="689" 
d="M244 -8q-71 9 -101.5 51t-32.5 127q-4 225 -5.5 427t0 404t5.5 427q2 86 32.5 128.5t101.5 51.5v-40q-52 -7 -73 -39t-23 -101q-5 -220 -6 -420.5t0.5 -404.5t5.5 -433q2 -67 23 -98.5t73 -39.5v-40zM324 -8v40q52 8 73.5 39.5t22.5 98.5q5 229 6 433t-1 404.5t-5 420.5
q-1 69 -23 100t-73 40v40q74 -7 106 -50t32 -130q2 -225 2.5 -427t0 -404t-2.5 -427q0 -85 -32 -127.5t-106 -50.5zM442 1318q-6 0 -11 1.5t-11 2.5v38q8 -2 22 -2q68 0 92.5 26.5t27.5 95.5q3 60 0 120h40q3 -60 0 -120q-4 -87 -40 -124.5t-120 -37.5z" />
    <glyph glyph-name="ohorn" unicode="&#x1a1;" horiz-adv-x="646" 
d="M102 170q-12 429 0 858q3 86 33.5 129t102.5 51v-40q-51 -7 -72.5 -38t-23.5 -102q-4 -127 -5.5 -230t-1.5 -199t1.5 -199t5.5 -230q2 -70 24.5 -100.5t71.5 -37.5v-40q-72 8 -102.5 50.5t-33.5 127.5zM318 -8v40q50 7 72 37.5t24 100.5q4 127 6 230t2 199t-2 199t-6 230
q-2 71 -23.5 102t-72.5 38v40q72 -8 102.5 -51t33.5 -129q12 -429 0 -858q-3 -85 -33.5 -127.5t-102.5 -50.5zM440 918q-6 0 -11 1.5t-11 2.5v38q8 -2 22 -2q68 0 92.5 26.5t27.5 95.5q3 60 0 120h40q3 -60 0 -120q-4 -87 -40 -124.5t-120 -37.5z" />
    <glyph glyph-name="Uhorn" unicode="&#x1af;" horiz-adv-x="644" 
d="M105 170q-6 715 0 1430h40q-3 -358 -4 -714.5t2 -715.5q0 -121 94 -137v-41q-68 8 -99 50.5t-33 127.5zM317 -8v41q92 16 92 137q6 715 0 1430h40q6 -715 0 -1430q-1 -85 -32.5 -127.5t-99.5 -50.5zM435 1318q-6 0 -11 1.5t-11 2.5v38q8 -2 22 -2q68 0 92.5 26.5
t27.5 95.5q3 60 0 120h40q3 -60 0 -120q-4 -87 -40 -124.5t-120 -37.5z" />
    <glyph glyph-name="uhorn" unicode="&#x1b0;" horiz-adv-x="662" 
d="M102 172v1028h40v-1028q0 -76 25.5 -109t82.5 -33q45 0 82 23v-40q-35 -23 -82 -23q-78 0 -113 42.5t-35 139.5zM412 0v1200h40v-1200h-40zM436 918q-6 0 -11 1.5t-11 2.5v38q8 -2 22 -2q68 0 92.5 26.5t27.5 95.5q3 60 0 120h40q3 -60 0 -120q-4 -87 -40 -124.5
t-120 -37.5z" />
    <glyph glyph-name="uni01C4" unicode="&#x1c4;" horiz-adv-x="1042" 
d="M120 0v1600h40v-1600h-40zM240 0v40h50q72 0 102.5 34t31.5 112q6 614 0 1228q-1 78 -31 112t-101 34h-52v40h52q90 0 130.5 -43.5t41.5 -142.5q3 -220 4 -417.5t0 -394.5t-4 -416q-1 -99 -41.5 -142.5t-132.5 -43.5h-50zM626 1560v40h376v-40h-376zM620 80l322 1440h44
l-324 -1440h-42zM604 0v40h358v-40h-358zM784 1680l-110 198h42l90 -160l88 160h42l-110 -198h-42z" />
    <glyph glyph-name="uni01C5" unicode="&#x1c5;" horiz-adv-x="996" 
d="M120 0v1600h40v-1600h-40zM240 0v40h50q72 0 102.5 34t31.5 112q6 614 0 1228q-1 78 -31 112t-101 34h-52v40h52q90 0 130.5 -43.5t41.5 -142.5q3 -220 4 -417.5t0 -394.5t-4 -416q-1 -99 -41.5 -142.5t-132.5 -43.5h-50zM616 1156v40l350 4v-40zM622 100l284 1000h46
l-286 -1000h-44zM608 0v40h340v-40h-340zM768 1280l-110 198h42l90 -160l88 160h42l-110 -198h-42z" />
    <glyph glyph-name="uni01C6" unicode="&#x1c6;" horiz-adv-x="993" 
d="M409 0v1600h40v-1600h-40zM99 172q-2 143 -2.5 277.5t0 275.5t2.5 303q2 98 37 140t113 42q47 0 80 -18v-39q-31 17 -80 17q-57 0 -82.5 -32.5t-27.5 -109.5q-2 -165 -2.5 -306.5t0 -275t2.5 -274.5q2 -76 26.5 -109t81.5 -33q49 0 82 18v-37q-33 -21 -82 -21
q-78 0 -112 42.5t-36 139.5zM613 1156v40l350 4v-40zM619 100l284 1000h46l-286 -1000h-44zM605 0v40h340v-40h-340zM765 1280l-110 198h42l90 -160l88 160h42l-110 -198h-42z" />
    <glyph glyph-name="uni01C7" unicode="&#x1c7;" horiz-adv-x="965" 
d="M120 0v1600h40v-1600h-40zM240 0v40h198v-40h-198zM731 -8v41q92 17 92 143v1424h40v-1424q0 -88 -31 -131.5t-101 -52.5zM651 -8q-71 8 -102.5 52t-33.5 132q-3 105 -3 195t3 195h40q-6 -195 0 -390q2 -66 23.5 -100.5t72.5 -42.5v-41z" />
    <glyph glyph-name="uni01C8" unicode="&#x1c8;" horiz-adv-x="792" 
d="M120 0v1600h40v-1600h-40zM240 0v40h198v-40h-198zM512 1476v124h160v-124h-160zM446 -400q-22 0 -54 3t-52 7v38q37 -8 102 -8q72 0 99 29t27 111v1420h40v-1420q0 -96 -36 -138t-126 -42z" />
    <glyph glyph-name="uni01C9" unicode="&#x1c9;" horiz-adv-x="622" 
d="M120 0v1600h40v-1600h-40zM342 1476v124h160v-124h-160zM276 -400q-22 0 -54 3t-52 7v38q37 -8 102 -8q72 0 99 29t27 111v1420h40v-1420q0 -96 -36 -138t-126 -42z" />
    <glyph glyph-name="uni01CA" unicode="&#x1ca;" horiz-adv-x="1165" 
d="M418 0l-86 600l-136 960h-76v40h110l72 -504l152 -1056h76v-40h-112zM490 100v1500h40v-1500h-40zM120 0v1500h40v-1500h-40zM931 -8v41q92 17 92 143v1424h40v-1424q0 -88 -31 -131.5t-101 -52.5zM851 -8q-71 8 -102.5 52t-33.5 132q-3 105 -3 195t3 195h40
q-6 -195 0 -390q2 -66 23.5 -100.5t72.5 -42.5v-41z" />
    <glyph glyph-name="uni01CB" unicode="&#x1cb;" horiz-adv-x="992" 
d="M418 0l-86 600l-136 960h-76v40h110l72 -504l152 -1056h76v-40h-112zM490 100v1500h40v-1500h-40zM120 0v1500h40v-1500h-40zM712 1476v124h160v-124h-160zM646 -400q-22 0 -54 3t-52 7v38q37 -8 102 -8q72 0 99 29t27 111v1420h40v-1420q0 -96 -36 -138t-126 -42z" />
    <glyph glyph-name="uni01CC" unicode="&#x1cc;" horiz-adv-x="928" 
d="M430 0v1028q-1 77 -26 109.5t-82 32.5q-45 0 -82 -23v40q35 23 82 23q78 0 112.5 -42t35.5 -140v-1028h-40zM120 0v1200h40v-1200h-40zM648 1476v124h160v-124h-160zM582 -400q-22 0 -54 3t-52 7v38q37 -8 102 -8q72 0 99 29t27 111v1420h40v-1420q0 -96 -36 -138
t-126 -42z" />
    <glyph glyph-name="uni01CD" unicode="&#x1cd;" horiz-adv-x="528" 
d="M60 0l142 1600h126l2 -40h-96l-54 -640l-30 -344h180l-10 -40h-174l-46 -536h-40zM428 0l-80 922l-52 598h36l136 -1520h-40zM246 1680l-110 198h42l90 -160l88 160h42l-110 -198h-42z" />
    <glyph glyph-name="uni01CE" unicode="&#x1ce;" horiz-adv-x="540" 
d="M90 820q-1 54 -2 109.5t0 98.5q3 86 35.5 128.5t98.5 51.5v-40q-43 -7 -67 -38t-27 -102q-3 -93 0 -208h-38zM384 0v1028q0 63 -18.5 96t-63.5 42v42q68 -9 95 -52.5t27 -127.5v-1028h-40zM80 180q-1 30 -2 56t0 54q3 96 30.5 175t111.5 145q20 14 41 29.5t43 30.5v-45
q-34 -24 -84 -65q-61 -52 -80 -121t-22 -149q0 -16 0.5 -47t1.5 -63q5 -72 36 -111t80 -39q40 0 68 16v-41q-27 -15 -68 -15q-76 0 -113.5 51.5t-42.5 138.5zM242 1280l-110 198h42l90 -160l88 160h42l-110 -198h-42z" />
    <glyph glyph-name="uni01CF" unicode="&#x1cf;" 
d="M120 0v1600h40v-1600h-40zM120 1680l-110 198h42l90 -160l88 160h42l-110 -198h-42z" />
    <glyph glyph-name="uni01D0" unicode="&#x1d0;" 
d="M120 0v1200h40v-1200h-40zM120 1280l-110 198h42l90 -160l88 160h42l-110 -198h-42z" />
    <glyph glyph-name="uni01D1" unicode="&#x1d1;" horiz-adv-x="569" 
d="M244 -8q-71 9 -101.5 51t-32.5 127q-4 225 -5.5 427t0 404t5.5 427q2 86 32.5 128.5t101.5 51.5v-40q-52 -7 -73 -39t-23 -101q-5 -220 -6 -420.5t0.5 -404.5t5.5 -433q2 -67 23 -98.5t73 -39.5v-40zM324 -8v40q52 8 73.5 39.5t22.5 98.5q5 229 6 433t-1 404.5t-5 420.5
q-1 69 -23 100t-73 40v40q74 -7 106 -50t32 -130q2 -225 2.5 -427t0 -404t-2.5 -427q0 -85 -32 -127.5t-106 -50.5zM262 1680l-110 198h42l90 -160l88 160h42l-110 -198h-42z" />
    <glyph glyph-name="uni01D2" unicode="&#x1d2;" horiz-adv-x="556" 
d="M102 170q-12 429 0 858q3 86 33.5 129t102.5 51v-40q-51 -7 -72.5 -38t-23.5 -102q-4 -127 -5.5 -230t-1.5 -199t1.5 -199t5.5 -230q2 -70 24.5 -100.5t71.5 -37.5v-40q-72 8 -102.5 50.5t-33.5 127.5zM318 -8v40q50 7 72 37.5t24 100.5q4 127 6 230t2 199t-2 199t-6 230
q-2 71 -23.5 102t-72.5 38v40q72 -8 102.5 -51t33.5 -129q12 -429 0 -858q-3 -85 -33.5 -127.5t-102.5 -50.5zM258 1280l-110 198h42l90 -160l88 160h42l-110 -198h-42z" />
    <glyph glyph-name="uni01D3" unicode="&#x1d3;" horiz-adv-x="554" 
d="M105 170q-6 715 0 1430h40q-3 -358 -4 -714.5t2 -715.5q0 -121 94 -137v-41q-68 8 -99 50.5t-33 127.5zM317 -8v41q92 16 92 137q6 715 0 1430h40q6 -715 0 -1430q-1 -85 -32.5 -127.5t-99.5 -50.5zM257 1680l-110 198h42l90 -160l88 160h42l-110 -198h-42z" />
    <glyph glyph-name="uni01D4" unicode="&#x1d4;" horiz-adv-x="572" 
d="M102 172v1028h40v-1028q0 -76 25.5 -109t82.5 -33q45 0 82 23v-40q-35 -23 -82 -23q-78 0 -113 42.5t-35 139.5zM412 0v1200h40v-1200h-40zM256 1280l-110 198h42l90 -160l88 160h42l-110 -198h-42z" />
    <glyph glyph-name="uni01D5" unicode="&#x1d5;" horiz-adv-x="554" 
d="M105 170q-6 715 0 1430h40q-3 -358 -4 -714.5t2 -715.5q0 -121 94 -137v-41q-68 8 -99 50.5t-33 127.5zM317 -8v41q92 16 92 137q6 715 0 1430h40q6 -715 0 -1430q-1 -85 -32.5 -127.5t-99.5 -50.5zM307 1680v60h60v-60h-60zM187 1680v60h60v-60h-60zM131 1860h292v-40
h-292v40z" />
    <glyph glyph-name="uni01D6" unicode="&#x1d6;" horiz-adv-x="572" 
d="M102 172v1028h40v-1028q0 -76 25.5 -109t82.5 -33q45 0 82 23v-40q-35 -23 -82 -23q-78 0 -113 42.5t-35 139.5zM412 0v1200h40v-1200h-40zM306 1280v60h60v-60h-60zM186 1280v60h60v-60h-60zM130 1460h292v-40h-292v40z" />
    <glyph glyph-name="uni01D7" unicode="&#x1d7;" horiz-adv-x="554" 
d="M105 170q-6 715 0 1430h40q-3 -358 -4 -714.5t2 -715.5q0 -121 94 -137v-41q-68 8 -99 50.5t-33 127.5zM317 -8v41q92 16 92 137q6 715 0 1430h40q6 -715 0 -1430q-1 -85 -32.5 -127.5t-99.5 -50.5zM307 1680v60h60v-60h-60zM187 1680v60h60v-60h-60zM255 1820l110 198
h42l-110 -198h-42z" />
    <glyph glyph-name="uni01D8" unicode="&#x1d8;" horiz-adv-x="572" 
d="M102 172v1028h40v-1028q0 -76 25.5 -109t82.5 -33q45 0 82 23v-40q-35 -23 -82 -23q-78 0 -113 42.5t-35 139.5zM412 0v1200h40v-1200h-40zM306 1280v60h60v-60h-60zM186 1280v60h60v-60h-60zM254 1420l110 198h42l-110 -198h-42z" />
    <glyph glyph-name="uni01D9" unicode="&#x1d9;" horiz-adv-x="554" 
d="M105 170q-6 715 0 1430h40q-3 -358 -4 -714.5t2 -715.5q0 -121 94 -137v-41q-68 8 -99 50.5t-33 127.5zM317 -8v41q92 16 92 137q6 715 0 1430h40q6 -715 0 -1430q-1 -85 -32.5 -127.5t-99.5 -50.5zM307 1680v60h60v-60h-60zM187 1680v60h60v-60h-60zM257 1820l-110 198
h42l90 -160l88 160h42l-110 -198h-42z" />
    <glyph glyph-name="uni01DA" unicode="&#x1da;" horiz-adv-x="572" 
d="M102 172v1028h40v-1028q0 -76 25.5 -109t82.5 -33q45 0 82 23v-40q-35 -23 -82 -23q-78 0 -113 42.5t-35 139.5zM412 0v1200h40v-1200h-40zM306 1280v60h60v-60h-60zM186 1280v60h60v-60h-60zM256 1420l-110 198h42l90 -160l88 160h42l-110 -198h-42z" />
    <glyph glyph-name="uni01DB" unicode="&#x1db;" horiz-adv-x="554" 
d="M105 170q-6 715 0 1430h40q-3 -358 -4 -714.5t2 -715.5q0 -121 94 -137v-41q-68 8 -99 50.5t-33 127.5zM317 -8v41q92 16 92 137q6 715 0 1430h40q6 -715 0 -1430q-1 -85 -32.5 -127.5t-99.5 -50.5zM307 1680v60h60v-60h-60zM187 1680v60h60v-60h-60zM255 1820l-110 198
h42l110 -198h-42z" />
    <glyph glyph-name="uni01DC" unicode="&#x1dc;" horiz-adv-x="572" 
d="M102 172v1028h40v-1028q0 -76 25.5 -109t82.5 -33q45 0 82 23v-40q-35 -23 -82 -23q-78 0 -113 42.5t-35 139.5zM412 0v1200h40v-1200h-40zM306 1280v60h60v-60h-60zM186 1280v60h60v-60h-60zM254 1420l-110 198h42l110 -198h-42z" />
    <glyph glyph-name="uni01DD" unicode="&#x1dd;" horiz-adv-x="541" 
d="M441 1030q9 -429 0 -858q-2 -86 -34 -128.5t-104 -51.5v41q51 8 73.5 41t24.5 98q2 127 3 229.5t1 198t-1 199t-3 231.5q-2 70 -24.5 101t-73.5 37v40q74 -8 105 -50.5t33 -127.5zM345 616v-40h-216q-3 -134 -3 -240.5t3 -163.5q4 -65 25.5 -98t68.5 -42v-40
q-68 9 -99 51t-35 129q-2 54 -3 166.5t5 277.5h254zM223 1208v-41q-49 -7 -70.5 -37.5t-23.5 -99.5q-2 -45 -1.5 -96.5t3.5 -115.5h-40q-3 64 -3.5 116t1.5 96q4 85 32 127.5t102 50.5z" />
    <glyph glyph-name="Gcaron" unicode="&#x1e6;" horiz-adv-x="545" 
d="M240 -7q-69 9 -99.5 52.5t-32.5 130.5q-3 223 -4 423.5t0 401t4 423.5q2 87 33 131t99 53v-41q-89 -17 -92 -143q-2 -223 -2.5 -423.5t0 -401t2.5 -423.5q0 -126 92 -143v-40zM412 1070q3 95 3 177.5t-3 176.5q-4 126 -92 143v41q67 -9 98 -53t34 -131q3 -94 3 -176.5
t-3 -177.5h-40zM320 -8v41q97 14 100 143q2 107 2 199.5t-2 198.5h-146v40h186q2 -69 2 -170t-2 -268q-1 -88 -34 -132t-106 -52zM254 1680l-110 198h42l90 -160l88 160h42l-110 -198h-42z" />
    <glyph glyph-name="gcaron" unicode="&#x1e7;" horiz-adv-x="597" 
d="M247 -280q-78 5 -127 40t-49 120v28q0 63 38 94t74 38v16q-70 35 -70 96v16q0 39 22 65.5t44 30.5v18q-65 37 -68 158q-2 85 -3 150.5t-1 128.5t1 136t3 173q2 86 33 129t103 51v-40q-51 -7 -72.5 -38t-23.5 -102q-9 -306 0 -588q2 -70 24.5 -100.5t71.5 -37.5v-44
q-43 -7 -68.5 -30.5t-25.5 -59.5v-16q0 -67 94 -80v-40q-58 0 -97 -25t-39 -99v-30q0 -70 39 -93t97 -26v-39zM327 262v40q50 7 72 37.5t24 100.5q9 282 0 588q-2 71 -23.5 102t-72.5 38v40q106 -12 128 -102h16q0 41 32 67.5t72 26.5v-40h-14q-42 0 -69 -45.5t-27 -132.5
v-46q0 -100 1 -174.5t0.5 -148.5t-3.5 -173q-3 -85 -33.5 -127.5t-102.5 -50.5zM327 -279v38q58 3 97 26t39 93v30q0 74 -38.5 94t-97.5 25v38q82 -8 129 -39t47 -118v-28q0 -85 -48.5 -119.5t-127.5 -39.5zM267 1280l-110 198h42l90 -160l88 160h42l-110 -198h-42z" />
    <glyph glyph-name="uni01EA" unicode="&#x1ea;" horiz-adv-x="569" 
d="M244 -8q-71 9 -101.5 51t-32.5 127q-4 225 -5.5 427t0 404t5.5 427q2 86 32.5 128.5t101.5 51.5v-40q-52 -7 -73 -39t-23 -101q-5 -220 -6 -420.5t0.5 -404.5t5.5 -433q2 -67 23 -98.5t73 -39.5v-40zM324 -8v40q52 8 73.5 39.5t22.5 98.5q5 229 6 433t-1 404.5t-5 420.5
q-1 69 -23 100t-73 40v40q74 -7 106 -50t32 -130q2 -225 2.5 -427t0 -404t-2.5 -427q0 -85 -32 -127.5t-106 -50.5zM416 -304h-54q-116 0 -94 110l24 114h40l-24 -114q-15 -74 54 -74h54v-36z" />
    <glyph glyph-name="uni01EB" unicode="&#x1eb;" horiz-adv-x="556" 
d="M102 170q-12 429 0 858q3 86 33.5 129t102.5 51v-40q-51 -7 -72.5 -38t-23.5 -102q-4 -127 -5.5 -230t-1.5 -199t1.5 -199t5.5 -230q2 -70 24.5 -100.5t71.5 -37.5v-40q-72 8 -102.5 50.5t-33.5 127.5zM318 -8v40q50 7 72 37.5t24 100.5q4 127 6 230t2 199t-2 199t-6 230
q-2 71 -23.5 102t-72.5 38v40q72 -8 102.5 -51t33.5 -129q12 -429 0 -858q-3 -85 -33.5 -127.5t-102.5 -50.5zM428 -304h-54q-116 0 -94 110l24 114h40l-24 -114q-15 -74 54 -74h54v-36z" />
    <glyph glyph-name="Aringacute" unicode="&#x1fa;" horiz-adv-x="528" 
d="M60 0l142 1600h126l2 -40h-96l-54 -640l-30 -344h180l-10 -40h-174l-46 -536h-40zM428 0l-80 922l-52 598h36l136 -1520h-40zM266 1676q-37 0 -64.5 26.5t-27.5 65.5q0 38 27.5 65t64.5 27q38 0 65 -27t27 -65q0 -39 -27 -65.5t-65 -26.5zM266 1714q23 0 38.5 16t15.5 38
q0 23 -15.5 38.5t-38.5 15.5q-22 0 -38 -15.5t-16 -38.5q0 -22 16 -38t38 -16zM244 1924l110 198h42l-110 -198h-42z" />
    <glyph glyph-name="aringacute" unicode="&#x1fb;" horiz-adv-x="540" 
d="M90 820q-1 54 -2 109.5t0 98.5q3 86 35.5 128.5t98.5 51.5v-40q-43 -7 -67 -38t-27 -102q-3 -93 0 -208h-38zM384 0v1028q0 63 -18.5 96t-63.5 42v42q68 -9 95 -52.5t27 -127.5v-1028h-40zM80 180q-1 30 -2 56t0 54q3 96 30.5 175t111.5 145q20 14 41 29.5t43 30.5v-45
q-34 -24 -84 -65q-61 -52 -80 -121t-22 -149q0 -16 0.5 -47t1.5 -63q5 -72 36 -111t80 -39q40 0 68 16v-41q-27 -15 -68 -15q-76 0 -113.5 51.5t-42.5 138.5zM262 1276q-37 0 -64.5 26.5t-27.5 65.5q0 38 27.5 65t64.5 27q38 0 65 -27t27 -65q0 -39 -27 -65.5t-65 -26.5z
M262 1314q23 0 38.5 16t15.5 38q0 23 -15.5 38.5t-38.5 15.5q-22 0 -38 -15.5t-16 -38.5q0 -22 16 -38t38 -16zM240 1524l110 198h42l-110 -198h-42z" />
    <glyph glyph-name="AEacute" unicode="&#x1fc;" horiz-adv-x="724" 
d="M282 1600h392v-40h-358l-90 -638l-48 -346h120l-12 -40h-112l-74 -536h-40zM356 0v1480h40v-1480h-40zM476 820h178v-40h-178v40zM476 0v40h198v-40h-198zM388 1680l110 198h42l-110 -198h-42z" />
    <glyph glyph-name="aeacute" unicode="&#x1fd;" horiz-adv-x="821" 
d="M80 820q-1 54 -2 109.5t0 98.5q3 86 35.5 128.5t98.5 51.5v-40q-43 -7 -67 -38t-27 -102q-3 -93 0 -208h-38zM520 -8q-109 12 -134 102h-10q-12 -37 -40 -64t-70 -36v42q45 11 77 53t35 123v816q0 121 -86 138v42q79 -12 108 -70q32 61 120 70v-40q-102 -17 -102 -140
v-858q0 -72 25 -102t77 -36v-40zM496 610v40h196q6 264 0 378q-9 124 -92 138v42q68 -9 98 -51.5t34 -128.5q2 -54 3 -153.5t-5 -264.5h-234zM196 -6q-56 14 -84 62.5t-32 123.5q-1 30 -2 56t0 54q3 104 69 177t159 134v-45q-82 -55 -133.5 -117t-54.5 -149q0 -16 0.5 -47
t1.5 -63q8 -113 76 -142v-44zM600 -8v40q48 8 68.5 38.5t23.5 99.5q2 45 1.5 96.5t-3.5 115.5h40q3 -64 3.5 -116t-1.5 -96q-4 -85 -32 -127.5t-100 -50.5zM390 1280l110 198h42l-110 -198h-42z" />
    <glyph glyph-name="Oslashacute" unicode="&#x1fe;" horiz-adv-x="569" 
d="M244 -8q-71 9 -101.5 51t-32.5 127q-4 225 -5.5 427t0 404t5.5 427q2 86 32.5 128.5t101.5 51.5v-40q-52 -7 -73 -39t-23 -101q-5 -220 -6 -420.5t0.5 -404.5t5.5 -433q2 -67 23 -98.5t73 -39.5v-40zM324 -8v40q52 8 73.5 39.5t22.5 98.5q5 229 6 433t-1 404.5t-5 420.5
q-1 69 -23 100t-73 40v40q74 -7 106 -50t32 -130q2 -225 2.5 -427t0 -404t-2.5 -427q0 -85 -32 -127.5t-106 -50.5zM206 534v92l192 374v-92zM260 1680l110 198h42l-110 -198h-42z" />
    <glyph glyph-name="oslashacute" unicode="&#x1ff;" horiz-adv-x="556" 
d="M102 170q-12 429 0 858q3 86 33.5 129t102.5 51v-40q-51 -7 -72.5 -38t-23.5 -102q-4 -127 -5.5 -230t-1.5 -199t1.5 -199t5.5 -230q2 -70 24.5 -100.5t71.5 -37.5v-40q-72 8 -102.5 50.5t-33.5 127.5zM318 -8v40q50 7 72 37.5t24 100.5q4 127 6 230t2 199t-2 199t-6 230
q-2 71 -23.5 102t-72.5 38v40q72 -8 102.5 -51t33.5 -129q12 -429 0 -858q-3 -85 -33.5 -127.5t-102.5 -50.5zM200 424v66l204 294q0 -18 0.5 -34.5t1.5 -33.5zM256 1280l110 198h42l-110 -198h-42z" />
    <glyph glyph-name="uni0200" unicode="&#x200;" horiz-adv-x="528" 
d="M60 0l142 1600h126l2 -40h-96l-54 -640l-30 -344h180l-10 -40h-174l-46 -536h-40zM428 0l-80 922l-52 598h36l136 -1520h-40zM134 1680l-118 196h48l118 -196h-48zM294 1680l-118 196h48l118 -196h-48z" />
    <glyph glyph-name="uni0201" unicode="&#x201;" horiz-adv-x="540" 
d="M90 820q-1 54 -2 109.5t0 98.5q3 86 35.5 128.5t98.5 51.5v-40q-43 -7 -67 -38t-27 -102q-3 -93 0 -208h-38zM384 0v1028q0 63 -18.5 96t-63.5 42v42q68 -9 95 -52.5t27 -127.5v-1028h-40zM80 180q-1 30 -2 56t0 54q3 96 30.5 175t111.5 145q20 14 41 29.5t43 30.5v-45
q-34 -24 -84 -65q-61 -52 -80 -121t-22 -149q0 -16 0.5 -47t1.5 -63q5 -72 36 -111t80 -39q40 0 68 16v-41q-27 -15 -68 -15q-76 0 -113.5 51.5t-42.5 138.5zM130 1280l-118 196h48l118 -196h-48zM290 1280l-118 196h48l118 -196h-48z" />
    <glyph glyph-name="uni0202" unicode="&#x202;" horiz-adv-x="528" 
d="M60 0l142 1600h126l2 -40h-96l-54 -640l-30 -344h180l-10 -40h-174l-46 -536h-40zM428 0l-80 922l-52 598h36l136 -1520h-40zM266 1818q-84 0 -121 -37.5t-39 -124.5h40q2 69 27.5 96.5t92.5 27.5q68 0 93.5 -27.5t26.5 -96.5h40q-1 87 -38.5 124.5t-121.5 37.5z" />
    <glyph glyph-name="uni0203" unicode="&#x203;" horiz-adv-x="540" 
d="M90 820q-1 54 -2 109.5t0 98.5q3 86 35.5 128.5t98.5 51.5v-40q-43 -7 -67 -38t-27 -102q-3 -93 0 -208h-38zM384 0v1028q0 63 -18.5 96t-63.5 42v42q68 -9 95 -52.5t27 -127.5v-1028h-40zM80 180q-1 30 -2 56t0 54q3 96 30.5 175t111.5 145q20 14 41 29.5t43 30.5v-45
q-34 -24 -84 -65q-61 -52 -80 -121t-22 -149q0 -16 0.5 -47t1.5 -63q5 -72 36 -111t80 -39q40 0 68 16v-41q-27 -15 -68 -15q-76 0 -113.5 51.5t-42.5 138.5zM262 1418q-84 0 -121 -37.5t-39 -124.5h40q2 69 27.5 96.5t92.5 27.5q68 0 93.5 -27.5t26.5 -96.5h40
q-1 87 -38.5 124.5t-121.5 37.5z" />
    <glyph glyph-name="uni0204" unicode="&#x204;" horiz-adv-x="488" 
d="M120 0v1600h40v-1600h-40zM240 1560v40h198v-40h-198zM240 780v40h178v-40h-178zM240 0v40h198v-40h-198zM138 1680l-118 196h48l118 -196h-48zM298 1680l-118 196h48l118 -196h-48z" />
    <glyph glyph-name="uni0205" unicode="&#x205;" horiz-adv-x="541" 
d="M100 170q-9 429 0 858q2 86 34 128.5t104 51.5v-41q-51 -8 -73.5 -41t-24.5 -98q-2 -127 -3 -229.5t-1 -198t1 -199t3 -231.5q2 -70 24.5 -101t73.5 -37v-40q-74 8 -105 50.5t-33 127.5zM196 584v40h216q3 134 3 240.5t-3 163.5q-4 65 -25.5 98t-68.5 42v40q68 -9 99 -51
t35 -129q2 -54 3 -166.5t-5 -277.5h-254zM318 -8v41q49 7 70.5 37.5t23.5 99.5q2 45 1.5 96.5t-3.5 115.5h40q3 -64 3.5 -116t-1.5 -96q-4 -85 -32 -127.5t-102 -50.5zM144 1280l-118 196h48l118 -196h-48zM304 1280l-118 196h48l118 -196h-48z" />
    <glyph glyph-name="uni0206" unicode="&#x206;" horiz-adv-x="488" 
d="M120 0v1600h40v-1600h-40zM240 1560v40h198v-40h-198zM240 780v40h178v-40h-178zM240 0v40h198v-40h-198zM270 1818q-84 0 -121 -37.5t-39 -124.5h40q2 69 27.5 96.5t92.5 27.5q68 0 93.5 -27.5t26.5 -96.5h40q-1 87 -38.5 124.5t-121.5 37.5z" />
    <glyph glyph-name="uni0207" unicode="&#x207;" horiz-adv-x="541" 
d="M100 170q-9 429 0 858q2 86 34 128.5t104 51.5v-41q-51 -8 -73.5 -41t-24.5 -98q-2 -127 -3 -229.5t-1 -198t1 -199t3 -231.5q2 -70 24.5 -101t73.5 -37v-40q-74 8 -105 50.5t-33 127.5zM196 584v40h216q3 134 3 240.5t-3 163.5q-4 65 -25.5 98t-68.5 42v40q68 -9 99 -51
t35 -129q2 -54 3 -166.5t-5 -277.5h-254zM318 -8v41q49 7 70.5 37.5t23.5 99.5q2 45 1.5 96.5t-3.5 115.5h40q3 -64 3.5 -116t-1.5 -96q-4 -85 -32 -127.5t-102 -50.5zM276 1418q-84 0 -121 -37.5t-39 -124.5h40q2 69 27.5 96.5t92.5 27.5q68 0 93.5 -27.5t26.5 -96.5h40
q-1 87 -38.5 124.5t-121.5 37.5z" />
    <glyph glyph-name="uni0208" unicode="&#x208;" 
d="M120 0v1600h40v-1600h-40zM8 1680l-118 196h48l118 -196h-48zM168 1680l-118 196h48l118 -196h-48z" />
    <glyph glyph-name="uni0209" unicode="&#x209;" 
d="M120 0v1200h40v-1200h-40zM8 1280l-118 196h48l118 -196h-48zM168 1280l-118 196h48l118 -196h-48z" />
    <glyph glyph-name="uni020A" unicode="&#x20a;" 
d="M120 0v1600h40v-1600h-40zM140 1818q-84 0 -121 -37.5t-39 -124.5h40q2 69 27.5 96.5t92.5 27.5q68 0 93.5 -27.5t26.5 -96.5h40q-1 87 -38.5 124.5t-121.5 37.5z" />
    <glyph glyph-name="uni020B" unicode="&#x20b;" 
d="M120 0v1200h40v-1200h-40zM140 1418q-84 0 -121 -37.5t-39 -124.5h40q2 69 27.5 96.5t92.5 27.5q68 0 93.5 -27.5t26.5 -96.5h40q-1 87 -38.5 124.5t-121.5 37.5z" />
    <glyph glyph-name="uni020C" unicode="&#x20c;" horiz-adv-x="569" 
d="M244 -8q-71 9 -101.5 51t-32.5 127q-4 225 -5.5 427t0 404t5.5 427q2 86 32.5 128.5t101.5 51.5v-40q-52 -7 -73 -39t-23 -101q-5 -220 -6 -420.5t0.5 -404.5t5.5 -433q2 -67 23 -98.5t73 -39.5v-40zM324 -8v40q52 8 73.5 39.5t22.5 98.5q5 229 6 433t-1 404.5t-5 420.5
q-1 69 -23 100t-73 40v40q74 -7 106 -50t32 -130q2 -225 2.5 -427t0 -404t-2.5 -427q0 -85 -32 -127.5t-106 -50.5zM150 1680l-118 196h48l118 -196h-48zM310 1680l-118 196h48l118 -196h-48z" />
    <glyph glyph-name="uni020D" unicode="&#x20d;" horiz-adv-x="556" 
d="M102 170q-12 429 0 858q3 86 33.5 129t102.5 51v-40q-51 -7 -72.5 -38t-23.5 -102q-4 -127 -5.5 -230t-1.5 -199t1.5 -199t5.5 -230q2 -70 24.5 -100.5t71.5 -37.5v-40q-72 8 -102.5 50.5t-33.5 127.5zM318 -8v40q50 7 72 37.5t24 100.5q4 127 6 230t2 199t-2 199t-6 230
q-2 71 -23.5 102t-72.5 38v40q72 -8 102.5 -51t33.5 -129q12 -429 0 -858q-3 -85 -33.5 -127.5t-102.5 -50.5zM146 1280l-118 196h48l118 -196h-48zM306 1280l-118 196h48l118 -196h-48z" />
    <glyph glyph-name="uni020E" unicode="&#x20e;" horiz-adv-x="569" 
d="M244 -8q-71 9 -101.5 51t-32.5 127q-4 225 -5.5 427t0 404t5.5 427q2 86 32.5 128.5t101.5 51.5v-40q-52 -7 -73 -39t-23 -101q-5 -220 -6 -420.5t0.5 -404.5t5.5 -433q2 -67 23 -98.5t73 -39.5v-40zM324 -8v40q52 8 73.5 39.5t22.5 98.5q5 229 6 433t-1 404.5t-5 420.5
q-1 69 -23 100t-73 40v40q74 -7 106 -50t32 -130q2 -225 2.5 -427t0 -404t-2.5 -427q0 -85 -32 -127.5t-106 -50.5zM282 1818q-84 0 -121 -37.5t-39 -124.5h40q2 69 27.5 96.5t92.5 27.5q68 0 93.5 -27.5t26.5 -96.5h40q-1 87 -38.5 124.5t-121.5 37.5z" />
    <glyph glyph-name="uni020F" unicode="&#x20f;" horiz-adv-x="556" 
d="M102 170q-12 429 0 858q3 86 33.5 129t102.5 51v-40q-51 -7 -72.5 -38t-23.5 -102q-4 -127 -5.5 -230t-1.5 -199t1.5 -199t5.5 -230q2 -70 24.5 -100.5t71.5 -37.5v-40q-72 8 -102.5 50.5t-33.5 127.5zM318 -8v40q50 7 72 37.5t24 100.5q4 127 6 230t2 199t-2 199t-6 230
q-2 71 -23.5 102t-72.5 38v40q72 -8 102.5 -51t33.5 -129q12 -429 0 -858q-3 -85 -33.5 -127.5t-102.5 -50.5zM278 1418q-84 0 -121 -37.5t-39 -124.5h40q2 69 27.5 96.5t92.5 27.5q68 0 93.5 -27.5t26.5 -96.5h40q-1 87 -38.5 124.5t-121.5 37.5z" />
    <glyph glyph-name="uni0210" unicode="&#x210;" horiz-adv-x="549" 
d="M448 0l-144 650h-84v40h62q71 0 101 34t33 112q9 289 0 578q-3 78 -33 112t-99 34h-44v40h44q87 0 127.5 -43.5t44.5 -142.5q12 -325 0 -578q-6 -152 -110 -178l146 -658h-44zM120 0v1600h40v-1600h-40zM132 1680l-118 196h48l118 -196h-48zM292 1680l-118 196h48
l118 -196h-48z" />
    <glyph glyph-name="uni0211" unicode="&#x211;" horiz-adv-x="390" 
d="M120 0v1200h40v-1200h-40zM240 1146v40q29 14 80 14h50v-40h-50q-49 0 -80 -14zM88 1280l-118 196h48l118 -196h-48zM248 1280l-118 196h48l118 -196h-48z" />
    <glyph glyph-name="uni0212" unicode="&#x212;" horiz-adv-x="549" 
d="M448 0l-144 650h-84v40h62q71 0 101 34t33 112q9 289 0 578q-3 78 -33 112t-99 34h-44v40h44q87 0 127.5 -43.5t44.5 -142.5q12 -325 0 -578q-6 -152 -110 -178l146 -658h-44zM120 0v1600h40v-1600h-40zM264 1818q-84 0 -121 -37.5t-39 -124.5h40q2 69 27.5 96.5
t92.5 27.5q68 0 93.5 -27.5t26.5 -96.5h40q-1 87 -38.5 124.5t-121.5 37.5z" />
    <glyph glyph-name="uni0213" unicode="&#x213;" horiz-adv-x="390" 
d="M120 0v1200h40v-1200h-40zM240 1146v40q29 14 80 14h50v-40h-50q-49 0 -80 -14zM220 1418q-84 0 -121 -37.5t-39 -124.5h40q2 69 27.5 96.5t92.5 27.5q68 0 93.5 -27.5t26.5 -96.5h40q-1 87 -38.5 124.5t-121.5 37.5z" />
    <glyph glyph-name="uni0214" unicode="&#x214;" horiz-adv-x="554" 
d="M105 170q-6 715 0 1430h40q-3 -358 -4 -714.5t2 -715.5q0 -121 94 -137v-41q-68 8 -99 50.5t-33 127.5zM317 -8v41q92 16 92 137q6 715 0 1430h40q6 -715 0 -1430q-1 -85 -32.5 -127.5t-99.5 -50.5zM145 1680l-118 196h48l118 -196h-48zM305 1680l-118 196h48l118 -196
h-48z" />
    <glyph glyph-name="uni0215" unicode="&#x215;" horiz-adv-x="572" 
d="M102 172v1028h40v-1028q0 -76 25.5 -109t82.5 -33q45 0 82 23v-40q-35 -23 -82 -23q-78 0 -113 42.5t-35 139.5zM412 0v1200h40v-1200h-40zM144 1280l-118 196h48l118 -196h-48zM304 1280l-118 196h48l118 -196h-48z" />
    <glyph glyph-name="uni0216" unicode="&#x216;" horiz-adv-x="554" 
d="M105 170q-6 715 0 1430h40q-3 -358 -4 -714.5t2 -715.5q0 -121 94 -137v-41q-68 8 -99 50.5t-33 127.5zM317 -8v41q92 16 92 137q6 715 0 1430h40q6 -715 0 -1430q-1 -85 -32.5 -127.5t-99.5 -50.5zM277 1818q-84 0 -121 -37.5t-39 -124.5h40q2 69 27.5 96.5t92.5 27.5
q68 0 93.5 -27.5t26.5 -96.5h40q-1 87 -38.5 124.5t-121.5 37.5z" />
    <glyph glyph-name="uni0217" unicode="&#x217;" horiz-adv-x="572" 
d="M102 172v1028h40v-1028q0 -76 25.5 -109t82.5 -33q45 0 82 23v-40q-35 -23 -82 -23q-78 0 -113 42.5t-35 139.5zM412 0v1200h40v-1200h-40zM276 1418q-84 0 -121 -37.5t-39 -124.5h40q2 69 27.5 96.5t92.5 27.5q68 0 93.5 -27.5t26.5 -96.5h40q-1 87 -38.5 124.5
t-121.5 37.5z" />
    <glyph glyph-name="uni0218" unicode="&#x218;" horiz-adv-x="512" 
d="M301 -7v40q48 9 69 43.5t23 99.5q2 69 2.5 119.5t-0.5 104t-2 132.5q-1 93 -18 152.5t-80 75.5l-72 18q-62 15 -91.5 47t-39 88.5t-11.5 144.5q-1 77 0.5 177t1.5 191q0 88 31.5 131t104.5 51v-41q-50 -8 -72 -42t-24 -101q-3 -91 -2 -182.5t2 -183.5q2 -117 18 -168
t82 -68l74 -18q90 -21 111.5 -85.5t24.5 -186.5q2 -83 2.5 -135.5t0 -101t-2.5 -119.5q-3 -87 -34.5 -131t-97.5 -52zM387 1070q6 177 0 354q-2 65 -22 99t-66 43v41q65 -9 95 -52.5t33 -130.5q3 -127 0 -354h-40zM221 -8q-71 8 -104 52t-36 132q-2 78 -2.5 136t0 116.5
t2.5 137.5h40q-6 -195 0 -390q2 -67 25 -101t75 -42v-41zM225 -288l40 108h-54v100h100v-88l-42 -120h-44z" />
    <glyph glyph-name="uni0219" unicode="&#x219;" horiz-adv-x="514" 
d="M293 -8v40q49 7 69.5 37.5t22.5 100.5q2 48 3 98t-1 90q-3 99 -20.5 148.5t-77.5 71.5l-68 26q-57 22 -84 53.5t-36 85t-12 141.5q-1 39 0 72t2 72q3 86 29.5 129t96.5 51v-40q-48 -7 -66 -38t-20 -102q-1 -42 -2 -75t0 -69q3 -96 15.5 -153t78.5 -83l70 -26
q72 -27 104 -85.5t32 -178.5q0 -43 -0.5 -93.5t-3.5 -94.5q-5 -85 -33 -127.5t-99 -50.5zM381 820q3 63 2.5 113t-0.5 95q-1 71 -19.5 102t-66.5 38v40q71 -8 98 -51t28 -129q0 -42 0.5 -92.5t-2.5 -115.5h-40zM87 170q-1 44 -1 96t3 116h40q-3 -63 -2.5 -114t0.5 -98
q2 -70 20 -100.5t66 -37.5v-40q-70 8 -97 50.5t-29 127.5zM225 -288l40 108h-54v100h100v-88l-42 -120h-44z" />
    <glyph glyph-name="uni021A" unicode="&#x21a;" horiz-adv-x="428" 
d="M20 1560v40h388v-40h-388zM194 0v1520h40v-1520h-40zM182 -288l40 108h-54v100h100v-88l-42 -120h-44z" />
    <glyph glyph-name="uni021B" unicode="&#x21b;" horiz-adv-x="360" 
d="M58 1160v40h64v340h40v-1370q0 -82 17 -111t89 -29q32 0 46.5 2t35.5 6v-38q-43 -10 -86 -10q-90 0 -116 42t-26 138v990h-64zM222 1160v40h108v-40h-108zM222 -288l40 108h-54v100h100v-88l-42 -120h-44z" />
    <glyph glyph-name="uni022A" unicode="&#x22a;" horiz-adv-x="569" 
d="M244 -8q-71 9 -101.5 51t-32.5 127q-4 225 -5.5 427t0 404t5.5 427q2 86 32.5 128.5t101.5 51.5v-40q-52 -7 -73 -39t-23 -101q-5 -220 -6 -420.5t0.5 -404.5t5.5 -433q2 -67 23 -98.5t73 -39.5v-40zM324 -8v40q52 8 73.5 39.5t22.5 98.5q5 229 6 433t-1 404.5t-5 420.5
q-1 69 -23 100t-73 40v40q74 -7 106 -50t32 -130q2 -225 2.5 -427t0 -404t-2.5 -427q0 -85 -32 -127.5t-106 -50.5zM312 1680v60h60v-60h-60zM192 1680v60h60v-60h-60zM136 1860h292v-40h-292v40z" />
    <glyph glyph-name="uni022B" unicode="&#x22b;" horiz-adv-x="556" 
d="M102 170q-12 429 0 858q3 86 33.5 129t102.5 51v-40q-51 -7 -72.5 -38t-23.5 -102q-4 -127 -5.5 -230t-1.5 -199t1.5 -199t5.5 -230q2 -70 24.5 -100.5t71.5 -37.5v-40q-72 8 -102.5 50.5t-33.5 127.5zM318 -8v40q50 7 72 37.5t24 100.5q4 127 6 230t2 199t-2 199t-6 230
q-2 71 -23.5 102t-72.5 38v40q72 -8 102.5 -51t33.5 -129q12 -429 0 -858q-3 -85 -33.5 -127.5t-102.5 -50.5zM308 1280v60h60v-60h-60zM188 1280v60h60v-60h-60zM132 1460h292v-40h-292v40z" />
    <glyph glyph-name="uni022C" unicode="&#x22c;" horiz-adv-x="569" 
d="M244 -8q-71 9 -101.5 51t-32.5 127q-4 225 -5.5 427t0 404t5.5 427q2 86 32.5 128.5t101.5 51.5v-40q-52 -7 -73 -39t-23 -101q-5 -220 -6 -420.5t0.5 -404.5t5.5 -433q2 -67 23 -98.5t73 -39.5v-40zM324 -8v40q52 8 73.5 39.5t22.5 98.5q5 229 6 433t-1 404.5t-5 420.5
q-1 69 -23 100t-73 40v40q74 -7 106 -50t32 -130q2 -225 2.5 -427t0 -404t-2.5 -427q0 -85 -32 -127.5t-106 -50.5zM422 1754h38q3 -49 -28.5 -80.5t-81.5 -25.5q-31 4 -48.5 18.5t-33 29.5t-40.5 22q-22 6 -51.5 -5.5t-34.5 -58.5h-38q6 68 47.5 90.5t84.5 11.5
q31 -7 48.5 -23t32 -31t35.5 -18q33 -4 52.5 18t17.5 52zM128 1916h292v-40h-292v40z" />
    <glyph glyph-name="uni022D" unicode="&#x22d;" horiz-adv-x="556" 
d="M102 170q-12 429 0 858q3 86 33.5 129t102.5 51v-40q-51 -7 -72.5 -38t-23.5 -102q-4 -127 -5.5 -230t-1.5 -199t1.5 -199t5.5 -230q2 -70 24.5 -100.5t71.5 -37.5v-40q-72 8 -102.5 50.5t-33.5 127.5zM318 -8v40q50 7 72 37.5t24 100.5q4 127 6 230t2 199t-2 199t-6 230
q-2 71 -23.5 102t-72.5 38v40q72 -8 102.5 -51t33.5 -129q12 -429 0 -858q-3 -85 -33.5 -127.5t-102.5 -50.5zM418 1354h38q3 -49 -28.5 -80.5t-81.5 -25.5q-31 4 -48.5 18.5t-33 29.5t-40.5 22q-22 6 -51.5 -5.5t-34.5 -58.5h-38q6 68 47.5 90.5t84.5 11.5q31 -7 48.5 -23
t32 -31t35.5 -18q33 -4 52.5 18t17.5 52zM124 1516h292v-40h-292v40z" />
    <glyph glyph-name="uni0230" unicode="&#x230;" horiz-adv-x="569" 
d="M244 -8q-71 9 -101.5 51t-32.5 127q-4 225 -5.5 427t0 404t5.5 427q2 86 32.5 128.5t101.5 51.5v-40q-52 -7 -73 -39t-23 -101q-5 -220 -6 -420.5t0.5 -404.5t5.5 -433q2 -67 23 -98.5t73 -39.5v-40zM324 -8v40q52 8 73.5 39.5t22.5 98.5q5 229 6 433t-1 404.5t-5 420.5
q-1 69 -23 100t-73 40v40q74 -7 106 -50t32 -130q2 -225 2.5 -427t0 -404t-2.5 -427q0 -85 -32 -127.5t-106 -50.5zM252 1680v60h60v-60h-60zM136 1860h292v-40h-292v40z" />
    <glyph glyph-name="uni0231" unicode="&#x231;" horiz-adv-x="556" 
d="M102 170q-12 429 0 858q3 86 33.5 129t102.5 51v-40q-51 -7 -72.5 -38t-23.5 -102q-4 -127 -5.5 -230t-1.5 -199t1.5 -199t5.5 -230q2 -70 24.5 -100.5t71.5 -37.5v-40q-72 8 -102.5 50.5t-33.5 127.5zM318 -8v40q50 7 72 37.5t24 100.5q4 127 6 230t2 199t-2 199t-6 230
q-2 71 -23.5 102t-72.5 38v40q72 -8 102.5 -51t33.5 -129q12 -429 0 -858q-3 -85 -33.5 -127.5t-102.5 -50.5zM248 1280v60h60v-60h-60zM132 1460h292v-40h-292v40z" />
    <glyph glyph-name="uni0232" unicode="&#x232;" horiz-adv-x="492" 
d="M224 0v440l-174 1160h42l72 -488l66 -450h67l-33 -222v-440h-40zM270 702l60 410l72 488h40l-134 -898h-38zM98 1720h292v-40h-292v40z" />
    <glyph glyph-name="uni0233" unicode="&#x233;" horiz-adv-x="554" 
d="M262 0l-140 1200h44l68 -608l62 -552h63l-5 -40h-92zM328 100l56 492l68 608h44l-130 -1100h-38zM166 -398q-22 0 -54 3t-52 7v38q21 -4 46 -7t56 -3q71 0 92.5 30t33.5 112l24 168h38l-22 -168q-12 -96 -46.5 -138t-115.5 -42zM174 1320h292v-40h-292v40z" />
    <glyph glyph-name="uni0237" unicode="&#x237;" horiz-adv-x="278" 
d="M-4 -400q-22 0 -54 3t-52 7v38q37 -8 102 -8q72 0 99 29t27 111v1420h40v-1420q0 -96 -36 -138t-126 -42z" />
    <glyph glyph-name="uni0259" unicode="&#x259;" horiz-adv-x="541" 
d="M441 1030q9 -429 0 -858q-2 -86 -34 -128.5t-104 -51.5v41q51 8 73.5 41t24.5 98q2 127 3 229.5t1 198t-1 199t-3 231.5q-2 70 -24.5 101t-73.5 37v40q74 -8 105 -50.5t33 -127.5zM345 616v-40h-216q-3 -134 -3 -240.5t3 -163.5q4 -65 25.5 -98t68.5 -42v-40
q-68 9 -99 51t-35 129q-2 54 -3 166.5t5 277.5h254zM223 1208v-41q-49 -7 -70.5 -37.5t-23.5 -99.5q-2 -45 -1.5 -96.5t3.5 -115.5h-40q-3 64 -3.5 116t1.5 96q4 85 32 127.5t102 50.5z" />
    <glyph glyph-name="uni02B9" unicode="&#x2b9;" horiz-adv-x="290" 
d="M132 1276l-12 180v144h50v-144l-12 -180h-26z" />
    <glyph glyph-name="uni02BA" unicode="&#x2ba;" horiz-adv-x="430" 
d="M132 1276l-12 180v144h50v-144l-12 -180h-26zM272 1276l-12 180v144h50v-144l-12 -180h-26z" />
    <glyph glyph-name="uni02BB" unicode="&#x2bb;" horiz-adv-x="340" 
d="M206 1536l-40 -108h54v-100h-100v88l42 120h44z" />
    <glyph glyph-name="uni02BC" unicode="&#x2bc;" horiz-adv-x="290" 
d="M132 1276l-12 180v144h50v-144l-12 -180h-26z" />
    <glyph glyph-name="uni02BE" unicode="&#x2be;" horiz-adv-x="376" 
d="M120 1328v36q41 0 70.5 30t29.5 70q0 41 -29.5 70.5t-70.5 29.5v36q56 0 96 -40t40 -96q0 -55 -40 -95.5t-96 -40.5z" />
    <glyph glyph-name="uni02BF" unicode="&#x2bf;" horiz-adv-x="376" 
d="M256 1328q-55 0 -95.5 40.5t-40.5 95.5q0 56 40.5 96t95.5 40v-36q-40 0 -70 -29.5t-30 -70.5q0 -40 30 -70t70 -30v-36z" />
    <glyph glyph-name="circumflex" unicode="&#x2c6;" horiz-adv-x="502" 
d="M120 1280l110 198h42l110 -198h-46l-84 156l-86 -156h-46z" />
    <glyph glyph-name="caron" unicode="&#x2c7;" horiz-adv-x="502" 
d="M230 1280l-110 198h42l90 -160l88 160h42l-110 -198h-42z" />
    <glyph glyph-name="uni02C8" unicode="&#x2c8;" 
d="M120 1600h40v-744h-40v744z" />
    <glyph glyph-name="uni02C9" unicode="&#x2c9;" horiz-adv-x="612" 
d="M160 1320h292v-40h-292v40z" />
    <glyph glyph-name="uni02CA" unicode="&#x2ca;" horiz-adv-x="458" 
d="M166 1276l172 324h-50l-168 -324h46z" />
    <glyph glyph-name="uni02CB" unicode="&#x2cb;" horiz-adv-x="458" 
d="M292 1276l-172 324h50l168 -324h-46z" />
    <glyph glyph-name="uni02CC" unicode="&#x2cc;" 
d="M120 376h40v-776h-40v776z" />
    <glyph glyph-name="breve" unicode="&#x2d8;" horiz-adv-x="560" 
d="M280 1276q-84 0 -121 37.5t-39 124.5h40q2 -69 27.5 -96.5t92.5 -27.5q68 0 93.5 27.5t26.5 96.5h40q-1 -87 -38.5 -124.5t-121.5 -37.5z" />
    <glyph glyph-name="dotaccent" unicode="&#x2d9;" horiz-adv-x="340" 
d="M80 1280v60h60v-60h-60z" />
    <glyph glyph-name="ring" unicode="&#x2da;" horiz-adv-x="512" 
d="M212 1276q-37 0 -64.5 26.5t-27.5 65.5q0 38 27.5 65t64.5 27q38 0 65 -27t27 -65q0 -39 -27 -65.5t-65 -26.5zM212 1314q23 0 38.5 16t15.5 38q0 23 -15.5 38.5t-38.5 15.5q-22 0 -38 -15.5t-16 -38.5q0 -22 16 -38t38 -16z" />
    <glyph glyph-name="ogonek" unicode="&#x2db;" horiz-adv-x="396" 
d="M232 -224h-54q-116 0 -94 110l24 114h40l-24 -114q-15 -74 54 -74h54v-36z" />
    <glyph glyph-name="tilde" unicode="&#x2dc;" horiz-adv-x="596" 
d="M438 1354h38q3 -49 -28.5 -80.5t-81.5 -25.5q-31 4 -48.5 18.5t-33 29.5t-40.5 22q-22 6 -51.5 -5.5t-34.5 -58.5h-38q6 68 47.5 90.5t84.5 11.5q31 -7 48.5 -23t32 -31t35.5 -18q33 -4 52.5 18t17.5 52z" />
    <glyph glyph-name="hungarumlaut" unicode="&#x2dd;" horiz-adv-x="566" 
d="M120 1280l110 198h42l-110 -198h-42zM240 1280l110 198h42l-110 -198h-42z" />
    <glyph glyph-name="gravecomb" unicode="&#x300;" horiz-adv-x="0" 
d="M230 1280l-110 198h42l110 -198h-42z" />
    <glyph glyph-name="acutecomb" unicode="&#x301;" horiz-adv-x="0" 
d="M120 1280l110 198h42l-110 -198h-42z" />
    <glyph glyph-name="uni0302" unicode="&#x302;" horiz-adv-x="0" 
d="M120 1280l110 198h42l110 -198h-46l-84 156l-86 -156h-46z" />
    <glyph glyph-name="tildecomb" unicode="&#x303;" horiz-adv-x="0" 
d="M438 1354h38q3 -49 -28.5 -80.5t-81.5 -25.5q-31 4 -48.5 18.5t-33 29.5t-40.5 22q-22 6 -51.5 -5.5t-34.5 -58.5h-38q6 68 47.5 90.5t84.5 11.5q31 -7 48.5 -23t32 -31t35.5 -18q33 -4 52.5 18t17.5 52z" />
    <glyph glyph-name="uni0304" unicode="&#x304;" horiz-adv-x="0" 
d="M160 1320h292v-40h-292v40z" />
    <glyph glyph-name="uni0306" unicode="&#x306;" horiz-adv-x="0" 
d="M280 1276q-84 0 -121 37.5t-39 124.5h40q2 -69 27.5 -96.5t92.5 -27.5q68 0 93.5 27.5t26.5 96.5h40q-1 -87 -38.5 -124.5t-121.5 -37.5z" />
    <glyph glyph-name="uni0307" unicode="&#x307;" horiz-adv-x="0" 
d="M80 1280v60h60v-60h-60z" />
    <glyph glyph-name="uni0308" unicode="&#x308;" horiz-adv-x="0" 
d="M270 1280v60h60v-60h-60zM150 1280v60h60v-60h-60z" />
    <glyph glyph-name="hookabovecomb" unicode="&#x309;" horiz-adv-x="0" 
d="M125 1280l13 64q8 38 -38 38h-40v32h40q88 0 74 -70l-13 -64h-36z" />
    <glyph glyph-name="uni030A" unicode="&#x30a;" horiz-adv-x="0" 
d="M212 1276q-37 0 -64.5 26.5t-27.5 65.5q0 38 27.5 65t64.5 27q38 0 65 -27t27 -65q0 -39 -27 -65.5t-65 -26.5zM212 1314q23 0 38.5 16t15.5 38q0 23 -15.5 38.5t-38.5 15.5q-22 0 -38 -15.5t-16 -38.5q0 -22 16 -38t38 -16z" />
    <glyph glyph-name="uni030B" unicode="&#x30b;" horiz-adv-x="0" 
d="M120 1280l110 198h42l-110 -198h-42zM240 1280l110 198h42l-110 -198h-42z" />
    <glyph glyph-name="uni030C" unicode="&#x30c;" horiz-adv-x="0" 
d="M230 1280l-110 198h42l90 -160l88 160h42l-110 -198h-42z" />
    <glyph glyph-name="uni030F" unicode="&#x30f;" horiz-adv-x="0" 
d="M238 1280l-118 196h48l118 -196h-48zM398 1280l-118 196h48l118 -196h-48z" />
    <glyph glyph-name="uni0311" unicode="&#x311;" horiz-adv-x="0" 
d="M280 1418q-84 0 -121 -37.5t-39 -124.5h40q2 69 27.5 96.5t92.5 27.5q68 0 93.5 -27.5t26.5 -96.5h40q-1 87 -38.5 124.5t-121.5 37.5z" />
    <glyph glyph-name="uni0312" unicode="&#x312;" horiz-adv-x="0" 
d="M206 1536l-40 -108h54v-100h-100v88l42 120h44z" />
    <glyph glyph-name="uni031B" unicode="&#x31b;" horiz-adv-x="0" 
d="M142 918q-6 0 -11 1.5t-11 2.5v38q8 -2 22 -2q68 0 92.5 26.5t27.5 95.5q3 60 0 120h40q3 -60 0 -120q-4 -87 -40 -124.5t-120 -37.5z" />
    <glyph glyph-name="dotbelowcomb" unicode="&#x323;" horiz-adv-x="0" 
d="M140 -140v60h60v-60h-60z" />
    <glyph glyph-name="uni0324" unicode="&#x324;" horiz-adv-x="0" 
d="M270 -140v60h60v-60h-60zM150 -140v60h60v-60h-60z" />
    <glyph glyph-name="uni0326" unicode="&#x326;" horiz-adv-x="0" 
d="M134 -288l40 108h-54v100h100v-88l-42 -120h-44z" />
    <glyph glyph-name="uni0327" unicode="&#x327;" horiz-adv-x="0" 
d="M80 -224v36h54q69 0 54 74l-24 114h40l24 -114q22 -110 -94 -110h-54z" />
    <glyph glyph-name="uni0328" unicode="&#x328;" horiz-adv-x="0" 
d="M232 -224h-54q-116 0 -94 110l24 114h40l-24 -114q-15 -74 54 -74h54v-36z" />
    <glyph glyph-name="uni032E" unicode="&#x32e;" horiz-adv-x="0" 
d="M280 -244q-84 0 -121 37.5t-39 124.5h40q2 -69 27.5 -96.5t92.5 -27.5q68 0 93.5 27.5t26.5 96.5h40q-1 -87 -38.5 -124.5t-121.5 -37.5z" />
    <glyph glyph-name="uni0331" unicode="&#x331;" horiz-adv-x="0" 
d="M160 -100h292v-40h-292v40z" />
    <glyph glyph-name="uni0335" unicode="&#x335;" horiz-adv-x="0" 
d="M120 820h240v-40h-240v40z" />
    <glyph glyph-name="pi" unicode="&#x3c0;" horiz-adv-x="858" 
d="M120 1160v40h570v-40h-570zM738 0q-43 -10 -86 -10q-90 0 -115 42t-27 138q-1 65 -1.5 98.5t-0.5 59t0.5 63t0.5 109.5t0.5 198t0.5 330v52h40v-52q0 -162 -1 -294.5t-1.5 -266t2.5 -297.5q2 -82 18 -111t88 -29q32 0 46.5 2t35.5 6v-38zM244 0v1080h40v-1080h-40z" />
    <glyph glyph-name="uni1E08" unicode="&#x1e08;" horiz-adv-x="548" 
d="M244 -10q-70 8 -101 51.5t-33 132.5q-3 173 -4.5 326t-1.5 299t1.5 298.5t4.5 324.5q2 91 33 134t101 50v-40q-51 -6 -71.5 -39t-22.5 -105q-3 -172 -4.5 -324.5t-1.5 -298.5t1.5 -299t4.5 -326q2 -70 22.5 -103.5t71.5 -40.5v-40zM414 1068q3 177 0 354q-1 68 -21 101
t-69 41v41q66 -10 97 -54t33 -129q1 -41 1.5 -109t0 -136t-1.5 -109h-40zM324 -9v40q53 8 75 41.5t23 101.5q2 98 1 195.5t-3 194.5h40q3 -105 4 -195t-2 -195q-2 -86 -34.5 -130t-103.5 -53zM176 -264v36h54q69 0 54 74l-24 114h40l24 -114q22 -110 -94 -110h-54zM252 1680
l110 198h42l-110 -198h-42z" />
    <glyph glyph-name="uni1E09" unicode="&#x1e09;" horiz-adv-x="535" 
d="M100 170q-9 429 0 858q2 86 33 129t103 51v-40q-50 -7 -72 -38t-24 -102q-2 -127 -3 -230t-1 -199t1 -199t3 -230q2 -70 24 -100.5t72 -37.5v-40q-72 8 -103 50.5t-33 127.5zM410 820q3 63 2.5 113t-0.5 95q0 71 -23 102t-73 38v40q73 -8 104.5 -51t31.5 -129
q0 -42 0.5 -92.5t-2.5 -115.5h-40zM316 -8v40q50 7 73 37.5t23 100.5q0 47 0.5 98t-2.5 114h40q3 -64 3.5 -116t-1.5 -96q-3 -85 -33.5 -127.5t-102.5 -50.5zM254 1280l110 198h42l-110 -198h-42zM176 -264v36h54q69 0 54 74l-24 114h40l24 -114q22 -110 -94 -110h-54z" />
    <glyph glyph-name="uni1E0C" unicode="&#x1e0c;" horiz-adv-x="572" 
d="M120 0v1600h40v-1600h-40zM240 0v40h50q72 0 102.5 34t31.5 112q6 614 0 1228q-1 78 -31 112t-101 34h-52v40h52q90 0 130.5 -43.5t41.5 -142.5q3 -220 4 -417.5t0 -394.5t-4 -416q-1 -99 -41.5 -142.5t-132.5 -43.5h-50zM260 -140v60h60v-60h-60z" />
    <glyph glyph-name="uni1E0D" unicode="&#x1e0d;" horiz-adv-x="569" 
d="M409 0v1600h40v-1600h-40zM99 172q-2 143 -2.5 277.5t0 275.5t2.5 303q2 98 37 140t113 42q47 0 80 -18v-39q-31 17 -80 17q-57 0 -82.5 -32.5t-27.5 -109.5q-2 -165 -2.5 -306.5t0 -275t2.5 -274.5q2 -76 26.5 -109t81.5 -33q49 0 82 18v-37q-33 -21 -82 -21
q-78 0 -112 42.5t-36 139.5zM243 -140v60h60v-60h-60z" />
    <glyph glyph-name="uni1E0E" unicode="&#x1e0e;" horiz-adv-x="572" 
d="M120 0v1600h40v-1600h-40zM240 0v40h50q72 0 102.5 34t31.5 112q6 614 0 1228q-1 78 -31 112t-101 34h-52v40h52q90 0 130.5 -43.5t41.5 -142.5q3 -220 4 -417.5t0 -394.5t-4 -416q-1 -99 -41.5 -142.5t-132.5 -43.5h-50zM144 -100h292v-40h-292v40z" />
    <glyph glyph-name="uni1E0F" unicode="&#x1e0f;" horiz-adv-x="569" 
d="M409 0v1600h40v-1600h-40zM99 172q-2 143 -2.5 277.5t0 275.5t2.5 303q2 98 37 140t113 42q47 0 80 -18v-39q-31 17 -80 17q-57 0 -82.5 -32.5t-27.5 -109.5q-2 -165 -2.5 -306.5t0 -275t2.5 -274.5q2 -76 26.5 -109t81.5 -33q49 0 82 18v-37q-33 -21 -82 -21
q-78 0 -112 42.5t-36 139.5zM127 -100h292v-40h-292v40z" />
    <glyph glyph-name="uni1E14" unicode="&#x1e14;" horiz-adv-x="488" 
d="M120 0v1600h40v-1600h-40zM240 1560v40h198v-40h-198zM240 780v40h178v-40h-178zM240 0v40h198v-40h-198zM124 1720h292v-40h-292v40zM248 1800l-110 198h42l110 -198h-42z" />
    <glyph glyph-name="uni1E15" unicode="&#x1e15;" horiz-adv-x="541" 
d="M100 170q-9 429 0 858q2 86 34 128.5t104 51.5v-41q-51 -8 -73.5 -41t-24.5 -98q-2 -127 -3 -229.5t-1 -198t1 -199t3 -231.5q2 -70 24.5 -101t73.5 -37v-40q-74 8 -105 50.5t-33 127.5zM196 584v40h216q3 134 3 240.5t-3 163.5q-4 65 -25.5 98t-68.5 42v40q68 -9 99 -51
t35 -129q2 -54 3 -166.5t-5 -277.5h-254zM318 -8v41q49 7 70.5 37.5t23.5 99.5q2 45 1.5 96.5t-3.5 115.5h40q3 -64 3.5 -116t-1.5 -96q-4 -85 -32 -127.5t-102 -50.5zM130 1320h292v-40h-292v40zM254 1400l-110 198h42l110 -198h-42z" />
    <glyph glyph-name="uni1E16" unicode="&#x1e16;" horiz-adv-x="488" 
d="M120 0v1600h40v-1600h-40zM240 1560v40h198v-40h-198zM240 780v40h178v-40h-178zM240 0v40h198v-40h-198zM124 1720h292v-40h-292v40zM248 1800l110 198h42l-110 -198h-42z" />
    <glyph glyph-name="uni1E17" unicode="&#x1e17;" horiz-adv-x="541" 
d="M100 170q-9 429 0 858q2 86 34 128.5t104 51.5v-41q-51 -8 -73.5 -41t-24.5 -98q-2 -127 -3 -229.5t-1 -198t1 -199t3 -231.5q2 -70 24.5 -101t73.5 -37v-40q-74 8 -105 50.5t-33 127.5zM196 584v40h216q3 134 3 240.5t-3 163.5q-4 65 -25.5 98t-68.5 42v40q68 -9 99 -51
t35 -129q2 -54 3 -166.5t-5 -277.5h-254zM318 -8v41q49 7 70.5 37.5t23.5 99.5q2 45 1.5 96.5t-3.5 115.5h40q3 -64 3.5 -116t-1.5 -96q-4 -85 -32 -127.5t-102 -50.5zM130 1320h292v-40h-292v40zM254 1400l110 198h42l-110 -198h-42z" />
    <glyph glyph-name="uni1E1C" unicode="&#x1e1c;" horiz-adv-x="488" 
d="M120 0v1600h40v-1600h-40zM240 1560v40h198v-40h-198zM240 780v40h178v-40h-178zM240 0v40h198v-40h-198zM270 1676q-84 0 -121 37.5t-39 124.5h40q2 -69 27.5 -96.5t92.5 -27.5q68 0 93.5 27.5t26.5 96.5h40q-1 -87 -38.5 -124.5t-121.5 -37.5zM176 -264v36h54
q69 0 54 74l-24 114h40l24 -114q22 -110 -94 -110h-54z" />
    <glyph glyph-name="uni1E1D" unicode="&#x1e1d;" horiz-adv-x="541" 
d="M100 170q-9 429 0 858q2 86 34 128.5t104 51.5v-41q-51 -8 -73.5 -41t-24.5 -98q-2 -127 -3 -229.5t-1 -198t1 -199t3 -231.5q2 -70 24.5 -101t73.5 -37v-40q-74 8 -105 50.5t-33 127.5zM196 584v40h216q3 134 3 240.5t-3 163.5q-4 65 -25.5 98t-68.5 42v40q68 -9 99 -51
t35 -129q2 -54 3 -166.5t-5 -277.5h-254zM318 -8v41q49 7 70.5 37.5t23.5 99.5q2 45 1.5 96.5t-3.5 115.5h40q3 -64 3.5 -116t-1.5 -96q-4 -85 -32 -127.5t-102 -50.5zM276 1276q-84 0 -121 37.5t-39 124.5h40q2 -69 27.5 -96.5t92.5 -27.5q68 0 93.5 27.5t26.5 96.5h40
q-1 -87 -38.5 -124.5t-121.5 -37.5zM176 -264v36h54q69 0 54 74l-24 114h40l24 -114q22 -110 -94 -110h-54z" />
    <glyph glyph-name="uni1E20" unicode="&#x1e20;" horiz-adv-x="545" 
d="M240 -7q-69 9 -99.5 52.5t-32.5 130.5q-3 223 -4 423.5t0 401t4 423.5q2 87 33 131t99 53v-41q-89 -17 -92 -143q-2 -223 -2.5 -423.5t0 -401t2.5 -423.5q0 -126 92 -143v-40zM412 1070q3 95 3 177.5t-3 176.5q-4 126 -92 143v41q67 -9 98 -53t34 -131q3 -94 3 -176.5
t-3 -177.5h-40zM320 -8v41q97 14 100 143q2 107 2 199.5t-2 198.5h-146v40h186q2 -69 2 -170t-2 -268q-1 -88 -34 -132t-106 -52zM128 1720h292v-40h-292v40z" />
    <glyph glyph-name="uni1E21" unicode="&#x1e21;" horiz-adv-x="597" 
d="M247 -280q-78 5 -127 40t-49 120v28q0 63 38 94t74 38v16q-70 35 -70 96v16q0 39 22 65.5t44 30.5v18q-65 37 -68 158q-2 85 -3 150.5t-1 128.5t1 136t3 173q2 86 33 129t103 51v-40q-51 -7 -72.5 -38t-23.5 -102q-9 -306 0 -588q2 -70 24.5 -100.5t71.5 -37.5v-44
q-43 -7 -68.5 -30.5t-25.5 -59.5v-16q0 -67 94 -80v-40q-58 0 -97 -25t-39 -99v-30q0 -70 39 -93t97 -26v-39zM327 262v40q50 7 72 37.5t24 100.5q9 282 0 588q-2 71 -23.5 102t-72.5 38v40q106 -12 128 -102h16q0 41 32 67.5t72 26.5v-40h-14q-42 0 -69 -45.5t-27 -132.5
v-46q0 -100 1 -174.5t0.5 -148.5t-3.5 -173q-3 -85 -33.5 -127.5t-102.5 -50.5zM327 -279v38q58 3 97 26t39 93v30q0 74 -38.5 94t-97.5 25v38q82 -8 129 -39t47 -118v-28q0 -85 -48.5 -119.5t-127.5 -39.5zM141 1320h292v-40h-292v40z" />
    <glyph glyph-name="uni1E24" unicode="&#x1e24;" horiz-adv-x="600" 
d="M120 0v1600h40v-780h220l-10 -40h-210v-780h-40zM440 0v1600h40v-1600h-40zM270 -140v60h60v-60h-60z" />
    <glyph glyph-name="uni1E25" unicode="&#x1e25;" horiz-adv-x="586" 
d="M120 0v1600h40v-1600h-40zM430 0v1028q0 77 -25.5 109.5t-82.5 32.5q-49 0 -82 -18v39q32 19 82 19q78 0 113 -42t35 -140v-1028h-40zM268 -140v60h60v-60h-60z" />
    <glyph glyph-name="uni1E2A" unicode="&#x1e2a;" horiz-adv-x="600" 
d="M120 0v1600h40v-780h220l-10 -40h-210v-780h-40zM440 0v1600h40v-1600h-40zM300 -244q-84 0 -121 37.5t-39 124.5h40q2 -69 27.5 -96.5t92.5 -27.5q68 0 93.5 27.5t26.5 96.5h40q-1 -87 -38.5 -124.5t-121.5 -37.5z" />
    <glyph glyph-name="uni1E2B" unicode="&#x1e2b;" horiz-adv-x="586" 
d="M120 0v1600h40v-1600h-40zM430 0v1028q0 77 -25.5 109.5t-82.5 32.5q-49 0 -82 -18v39q32 19 82 19q78 0 113 -42t35 -140v-1028h-40zM298 -244q-84 0 -121 37.5t-39 124.5h40q2 -69 27.5 -96.5t92.5 -27.5q68 0 93.5 27.5t26.5 96.5h40q-1 -87 -38.5 -124.5
t-121.5 -37.5z" />
    <glyph glyph-name="uni1E2E" unicode="&#x1e2e;" 
d="M120 0v1600h40v-1600h-40zM170 1680v60h60v-60h-60zM50 1680v60h60v-60h-60zM118 1820l110 198h42l-110 -198h-42z" />
    <glyph glyph-name="uni1E2F" unicode="&#x1e2f;" 
d="M120 0v1200h40v-1200h-40zM170 1280v60h60v-60h-60zM50 1280v60h60v-60h-60zM118 1420l110 198h42l-110 -198h-42z" />
    <glyph glyph-name="uni1E36" unicode="&#x1e36;" horiz-adv-x="450" 
d="M120 0v1600h40v-1600h-40zM240 0v40h198v-40h-198zM252 -140v60h60v-60h-60z" />
    <glyph glyph-name="uni1E37" unicode="&#x1e37;" 
d="M120 0v1600h40v-1600h-40zM110 -140v60h60v-60h-60z" />
    <glyph glyph-name="uni1E3A" unicode="&#x1e3a;" horiz-adv-x="450" 
d="M120 0v1600h40v-1600h-40zM240 0v40h198v-40h-198zM136 -100h292v-40h-292v40z" />
    <glyph glyph-name="uni1E3B" unicode="&#x1e3b;" 
d="M120 0v1600h40v-1600h-40zM-6 -100h292v-40h-292v40z" />
    <glyph glyph-name="uni1E42" unicode="&#x1e42;" horiz-adv-x="814" 
d="M358 10l-44 442l-118 1108h-76v40h112l76 -682l86 -868h26l86 868l76 682h112v-40h-76l-118 -1108l-44 -442h-98zM120 0v1500h40v-1500h-40zM654 0v1500h40v-1500h-40zM378 -140v60h60v-60h-60z" />
    <glyph glyph-name="uni1E43" unicode="&#x1e43;" horiz-adv-x="896" 
d="M740 0v1028q-1 77 -26 109.5t-82 32.5q-49 0 -82 -18v41q33 17 82 17q78 0 112.5 -42t35.5 -140v-1028h-40zM430 0v1028q-1 77 -26 109.5t-82 32.5q-49 0 -82 -18v40q33 18 82 18q78 0 112.5 -42t35.5 -140v-1028h-40zM120 0v1200h40v-1200h-40zM422 -140v60h60v-60h-60z
" />
    <glyph glyph-name="uni1E44" unicode="&#x1e44;" horiz-adv-x="650" 
d="M418 0l-86 600l-136 960h-76v40h110l72 -504l152 -1056h76v-40h-112zM490 100v1500h40v-1500h-40zM120 0v1500h40v-1500h-40zM306 1680v60h60v-60h-60z" />
    <glyph glyph-name="uni1E45" unicode="&#x1e45;" horiz-adv-x="586" 
d="M430 0v1028q-1 77 -26 109.5t-82 32.5q-45 0 -82 -23v40q35 23 82 23q78 0 112.5 -42t35.5 -140v-1028h-40zM120 0v1200h40v-1200h-40zM268 1280v60h60v-60h-60z" />
    <glyph glyph-name="uni1E46" unicode="&#x1e46;" horiz-adv-x="650" 
d="M418 0l-86 600l-136 960h-76v40h110l72 -504l152 -1056h76v-40h-112zM490 100v1500h40v-1500h-40zM120 0v1500h40v-1500h-40zM292 -140v60h60v-60h-60z" />
    <glyph glyph-name="uni1E47" unicode="&#x1e47;" horiz-adv-x="586" 
d="M430 0v1028q-1 77 -26 109.5t-82 32.5q-45 0 -82 -23v40q35 23 82 23q78 0 112.5 -42t35.5 -140v-1028h-40zM120 0v1200h40v-1200h-40zM268 -140v60h60v-60h-60z" />
    <glyph glyph-name="uni1E48" unicode="&#x1e48;" horiz-adv-x="650" 
d="M418 0l-86 600l-136 960h-76v40h110l72 -504l152 -1056h76v-40h-112zM490 100v1500h40v-1500h-40zM120 0v1500h40v-1500h-40zM176 -100h292v-40h-292v40z" />
    <glyph glyph-name="uni1E49" unicode="&#x1e49;" horiz-adv-x="586" 
d="M430 0v1028q-1 77 -26 109.5t-82 32.5q-45 0 -82 -23v40q35 23 82 23q78 0 112.5 -42t35.5 -140v-1028h-40zM120 0v1200h40v-1200h-40zM152 -100h292v-40h-292v40z" />
    <glyph glyph-name="uni1E4C" unicode="&#x1e4c;" horiz-adv-x="569" 
d="M244 -8q-71 9 -101.5 51t-32.5 127q-4 225 -5.5 427t0 404t5.5 427q2 86 32.5 128.5t101.5 51.5v-40q-52 -7 -73 -39t-23 -101q-5 -220 -6 -420.5t0.5 -404.5t5.5 -433q2 -67 23 -98.5t73 -39.5v-40zM324 -8v40q52 8 73.5 39.5t22.5 98.5q5 229 6 433t-1 404.5t-5 420.5
q-1 69 -23 100t-73 40v40q74 -7 106 -50t32 -130q2 -225 2.5 -427t0 -404t-2.5 -427q0 -85 -32 -127.5t-106 -50.5zM422 1754h38q3 -49 -28.5 -80.5t-81.5 -25.5q-31 4 -48.5 18.5t-33 29.5t-40.5 22q-22 6 -51.5 -5.5t-34.5 -58.5h-38q6 68 47.5 90.5t84.5 11.5
q31 -7 48.5 -23t32 -31t35.5 -18q33 -4 52.5 18t17.5 52zM252 1876l110 198h42l-110 -198h-42z" />
    <glyph glyph-name="uni1E4D" unicode="&#x1e4d;" horiz-adv-x="556" 
d="M102 170q-12 429 0 858q3 86 33.5 129t102.5 51v-40q-51 -7 -72.5 -38t-23.5 -102q-4 -127 -5.5 -230t-1.5 -199t1.5 -199t5.5 -230q2 -70 24.5 -100.5t71.5 -37.5v-40q-72 8 -102.5 50.5t-33.5 127.5zM318 -8v40q50 7 72 37.5t24 100.5q4 127 6 230t2 199t-2 199t-6 230
q-2 71 -23.5 102t-72.5 38v40q72 -8 102.5 -51t33.5 -129q12 -429 0 -858q-3 -85 -33.5 -127.5t-102.5 -50.5zM418 1354h38q3 -49 -28.5 -80.5t-81.5 -25.5q-31 4 -48.5 18.5t-33 29.5t-40.5 22q-22 6 -51.5 -5.5t-34.5 -58.5h-38q6 68 47.5 90.5t84.5 11.5q31 -7 48.5 -23
t32 -31t35.5 -18q33 -4 52.5 18t17.5 52zM248 1476l110 198h42l-110 -198h-42z" />
    <glyph glyph-name="uni1E4E" unicode="&#x1e4e;" horiz-adv-x="569" 
d="M244 -8q-71 9 -101.5 51t-32.5 127q-4 225 -5.5 427t0 404t5.5 427q2 86 32.5 128.5t101.5 51.5v-40q-52 -7 -73 -39t-23 -101q-5 -220 -6 -420.5t0.5 -404.5t5.5 -433q2 -67 23 -98.5t73 -39.5v-40zM324 -8v40q52 8 73.5 39.5t22.5 98.5q5 229 6 433t-1 404.5t-5 420.5
q-1 69 -23 100t-73 40v40q74 -7 106 -50t32 -130q2 -225 2.5 -427t0 -404t-2.5 -427q0 -85 -32 -127.5t-106 -50.5zM422 1754h38q3 -49 -28.5 -80.5t-81.5 -25.5q-31 4 -48.5 18.5t-33 29.5t-40.5 22q-22 6 -51.5 -5.5t-34.5 -58.5h-38q6 68 47.5 90.5t84.5 11.5
q31 -7 48.5 -23t32 -31t35.5 -18q33 -4 52.5 18t17.5 52zM304 1876v60h60v-60h-60zM184 1876v60h60v-60h-60z" />
    <glyph glyph-name="uni1E4F" unicode="&#x1e4f;" horiz-adv-x="556" 
d="M102 170q-12 429 0 858q3 86 33.5 129t102.5 51v-40q-51 -7 -72.5 -38t-23.5 -102q-4 -127 -5.5 -230t-1.5 -199t1.5 -199t5.5 -230q2 -70 24.5 -100.5t71.5 -37.5v-40q-72 8 -102.5 50.5t-33.5 127.5zM318 -8v40q50 7 72 37.5t24 100.5q4 127 6 230t2 199t-2 199t-6 230
q-2 71 -23.5 102t-72.5 38v40q72 -8 102.5 -51t33.5 -129q12 -429 0 -858q-3 -85 -33.5 -127.5t-102.5 -50.5zM418 1354h38q3 -49 -28.5 -80.5t-81.5 -25.5q-31 4 -48.5 18.5t-33 29.5t-40.5 22q-22 6 -51.5 -5.5t-34.5 -58.5h-38q6 68 47.5 90.5t84.5 11.5q31 -7 48.5 -23
t32 -31t35.5 -18q33 -4 52.5 18t17.5 52zM300 1476v60h60v-60h-60zM180 1476v60h60v-60h-60z" />
    <glyph glyph-name="uni1E50" unicode="&#x1e50;" horiz-adv-x="569" 
d="M244 -8q-71 9 -101.5 51t-32.5 127q-4 225 -5.5 427t0 404t5.5 427q2 86 32.5 128.5t101.5 51.5v-40q-52 -7 -73 -39t-23 -101q-5 -220 -6 -420.5t0.5 -404.5t5.5 -433q2 -67 23 -98.5t73 -39.5v-40zM324 -8v40q52 8 73.5 39.5t22.5 98.5q5 229 6 433t-1 404.5t-5 420.5
q-1 69 -23 100t-73 40v40q74 -7 106 -50t32 -130q2 -225 2.5 -427t0 -404t-2.5 -427q0 -85 -32 -127.5t-106 -50.5zM136 1720h292v-40h-292v40zM260 1800l-110 198h42l110 -198h-42z" />
    <glyph glyph-name="uni1E51" unicode="&#x1e51;" horiz-adv-x="556" 
d="M102 170q-12 429 0 858q3 86 33.5 129t102.5 51v-40q-51 -7 -72.5 -38t-23.5 -102q-4 -127 -5.5 -230t-1.5 -199t1.5 -199t5.5 -230q2 -70 24.5 -100.5t71.5 -37.5v-40q-72 8 -102.5 50.5t-33.5 127.5zM318 -8v40q50 7 72 37.5t24 100.5q4 127 6 230t2 199t-2 199t-6 230
q-2 71 -23.5 102t-72.5 38v40q72 -8 102.5 -51t33.5 -129q12 -429 0 -858q-3 -85 -33.5 -127.5t-102.5 -50.5zM132 1320h292v-40h-292v40zM256 1400l-110 198h42l110 -198h-42z" />
    <glyph glyph-name="uni1E52" unicode="&#x1e52;" horiz-adv-x="569" 
d="M244 -8q-71 9 -101.5 51t-32.5 127q-4 225 -5.5 427t0 404t5.5 427q2 86 32.5 128.5t101.5 51.5v-40q-52 -7 -73 -39t-23 -101q-5 -220 -6 -420.5t0.5 -404.5t5.5 -433q2 -67 23 -98.5t73 -39.5v-40zM324 -8v40q52 8 73.5 39.5t22.5 98.5q5 229 6 433t-1 404.5t-5 420.5
q-1 69 -23 100t-73 40v40q74 -7 106 -50t32 -130q2 -225 2.5 -427t0 -404t-2.5 -427q0 -85 -32 -127.5t-106 -50.5zM136 1720h292v-40h-292v40zM260 1800l110 198h42l-110 -198h-42z" />
    <glyph glyph-name="uni1E53" unicode="&#x1e53;" horiz-adv-x="556" 
d="M102 170q-12 429 0 858q3 86 33.5 129t102.5 51v-40q-51 -7 -72.5 -38t-23.5 -102q-4 -127 -5.5 -230t-1.5 -199t1.5 -199t5.5 -230q2 -70 24.5 -100.5t71.5 -37.5v-40q-72 8 -102.5 50.5t-33.5 127.5zM318 -8v40q50 7 72 37.5t24 100.5q4 127 6 230t2 199t-2 199t-6 230
q-2 71 -23.5 102t-72.5 38v40q72 -8 102.5 -51t33.5 -129q12 -429 0 -858q-3 -85 -33.5 -127.5t-102.5 -50.5zM132 1320h292v-40h-292v40zM256 1400l110 198h42l-110 -198h-42z" />
    <glyph glyph-name="uni1E5A" unicode="&#x1e5a;" horiz-adv-x="549" 
d="M448 0l-144 650h-84v40h62q71 0 101 34t33 112q9 289 0 578q-3 78 -33 112t-99 34h-44v40h44q87 0 127.5 -43.5t44.5 -142.5q12 -325 0 -578q-6 -152 -110 -178l146 -658h-44zM120 0v1600h40v-1600h-40zM264 -140v60h60v-60h-60z" />
    <glyph glyph-name="uni1E5B" unicode="&#x1e5b;" horiz-adv-x="390" 
d="M120 0v1200h40v-1200h-40zM240 1146v40q29 14 80 14h50v-40h-50q-49 0 -80 -14zM111 -140v60h60v-60h-60z" />
    <glyph glyph-name="uni1E5E" unicode="&#x1e5e;" horiz-adv-x="549" 
d="M448 0l-144 650h-84v40h62q71 0 101 34t33 112q9 289 0 578q-3 78 -33 112t-99 34h-44v40h44q87 0 127.5 -43.5t44.5 -142.5q12 -325 0 -578q-6 -152 -110 -178l146 -658h-44zM120 0v1600h40v-1600h-40zM148 -100h292v-40h-292v40z" />
    <glyph glyph-name="uni1E5F" unicode="&#x1e5f;" horiz-adv-x="390" 
d="M120 0v1200h40v-1200h-40zM240 1146v40q29 14 80 14h50v-40h-50q-49 0 -80 -14zM-5 -100h292v-40h-292v40z" />
    <glyph glyph-name="uni1E60" unicode="&#x1e60;" horiz-adv-x="512" 
d="M301 -7v40q48 9 69 43.5t23 99.5q2 69 2.5 119.5t-0.5 104t-2 132.5q-1 93 -18 152.5t-80 75.5l-72 18q-62 15 -91.5 47t-39 88.5t-11.5 144.5q-1 77 0.5 177t1.5 191q0 88 31.5 131t104.5 51v-41q-50 -8 -72 -42t-24 -101q-3 -91 -2 -182.5t2 -183.5q2 -117 18 -168
t82 -68l74 -18q90 -21 111.5 -85.5t24.5 -186.5q2 -83 2.5 -135.5t0 -101t-2.5 -119.5q-3 -87 -34.5 -131t-97.5 -52zM387 1070q6 177 0 354q-2 65 -22 99t-66 43v41q65 -9 95 -52.5t33 -130.5q3 -127 0 -354h-40zM221 -8q-71 8 -104 52t-36 132q-2 78 -2.5 136t0 116.5
t2.5 137.5h40q-6 -195 0 -390q2 -67 25 -101t75 -42v-41zM227 1680v60h60v-60h-60z" />
    <glyph glyph-name="uni1E61" unicode="&#x1e61;" horiz-adv-x="514" 
d="M293 -8v40q49 7 69.5 37.5t22.5 100.5q2 48 3 98t-1 90q-3 99 -20.5 148.5t-77.5 71.5l-68 26q-57 22 -84 53.5t-36 85t-12 141.5q-1 39 0 72t2 72q3 86 29.5 129t96.5 51v-40q-48 -7 -66 -38t-20 -102q-1 -42 -2 -75t0 -69q3 -96 15.5 -153t78.5 -83l70 -26
q72 -27 104 -85.5t32 -178.5q0 -43 -0.5 -93.5t-3.5 -94.5q-5 -85 -33 -127.5t-99 -50.5zM381 820q3 63 2.5 113t-0.5 95q-1 71 -19.5 102t-66.5 38v40q71 -8 98 -51t28 -129q0 -42 0.5 -92.5t-2.5 -115.5h-40zM87 170q-1 44 -1 96t3 116h40q-3 -63 -2.5 -114t0.5 -98
q2 -70 20 -100.5t66 -37.5v-40q-70 8 -97 50.5t-29 127.5zM227 1280v60h60v-60h-60z" />
    <glyph glyph-name="uni1E62" unicode="&#x1e62;" horiz-adv-x="512" 
d="M301 -7v40q48 9 69 43.5t23 99.5q2 69 2.5 119.5t-0.5 104t-2 132.5q-1 93 -18 152.5t-80 75.5l-72 18q-62 15 -91.5 47t-39 88.5t-11.5 144.5q-1 77 0.5 177t1.5 191q0 88 31.5 131t104.5 51v-41q-50 -8 -72 -42t-24 -101q-3 -91 -2 -182.5t2 -183.5q2 -117 18 -168
t82 -68l74 -18q90 -21 111.5 -85.5t24.5 -186.5q2 -83 2.5 -135.5t0 -101t-2.5 -119.5q-3 -87 -34.5 -131t-97.5 -52zM387 1070q6 177 0 354q-2 65 -22 99t-66 43v41q65 -9 95 -52.5t33 -130.5q3 -127 0 -354h-40zM221 -8q-71 8 -104 52t-36 132q-2 78 -2.5 136t0 116.5
t2.5 137.5h40q-6 -195 0 -390q2 -67 25 -101t75 -42v-41zM227 -140v60h60v-60h-60z" />
    <glyph glyph-name="uni1E63" unicode="&#x1e63;" horiz-adv-x="514" 
d="M293 -8v40q49 7 69.5 37.5t22.5 100.5q2 48 3 98t-1 90q-3 99 -20.5 148.5t-77.5 71.5l-68 26q-57 22 -84 53.5t-36 85t-12 141.5q-1 39 0 72t2 72q3 86 29.5 129t96.5 51v-40q-48 -7 -66 -38t-20 -102q-1 -42 -2 -75t0 -69q3 -96 15.5 -153t78.5 -83l70 -26
q72 -27 104 -85.5t32 -178.5q0 -43 -0.5 -93.5t-3.5 -94.5q-5 -85 -33 -127.5t-99 -50.5zM381 820q3 63 2.5 113t-0.5 95q-1 71 -19.5 102t-66.5 38v40q71 -8 98 -51t28 -129q0 -42 0.5 -92.5t-2.5 -115.5h-40zM87 170q-1 44 -1 96t3 116h40q-3 -63 -2.5 -114t0.5 -98
q2 -70 20 -100.5t66 -37.5v-40q-70 8 -97 50.5t-29 127.5zM227 -140v60h60v-60h-60z" />
    <glyph glyph-name="uni1E64" unicode="&#x1e64;" horiz-adv-x="512" 
d="M301 -7v40q48 9 69 43.5t23 99.5q2 69 2.5 119.5t-0.5 104t-2 132.5q-1 93 -18 152.5t-80 75.5l-72 18q-62 15 -91.5 47t-39 88.5t-11.5 144.5q-1 77 0.5 177t1.5 191q0 88 31.5 131t104.5 51v-41q-50 -8 -72 -42t-24 -101q-3 -91 -2 -182.5t2 -183.5q2 -117 18 -168
t82 -68l74 -18q90 -21 111.5 -85.5t24.5 -186.5q2 -83 2.5 -135.5t0 -101t-2.5 -119.5q-3 -87 -34.5 -131t-97.5 -52zM387 1070q6 177 0 354q-2 65 -22 99t-66 43v41q65 -9 95 -52.5t33 -130.5q3 -127 0 -354h-40zM221 -8q-71 8 -104 52t-36 132q-2 78 -2.5 136t0 116.5
t2.5 137.5h40q-6 -195 0 -390q2 -67 25 -101t75 -42v-41zM235 1680l110 198h42l-110 -198h-42zM227 1958v60h60v-60h-60z" />
    <glyph glyph-name="uni1E65" unicode="&#x1e65;" horiz-adv-x="514" 
d="M293 -8v40q49 7 69.5 37.5t22.5 100.5q2 48 3 98t-1 90q-3 99 -20.5 148.5t-77.5 71.5l-68 26q-57 22 -84 53.5t-36 85t-12 141.5q-1 39 0 72t2 72q3 86 29.5 129t96.5 51v-40q-48 -7 -66 -38t-20 -102q-1 -42 -2 -75t0 -69q3 -96 15.5 -153t78.5 -83l70 -26
q72 -27 104 -85.5t32 -178.5q0 -43 -0.5 -93.5t-3.5 -94.5q-5 -85 -33 -127.5t-99 -50.5zM381 820q3 63 2.5 113t-0.5 95q-1 71 -19.5 102t-66.5 38v40q71 -8 98 -51t28 -129q0 -42 0.5 -92.5t-2.5 -115.5h-40zM87 170q-1 44 -1 96t3 116h40q-3 -63 -2.5 -114t0.5 -98
q2 -70 20 -100.5t66 -37.5v-40q-70 8 -97 50.5t-29 127.5zM235 1280l110 198h42l-110 -198h-42zM227 1558v60h60v-60h-60z" />
    <glyph glyph-name="uni1E66" unicode="&#x1e66;" horiz-adv-x="512" 
d="M301 -7v40q48 9 69 43.5t23 99.5q2 69 2.5 119.5t-0.5 104t-2 132.5q-1 93 -18 152.5t-80 75.5l-72 18q-62 15 -91.5 47t-39 88.5t-11.5 144.5q-1 77 0.5 177t1.5 191q0 88 31.5 131t104.5 51v-41q-50 -8 -72 -42t-24 -101q-3 -91 -2 -182.5t2 -183.5q2 -117 18 -168
t82 -68l74 -18q90 -21 111.5 -85.5t24.5 -186.5q2 -83 2.5 -135.5t0 -101t-2.5 -119.5q-3 -87 -34.5 -131t-97.5 -52zM387 1070q6 177 0 354q-2 65 -22 99t-66 43v41q65 -9 95 -52.5t33 -130.5q3 -127 0 -354h-40zM221 -8q-71 8 -104 52t-36 132q-2 78 -2.5 136t0 116.5
t2.5 137.5h40q-6 -195 0 -390q2 -67 25 -101t75 -42v-41zM237 1680l-110 198h42l90 -160l88 160h42l-110 -198h-42zM227 1958v60h60v-60h-60z" />
    <glyph glyph-name="uni1E67" unicode="&#x1e67;" horiz-adv-x="514" 
d="M293 -8v40q49 7 69.5 37.5t22.5 100.5q2 48 3 98t-1 90q-3 99 -20.5 148.5t-77.5 71.5l-68 26q-57 22 -84 53.5t-36 85t-12 141.5q-1 39 0 72t2 72q3 86 29.5 129t96.5 51v-40q-48 -7 -66 -38t-20 -102q-1 -42 -2 -75t0 -69q3 -96 15.5 -153t78.5 -83l70 -26
q72 -27 104 -85.5t32 -178.5q0 -43 -0.5 -93.5t-3.5 -94.5q-5 -85 -33 -127.5t-99 -50.5zM381 820q3 63 2.5 113t-0.5 95q-1 71 -19.5 102t-66.5 38v40q71 -8 98 -51t28 -129q0 -42 0.5 -92.5t-2.5 -115.5h-40zM87 170q-1 44 -1 96t3 116h40q-3 -63 -2.5 -114t0.5 -98
q2 -70 20 -100.5t66 -37.5v-40q-70 8 -97 50.5t-29 127.5zM237 1280l-110 198h42l90 -160l88 160h42l-110 -198h-42zM227 1558v60h60v-60h-60z" />
    <glyph glyph-name="uni1E68" unicode="&#x1e68;" horiz-adv-x="512" 
d="M301 -7v40q48 9 69 43.5t23 99.5q2 69 2.5 119.5t-0.5 104t-2 132.5q-1 93 -18 152.5t-80 75.5l-72 18q-62 15 -91.5 47t-39 88.5t-11.5 144.5q-1 77 0.5 177t1.5 191q0 88 31.5 131t104.5 51v-41q-50 -8 -72 -42t-24 -101q-3 -91 -2 -182.5t2 -183.5q2 -117 18 -168
t82 -68l74 -18q90 -21 111.5 -85.5t24.5 -186.5q2 -83 2.5 -135.5t0 -101t-2.5 -119.5q-3 -87 -34.5 -131t-97.5 -52zM387 1070q6 177 0 354q-2 65 -22 99t-66 43v41q65 -9 95 -52.5t33 -130.5q3 -127 0 -354h-40zM221 -8q-71 8 -104 52t-36 132q-2 78 -2.5 136t0 116.5
t2.5 137.5h40q-6 -195 0 -390q2 -67 25 -101t75 -42v-41zM227 -140v60h60v-60h-60zM227 1680v60h60v-60h-60z" />
    <glyph glyph-name="uni1E69" unicode="&#x1e69;" horiz-adv-x="514" 
d="M293 -8v40q49 7 69.5 37.5t22.5 100.5q2 48 3 98t-1 90q-3 99 -20.5 148.5t-77.5 71.5l-68 26q-57 22 -84 53.5t-36 85t-12 141.5q-1 39 0 72t2 72q3 86 29.5 129t96.5 51v-40q-48 -7 -66 -38t-20 -102q-1 -42 -2 -75t0 -69q3 -96 15.5 -153t78.5 -83l70 -26
q72 -27 104 -85.5t32 -178.5q0 -43 -0.5 -93.5t-3.5 -94.5q-5 -85 -33 -127.5t-99 -50.5zM381 820q3 63 2.5 113t-0.5 95q-1 71 -19.5 102t-66.5 38v40q71 -8 98 -51t28 -129q0 -42 0.5 -92.5t-2.5 -115.5h-40zM87 170q-1 44 -1 96t3 116h40q-3 -63 -2.5 -114t0.5 -98
q2 -70 20 -100.5t66 -37.5v-40q-70 8 -97 50.5t-29 127.5zM227 -140v60h60v-60h-60zM227 1280v60h60v-60h-60z" />
    <glyph glyph-name="uni1E6C" unicode="&#x1e6c;" horiz-adv-x="428" 
d="M20 1560v40h388v-40h-388zM194 0v1520h40v-1520h-40zM184 -140v60h60v-60h-60z" />
    <glyph glyph-name="uni1E6D" unicode="&#x1e6d;" horiz-adv-x="360" 
d="M58 1160v40h64v340h40v-1370q0 -82 17 -111t89 -29q32 0 46.5 2t35.5 6v-38q-43 -10 -86 -10q-90 0 -116 42t-26 138v990h-64zM222 1160v40h108v-40h-108zM224 -140v60h60v-60h-60z" />
    <glyph glyph-name="uni1E6E" unicode="&#x1e6e;" horiz-adv-x="428" 
d="M20 1560v40h388v-40h-388zM194 0v1520h40v-1520h-40zM68 -100h292v-40h-292v40z" />
    <glyph glyph-name="uni1E6F" unicode="&#x1e6f;" horiz-adv-x="360" 
d="M58 1160v40h64v340h40v-1370q0 -82 17 -111t89 -29q32 0 46.5 2t35.5 6v-38q-43 -10 -86 -10q-90 0 -116 42t-26 138v990h-64zM222 1160v40h108v-40h-108zM108 -100h292v-40h-292v40z" />
    <glyph glyph-name="uni1E78" unicode="&#x1e78;" horiz-adv-x="554" 
d="M105 170q-6 715 0 1430h40q-3 -358 -4 -714.5t2 -715.5q0 -121 94 -137v-41q-68 8 -99 50.5t-33 127.5zM317 -8v41q92 16 92 137q6 715 0 1430h40q6 -715 0 -1430q-1 -85 -32.5 -127.5t-99.5 -50.5zM417 1754h38q3 -49 -28.5 -80.5t-81.5 -25.5q-31 4 -48.5 18.5
t-33 29.5t-40.5 22q-22 6 -51.5 -5.5t-34.5 -58.5h-38q6 68 47.5 90.5t84.5 11.5q31 -7 48.5 -23t32 -31t35.5 -18q33 -4 52.5 18t17.5 52zM247 1876l110 198h42l-110 -198h-42z" />
    <glyph glyph-name="uni1E79" unicode="&#x1e79;" horiz-adv-x="572" 
d="M102 172v1028h40v-1028q0 -76 25.5 -109t82.5 -33q45 0 82 23v-40q-35 -23 -82 -23q-78 0 -113 42.5t-35 139.5zM412 0v1200h40v-1200h-40zM416 1354h38q3 -49 -28.5 -80.5t-81.5 -25.5q-31 4 -48.5 18.5t-33 29.5t-40.5 22q-22 6 -51.5 -5.5t-34.5 -58.5h-38
q6 68 47.5 90.5t84.5 11.5q31 -7 48.5 -23t32 -31t35.5 -18q33 -4 52.5 18t17.5 52zM246 1476l110 198h42l-110 -198h-42z" />
    <glyph glyph-name="uni1E7A" unicode="&#x1e7a;" horiz-adv-x="554" 
d="M105 170q-6 715 0 1430h40q-3 -358 -4 -714.5t2 -715.5q0 -121 94 -137v-41q-68 8 -99 50.5t-33 127.5zM317 -8v41q92 16 92 137q6 715 0 1430h40q6 -715 0 -1430q-1 -85 -32.5 -127.5t-99.5 -50.5zM131 1720h292v-40h-292v40zM307 1800v60h60v-60h-60zM187 1800v60h60
v-60h-60z" />
    <glyph glyph-name="uni1E7B" unicode="&#x1e7b;" horiz-adv-x="572" 
d="M102 172v1028h40v-1028q0 -76 25.5 -109t82.5 -33q45 0 82 23v-40q-35 -23 -82 -23q-78 0 -113 42.5t-35 139.5zM412 0v1200h40v-1200h-40zM130 1320h292v-40h-292v40zM306 1400v60h60v-60h-60zM186 1400v60h60v-60h-60z" />
    <glyph glyph-name="Wgrave" unicode="&#x1e80;" horiz-adv-x="782" 
d="M174 0l-84 1600h40l26 -530l52 -1030h61l-3 -40h-92zM572 80l54 990l26 530h40l-84 -1520h-36zM512 0l-40 568l-70 982h-24l-72 -982l-34 -488h-36l68 990l38 520h94l36 -520l74 -1030h60l-2 -40h-92zM370 1680l-110 198h42l110 -198h-42z" />
    <glyph glyph-name="wgrave" unicode="&#x1e81;" horiz-adv-x="764" 
d="M170 0l-110 1200h40l56 -608l48 -552h62l-4 -40h-92zM562 100l46 492l56 608h40l-104 -1100h-38zM500 0l-42 456l-64 694h-24l-66 -694l-34 -356h-40l46 492l58 598h96l56 -598l48 -552h62l-4 -40h-92zM360 1280l-110 198h42l110 -198h-42z" />
    <glyph glyph-name="Wacute" unicode="&#x1e82;" horiz-adv-x="782" 
d="M174 0l-84 1600h40l26 -530l52 -1030h61l-3 -40h-92zM572 80l54 990l26 530h40l-84 -1520h-36zM512 0l-40 568l-70 982h-24l-72 -982l-34 -488h-36l68 990l38 520h94l36 -520l74 -1030h60l-2 -40h-92zM370 1680l110 198h42l-110 -198h-42z" />
    <glyph glyph-name="wacute" unicode="&#x1e83;" horiz-adv-x="764" 
d="M170 0l-110 1200h40l56 -608l48 -552h62l-4 -40h-92zM562 100l46 492l56 608h40l-104 -1100h-38zM500 0l-42 456l-64 694h-24l-66 -694l-34 -356h-40l46 492l58 598h96l56 -598l48 -552h62l-4 -40h-92zM360 1280l110 198h42l-110 -198h-42z" />
    <glyph glyph-name="Wdieresis" unicode="&#x1e84;" horiz-adv-x="782" 
d="M174 0l-84 1600h40l26 -530l52 -1030h61l-3 -40h-92zM572 80l54 990l26 530h40l-84 -1520h-36zM512 0l-40 568l-70 982h-24l-72 -982l-34 -488h-36l68 990l38 520h94l36 -520l74 -1030h60l-2 -40h-92zM422 1680v60h60v-60h-60zM302 1680v60h60v-60h-60z" />
    <glyph glyph-name="wdieresis" unicode="&#x1e85;" horiz-adv-x="764" 
d="M170 0l-110 1200h40l56 -608l48 -552h62l-4 -40h-92zM562 100l46 492l56 608h40l-104 -1100h-38zM500 0l-42 456l-64 694h-24l-66 -694l-34 -356h-40l46 492l58 598h96l56 -598l48 -552h62l-4 -40h-92zM412 1280v60h60v-60h-60zM292 1280v60h60v-60h-60z" />
    <glyph glyph-name="uni1E8E" unicode="&#x1e8e;" horiz-adv-x="492" 
d="M224 0v440l-174 1160h42l72 -488l66 -450h67l-33 -222v-440h-40zM270 702l60 410l72 488h40l-134 -898h-38zM214 1680v60h60v-60h-60z" />
    <glyph glyph-name="uni1E8F" unicode="&#x1e8f;" horiz-adv-x="554" 
d="M262 0l-140 1200h44l68 -608l62 -552h63l-5 -40h-92zM328 100l56 492l68 608h44l-130 -1100h-38zM166 -398q-22 0 -54 3t-52 7v38q21 -4 46 -7t56 -3q71 0 92.5 30t33.5 112l24 168h38l-22 -168q-12 -96 -46.5 -138t-115.5 -42zM290 1280v60h60v-60h-60z" />
    <glyph glyph-name="uni1E92" unicode="&#x1e92;" horiz-adv-x="478" 
d="M62 1560v40h376v-40h-376zM56 80l322 1440h44l-324 -1440h-42zM40 0v40h358v-40h-358zM210 -140v60h60v-60h-60z" />
    <glyph glyph-name="uni1E93" unicode="&#x1e93;" horiz-adv-x="424" 
d="M44 1156v40l350 4v-40zM50 100l284 1000h46l-286 -1000h-44zM36 0v40h340v-40h-340zM186 -140v60h60v-60h-60z" />
    <glyph glyph-name="uni1E97" unicode="&#x1e97;" horiz-adv-x="360" 
d="M58 1160v40h64v340h40v-1370q0 -82 17 -111t89 -29q32 0 46.5 2t35.5 6v-38q-43 -10 -86 -10q-90 0 -116 42t-26 138v990h-64zM222 1160v40h108v-40h-108zM224 1618v60h60v-60h-60zM104 1618v60h60v-60h-60z" />
    <glyph glyph-name="uni1E9E" unicode="&#x1e9e;" horiz-adv-x="618" 
d="M120 0v1418q0 98 41 140t135 42h182v-40h-182q-75 0 -105.5 -30.5t-30.5 -111.5v-1418h-40zM240 0v40h56q78 0 113.5 39t38.5 127q3 102 3 189t-3 187q-3 107 -34 152.5t-100 45.5h-48v38l158 682h42l-154 -680q93 0 133 -54.5t43 -183.5q2 -70 2.5 -125.5t0 -114
t-2.5 -136.5q-3 -111 -48 -158.5t-144 -47.5h-56z" />
    <glyph glyph-name="uni1EA0" unicode="&#x1ea0;" horiz-adv-x="528" 
d="M60 0l142 1600h126l2 -40h-96l-54 -640l-30 -344h180l-10 -40h-174l-46 -536h-40zM428 0l-80 922l-52 598h36l136 -1520h-40zM236 -140v60h60v-60h-60z" />
    <glyph glyph-name="uni1EA1" unicode="&#x1ea1;" horiz-adv-x="540" 
d="M90 820q-1 54 -2 109.5t0 98.5q3 86 35.5 128.5t98.5 51.5v-40q-43 -7 -67 -38t-27 -102q-3 -93 0 -208h-38zM384 0v1028q0 63 -18.5 96t-63.5 42v42q68 -9 95 -52.5t27 -127.5v-1028h-40zM80 180q-1 30 -2 56t0 54q3 96 30.5 175t111.5 145q20 14 41 29.5t43 30.5v-45
q-34 -24 -84 -65q-61 -52 -80 -121t-22 -149q0 -16 0.5 -47t1.5 -63q5 -72 36 -111t80 -39q40 0 68 16v-41q-27 -15 -68 -15q-76 0 -113.5 51.5t-42.5 138.5zM232 -140v60h60v-60h-60z" />
    <glyph glyph-name="uni1EA2" unicode="&#x1ea2;" horiz-adv-x="528" 
d="M60 0l142 1600h126l2 -40h-96l-54 -640l-30 -344h180l-10 -40h-174l-46 -536h-40zM428 0l-80 922l-52 598h36l136 -1520h-40zM251 1720l13 64q8 38 -38 38h-40v32h40q88 0 74 -70l-13 -64h-36z" />
    <glyph glyph-name="uni1EA3" unicode="&#x1ea3;" horiz-adv-x="540" 
d="M90 820q-1 54 -2 109.5t0 98.5q3 86 35.5 128.5t98.5 51.5v-40q-43 -7 -67 -38t-27 -102q-3 -93 0 -208h-38zM384 0v1028q0 63 -18.5 96t-63.5 42v42q68 -9 95 -52.5t27 -127.5v-1028h-40zM80 180q-1 30 -2 56t0 54q3 96 30.5 175t111.5 145q20 14 41 29.5t43 30.5v-45
q-34 -24 -84 -65q-61 -52 -80 -121t-22 -149q0 -16 0.5 -47t1.5 -63q5 -72 36 -111t80 -39q40 0 68 16v-41q-27 -15 -68 -15q-76 0 -113.5 51.5t-42.5 138.5zM249 1320l13 64q8 38 -38 38h-40v32h40q88 0 74 -70l-13 -64h-36z" />
    <glyph glyph-name="uni1EA4" unicode="&#x1ea4;" horiz-adv-x="528" 
d="M60 0l142 1600h126l2 -40h-96l-54 -640l-30 -344h180l-10 -40h-174l-46 -536h-40zM428 0l-80 922l-52 598h36l136 -1520h-40zM136 1680l110 198h42l110 -198h-46l-84 156l-86 -156h-46zM244 1958l110 198h42l-110 -198h-42z" />
    <glyph glyph-name="uni1EA5" unicode="&#x1ea5;" horiz-adv-x="540" 
d="M90 820q-1 54 -2 109.5t0 98.5q3 86 35.5 128.5t98.5 51.5v-40q-43 -7 -67 -38t-27 -102q-3 -93 0 -208h-38zM384 0v1028q0 63 -18.5 96t-63.5 42v42q68 -9 95 -52.5t27 -127.5v-1028h-40zM80 180q-1 30 -2 56t0 54q3 96 30.5 175t111.5 145q20 14 41 29.5t43 30.5v-45
q-34 -24 -84 -65q-61 -52 -80 -121t-22 -149q0 -16 0.5 -47t1.5 -63q5 -72 36 -111t80 -39q40 0 68 16v-41q-27 -15 -68 -15q-76 0 -113.5 51.5t-42.5 138.5zM132 1280l110 198h42l110 -198h-46l-84 156l-86 -156h-46zM240 1558l110 198h42l-110 -198h-42z" />
    <glyph glyph-name="uni1EA6" unicode="&#x1ea6;" horiz-adv-x="528" 
d="M60 0l142 1600h126l2 -40h-96l-54 -640l-30 -344h180l-10 -40h-174l-46 -536h-40zM428 0l-80 922l-52 598h36l136 -1520h-40zM136 1680l110 198h42l110 -198h-46l-84 156l-86 -156h-46zM234 1940l-110 198h42l110 -198h-42z" />
    <glyph glyph-name="uni1EA7" unicode="&#x1ea7;" horiz-adv-x="540" 
d="M90 820q-1 54 -2 109.5t0 98.5q3 86 35.5 128.5t98.5 51.5v-40q-43 -7 -67 -38t-27 -102q-3 -93 0 -208h-38zM384 0v1028q0 63 -18.5 96t-63.5 42v42q68 -9 95 -52.5t27 -127.5v-1028h-40zM80 180q-1 30 -2 56t0 54q3 96 30.5 175t111.5 145q20 14 41 29.5t43 30.5v-45
q-34 -24 -84 -65q-61 -52 -80 -121t-22 -149q0 -16 0.5 -47t1.5 -63q5 -72 36 -111t80 -39q40 0 68 16v-41q-27 -15 -68 -15q-76 0 -113.5 51.5t-42.5 138.5zM132 1280l110 198h42l110 -198h-46l-84 156l-86 -156h-46zM230 1540l-110 198h42l110 -198h-42z" />
    <glyph glyph-name="uni1EA8" unicode="&#x1ea8;" horiz-adv-x="528" 
d="M60 0l142 1600h126l2 -40h-96l-54 -640l-30 -344h180l-10 -40h-174l-46 -536h-40zM428 0l-80 922l-52 598h36l136 -1520h-40zM136 1680l110 198h42l110 -198h-46l-84 156l-86 -156h-46zM343 1914l13 64q8 38 -38 38h-40v32h40q88 0 74 -70l-13 -64h-36z" />
    <glyph glyph-name="uni1EA9" unicode="&#x1ea9;" horiz-adv-x="540" 
d="M90 820q-1 54 -2 109.5t0 98.5q3 86 35.5 128.5t98.5 51.5v-40q-43 -7 -67 -38t-27 -102q-3 -93 0 -208h-38zM384 0v1028q0 63 -18.5 96t-63.5 42v42q68 -9 95 -52.5t27 -127.5v-1028h-40zM80 180q-1 30 -2 56t0 54q3 96 30.5 175t111.5 145q20 14 41 29.5t43 30.5v-45
q-34 -24 -84 -65q-61 -52 -80 -121t-22 -149q0 -16 0.5 -47t1.5 -63q5 -72 36 -111t80 -39q40 0 68 16v-41q-27 -15 -68 -15q-76 0 -113.5 51.5t-42.5 138.5zM132 1280l110 198h42l110 -198h-46l-84 156l-86 -156h-46zM339 1514l13 64q8 38 -38 38h-40v32h40q88 0 74 -70
l-13 -64h-36z" />
    <glyph glyph-name="uni1EAA" unicode="&#x1eaa;" horiz-adv-x="528" 
d="M60 0l142 1600h126l2 -40h-96l-54 -640l-30 -344h180l-10 -40h-174l-46 -536h-40zM428 0l-80 922l-52 598h36l136 -1520h-40zM136 1680l110 198h42l110 -198h-46l-84 156l-86 -156h-46zM406 2032h38q3 -49 -28.5 -80.5t-81.5 -25.5q-31 4 -48.5 18.5t-33 29.5t-40.5 22
q-22 6 -51.5 -5.5t-34.5 -58.5h-38q6 68 47.5 90.5t84.5 11.5q31 -7 48.5 -23t32 -31t35.5 -18q33 -4 52.5 18t17.5 52z" />
    <glyph glyph-name="uni1EAB" unicode="&#x1eab;" horiz-adv-x="540" 
d="M90 820q-1 54 -2 109.5t0 98.5q3 86 35.5 128.5t98.5 51.5v-40q-43 -7 -67 -38t-27 -102q-3 -93 0 -208h-38zM384 0v1028q0 63 -18.5 96t-63.5 42v42q68 -9 95 -52.5t27 -127.5v-1028h-40zM80 180q-1 30 -2 56t0 54q3 96 30.5 175t111.5 145q20 14 41 29.5t43 30.5v-45
q-34 -24 -84 -65q-61 -52 -80 -121t-22 -149q0 -16 0.5 -47t1.5 -63q5 -72 36 -111t80 -39q40 0 68 16v-41q-27 -15 -68 -15q-76 0 -113.5 51.5t-42.5 138.5zM132 1280l110 198h42l110 -198h-46l-84 156l-86 -156h-46zM402 1632h38q3 -49 -28.5 -80.5t-81.5 -25.5
q-31 4 -48.5 18.5t-33 29.5t-40.5 22q-22 6 -51.5 -5.5t-34.5 -58.5h-38q6 68 47.5 90.5t84.5 11.5q31 -7 48.5 -23t32 -31t35.5 -18q33 -4 52.5 18t17.5 52z" />
    <glyph glyph-name="uni1EAC" unicode="&#x1eac;" horiz-adv-x="528" 
d="M60 0l142 1600h126l2 -40h-96l-54 -640l-30 -344h180l-10 -40h-174l-46 -536h-40zM428 0l-80 922l-52 598h36l136 -1520h-40zM236 -140v60h60v-60h-60zM136 1680l110 198h42l110 -198h-46l-84 156l-86 -156h-46z" />
    <glyph glyph-name="uni1EAD" unicode="&#x1ead;" horiz-adv-x="540" 
d="M90 820q-1 54 -2 109.5t0 98.5q3 86 35.5 128.5t98.5 51.5v-40q-43 -7 -67 -38t-27 -102q-3 -93 0 -208h-38zM384 0v1028q0 63 -18.5 96t-63.5 42v42q68 -9 95 -52.5t27 -127.5v-1028h-40zM80 180q-1 30 -2 56t0 54q3 96 30.5 175t111.5 145q20 14 41 29.5t43 30.5v-45
q-34 -24 -84 -65q-61 -52 -80 -121t-22 -149q0 -16 0.5 -47t1.5 -63q5 -72 36 -111t80 -39q40 0 68 16v-41q-27 -15 -68 -15q-76 0 -113.5 51.5t-42.5 138.5zM232 -140v60h60v-60h-60zM132 1280l110 198h42l110 -198h-46l-84 156l-86 -156h-46z" />
    <glyph glyph-name="uni1EAE" unicode="&#x1eae;" horiz-adv-x="528" 
d="M60 0l142 1600h126l2 -40h-96l-54 -640l-30 -344h180l-10 -40h-174l-46 -536h-40zM428 0l-80 922l-52 598h36l136 -1520h-40zM266 1676q-84 0 -121 37.5t-39 124.5h40q2 -69 27.5 -96.5t92.5 -27.5q68 0 93.5 27.5t26.5 96.5h40q-1 -87 -38.5 -124.5t-121.5 -37.5z
M244 1874l110 198h42l-110 -198h-42z" />
    <glyph glyph-name="uni1EAF" unicode="&#x1eaf;" horiz-adv-x="540" 
d="M90 820q-1 54 -2 109.5t0 98.5q3 86 35.5 128.5t98.5 51.5v-40q-43 -7 -67 -38t-27 -102q-3 -93 0 -208h-38zM384 0v1028q0 63 -18.5 96t-63.5 42v42q68 -9 95 -52.5t27 -127.5v-1028h-40zM80 180q-1 30 -2 56t0 54q3 96 30.5 175t111.5 145q20 14 41 29.5t43 30.5v-45
q-34 -24 -84 -65q-61 -52 -80 -121t-22 -149q0 -16 0.5 -47t1.5 -63q5 -72 36 -111t80 -39q40 0 68 16v-41q-27 -15 -68 -15q-76 0 -113.5 51.5t-42.5 138.5zM262 1276q-84 0 -121 37.5t-39 124.5h40q2 -69 27.5 -96.5t92.5 -27.5q68 0 93.5 27.5t26.5 96.5h40
q-1 -87 -38.5 -124.5t-121.5 -37.5zM240 1474l110 198h42l-110 -198h-42z" />
    <glyph glyph-name="uni1EB0" unicode="&#x1eb0;" horiz-adv-x="528" 
d="M60 0l142 1600h126l2 -40h-96l-54 -640l-30 -344h180l-10 -40h-174l-46 -536h-40zM428 0l-80 922l-52 598h36l136 -1520h-40zM266 1676q-84 0 -121 37.5t-39 124.5h40q2 -69 27.5 -96.5t92.5 -27.5q68 0 93.5 27.5t26.5 96.5h40q-1 -87 -38.5 -124.5t-121.5 -37.5z
M244 1874l-110 198h42l110 -198h-42z" />
    <glyph glyph-name="uni1EB1" unicode="&#x1eb1;" horiz-adv-x="540" 
d="M90 820q-1 54 -2 109.5t0 98.5q3 86 35.5 128.5t98.5 51.5v-40q-43 -7 -67 -38t-27 -102q-3 -93 0 -208h-38zM384 0v1028q0 63 -18.5 96t-63.5 42v42q68 -9 95 -52.5t27 -127.5v-1028h-40zM80 180q-1 30 -2 56t0 54q3 96 30.5 175t111.5 145q20 14 41 29.5t43 30.5v-45
q-34 -24 -84 -65q-61 -52 -80 -121t-22 -149q0 -16 0.5 -47t1.5 -63q5 -72 36 -111t80 -39q40 0 68 16v-41q-27 -15 -68 -15q-76 0 -113.5 51.5t-42.5 138.5zM262 1276q-84 0 -121 37.5t-39 124.5h40q2 -69 27.5 -96.5t92.5 -27.5q68 0 93.5 27.5t26.5 96.5h40
q-1 -87 -38.5 -124.5t-121.5 -37.5zM240 1474l-110 198h42l110 -198h-42z" />
    <glyph glyph-name="uni1EB2" unicode="&#x1eb2;" horiz-adv-x="528" 
d="M60 0l142 1600h126l2 -40h-96l-54 -640l-30 -344h180l-10 -40h-174l-46 -536h-40zM428 0l-80 922l-52 598h36l136 -1520h-40zM266 1676q-84 0 -121 37.5t-39 124.5h40q2 -69 27.5 -96.5t92.5 -27.5q68 0 93.5 27.5t26.5 96.5h40q-1 -87 -38.5 -124.5t-121.5 -37.5z
M251 1874l13 64q8 38 -38 38h-40v32h40q88 0 74 -70l-13 -64h-36z" />
    <glyph glyph-name="uni1EB3" unicode="&#x1eb3;" horiz-adv-x="540" 
d="M90 820q-1 54 -2 109.5t0 98.5q3 86 35.5 128.5t98.5 51.5v-40q-43 -7 -67 -38t-27 -102q-3 -93 0 -208h-38zM384 0v1028q0 63 -18.5 96t-63.5 42v42q68 -9 95 -52.5t27 -127.5v-1028h-40zM80 180q-1 30 -2 56t0 54q3 96 30.5 175t111.5 145q20 14 41 29.5t43 30.5v-45
q-34 -24 -84 -65q-61 -52 -80 -121t-22 -149q0 -16 0.5 -47t1.5 -63q5 -72 36 -111t80 -39q40 0 68 16v-41q-27 -15 -68 -15q-76 0 -113.5 51.5t-42.5 138.5zM262 1276q-84 0 -121 37.5t-39 124.5h40q2 -69 27.5 -96.5t92.5 -27.5q68 0 93.5 27.5t26.5 96.5h40
q-1 -87 -38.5 -124.5t-121.5 -37.5zM247 1474l13 64q8 38 -38 38h-40v32h40q88 0 74 -70l-13 -64h-36z" />
    <glyph glyph-name="uni1EB4" unicode="&#x1eb4;" horiz-adv-x="528" 
d="M60 0l142 1600h126l2 -40h-96l-54 -640l-30 -344h180l-10 -40h-174l-46 -536h-40zM428 0l-80 922l-52 598h36l136 -1520h-40zM266 1676q-84 0 -121 37.5t-39 124.5h40q2 -69 27.5 -96.5t92.5 -27.5q68 0 93.5 27.5t26.5 96.5h40q-1 -87 -38.5 -124.5t-121.5 -37.5z
M406 2014h38q3 -49 -28.5 -80.5t-81.5 -25.5q-31 4 -48.5 18.5t-33 29.5t-40.5 22q-22 6 -51.5 -5.5t-34.5 -58.5h-38q6 68 47.5 90.5t84.5 11.5q31 -7 48.5 -23t32 -31t35.5 -18q33 -4 52.5 18t17.5 52z" />
    <glyph glyph-name="uni1EB5" unicode="&#x1eb5;" horiz-adv-x="540" 
d="M90 820q-1 54 -2 109.5t0 98.5q3 86 35.5 128.5t98.5 51.5v-40q-43 -7 -67 -38t-27 -102q-3 -93 0 -208h-38zM384 0v1028q0 63 -18.5 96t-63.5 42v42q68 -9 95 -52.5t27 -127.5v-1028h-40zM80 180q-1 30 -2 56t0 54q3 96 30.5 175t111.5 145q20 14 41 29.5t43 30.5v-45
q-34 -24 -84 -65q-61 -52 -80 -121t-22 -149q0 -16 0.5 -47t1.5 -63q5 -72 36 -111t80 -39q40 0 68 16v-41q-27 -15 -68 -15q-76 0 -113.5 51.5t-42.5 138.5zM262 1276q-84 0 -121 37.5t-39 124.5h40q2 -69 27.5 -96.5t92.5 -27.5q68 0 93.5 27.5t26.5 96.5h40
q-1 -87 -38.5 -124.5t-121.5 -37.5zM402 1614h38q3 -49 -28.5 -80.5t-81.5 -25.5q-31 4 -48.5 18.5t-33 29.5t-40.5 22q-22 6 -51.5 -5.5t-34.5 -58.5h-38q6 68 47.5 90.5t84.5 11.5q31 -7 48.5 -23t32 -31t35.5 -18q33 -4 52.5 18t17.5 52z" />
    <glyph glyph-name="uni1EB6" unicode="&#x1eb6;" horiz-adv-x="528" 
d="M60 0l142 1600h126l2 -40h-96l-54 -640l-30 -344h180l-10 -40h-174l-46 -536h-40zM428 0l-80 922l-52 598h36l136 -1520h-40zM236 -140v60h60v-60h-60zM266 1676q-84 0 -121 37.5t-39 124.5h40q2 -69 27.5 -96.5t92.5 -27.5q68 0 93.5 27.5t26.5 96.5h40
q-1 -87 -38.5 -124.5t-121.5 -37.5z" />
    <glyph glyph-name="uni1EB7" unicode="&#x1eb7;" horiz-adv-x="540" 
d="M90 820q-1 54 -2 109.5t0 98.5q3 86 35.5 128.5t98.5 51.5v-40q-43 -7 -67 -38t-27 -102q-3 -93 0 -208h-38zM384 0v1028q0 63 -18.5 96t-63.5 42v42q68 -9 95 -52.5t27 -127.5v-1028h-40zM80 180q-1 30 -2 56t0 54q3 96 30.5 175t111.5 145q20 14 41 29.5t43 30.5v-45
q-34 -24 -84 -65q-61 -52 -80 -121t-22 -149q0 -16 0.5 -47t1.5 -63q5 -72 36 -111t80 -39q40 0 68 16v-41q-27 -15 -68 -15q-76 0 -113.5 51.5t-42.5 138.5zM232 -140v60h60v-60h-60zM262 1276q-84 0 -121 37.5t-39 124.5h40q2 -69 27.5 -96.5t92.5 -27.5q68 0 93.5 27.5
t26.5 96.5h40q-1 -87 -38.5 -124.5t-121.5 -37.5z" />
    <glyph glyph-name="uni1EB8" unicode="&#x1eb8;" horiz-adv-x="488" 
d="M120 0v1600h40v-1600h-40zM240 1560v40h198v-40h-198zM240 780v40h178v-40h-178zM240 0v40h198v-40h-198zM240 -140v60h60v-60h-60z" />
    <glyph glyph-name="uni1EB9" unicode="&#x1eb9;" horiz-adv-x="541" 
d="M100 170q-9 429 0 858q2 86 34 128.5t104 51.5v-41q-51 -8 -73.5 -41t-24.5 -98q-2 -127 -3 -229.5t-1 -198t1 -199t3 -231.5q2 -70 24.5 -101t73.5 -37v-40q-74 8 -105 50.5t-33 127.5zM196 584v40h216q3 134 3 240.5t-3 163.5q-4 65 -25.5 98t-68.5 42v40q68 -9 99 -51
t35 -129q2 -54 3 -166.5t-5 -277.5h-254zM318 -8v41q49 7 70.5 37.5t23.5 99.5q2 45 1.5 96.5t-3.5 115.5h40q3 -64 3.5 -116t-1.5 -96q-4 -85 -32 -127.5t-102 -50.5zM246 -140v60h60v-60h-60z" />
    <glyph glyph-name="uni1EBA" unicode="&#x1eba;" horiz-adv-x="488" 
d="M120 0v1600h40v-1600h-40zM240 1560v40h198v-40h-198zM240 780v40h178v-40h-178zM240 0v40h198v-40h-198zM255 1720l13 64q8 38 -38 38h-40v32h40q88 0 74 -70l-13 -64h-36z" />
    <glyph glyph-name="uni1EBB" unicode="&#x1ebb;" horiz-adv-x="541" 
d="M100 170q-9 429 0 858q2 86 34 128.5t104 51.5v-41q-51 -8 -73.5 -41t-24.5 -98q-2 -127 -3 -229.5t-1 -198t1 -199t3 -231.5q2 -70 24.5 -101t73.5 -37v-40q-74 8 -105 50.5t-33 127.5zM196 584v40h216q3 134 3 240.5t-3 163.5q-4 65 -25.5 98t-68.5 42v40q68 -9 99 -51
t35 -129q2 -54 3 -166.5t-5 -277.5h-254zM318 -8v41q49 7 70.5 37.5t23.5 99.5q2 45 1.5 96.5t-3.5 115.5h40q3 -64 3.5 -116t-1.5 -96q-4 -85 -32 -127.5t-102 -50.5zM285 1320l13 64q8 38 -38 38h-40v32h40q88 0 74 -70l-13 -64h-36z" />
    <glyph glyph-name="uni1EBC" unicode="&#x1ebc;" horiz-adv-x="488" 
d="M120 0v1600h40v-1600h-40zM240 1560v40h198v-40h-198zM240 780v40h178v-40h-178zM240 0v40h198v-40h-198zM410 1754h38q3 -49 -28.5 -80.5t-81.5 -25.5q-31 4 -48.5 18.5t-33 29.5t-40.5 22q-22 6 -51.5 -5.5t-34.5 -58.5h-38q6 68 47.5 90.5t84.5 11.5q31 -7 48.5 -23
t32 -31t35.5 -18q33 -4 52.5 18t17.5 52z" />
    <glyph glyph-name="uni1EBD" unicode="&#x1ebd;" horiz-adv-x="541" 
d="M100 170q-9 429 0 858q2 86 34 128.5t104 51.5v-41q-51 -8 -73.5 -41t-24.5 -98q-2 -127 -3 -229.5t-1 -198t1 -199t3 -231.5q2 -70 24.5 -101t73.5 -37v-40q-74 8 -105 50.5t-33 127.5zM196 584v40h216q3 134 3 240.5t-3 163.5q-4 65 -25.5 98t-68.5 42v40q68 -9 99 -51
t35 -129q2 -54 3 -166.5t-5 -277.5h-254zM318 -8v41q49 7 70.5 37.5t23.5 99.5q2 45 1.5 96.5t-3.5 115.5h40q3 -64 3.5 -116t-1.5 -96q-4 -85 -32 -127.5t-102 -50.5zM416 1354h38q3 -49 -28.5 -80.5t-81.5 -25.5q-31 4 -48.5 18.5t-33 29.5t-40.5 22q-22 6 -51.5 -5.5
t-34.5 -58.5h-38q6 68 47.5 90.5t84.5 11.5q31 -7 48.5 -23t32 -31t35.5 -18q33 -4 52.5 18t17.5 52z" />
    <glyph glyph-name="uni1EBE" unicode="&#x1ebe;" horiz-adv-x="488" 
d="M120 0v1600h40v-1600h-40zM240 1560v40h198v-40h-198zM240 780v40h178v-40h-178zM240 0v40h198v-40h-198zM140 1680l110 198h42l110 -198h-46l-84 156l-86 -156h-46zM248 1958l110 198h42l-110 -198h-42z" />
    <glyph glyph-name="uni1EBF" unicode="&#x1ebf;" horiz-adv-x="541" 
d="M100 170q-9 429 0 858q2 86 34 128.5t104 51.5v-41q-51 -8 -73.5 -41t-24.5 -98q-2 -127 -3 -229.5t-1 -198t1 -199t3 -231.5q2 -70 24.5 -101t73.5 -37v-40q-74 8 -105 50.5t-33 127.5zM196 584v40h216q3 134 3 240.5t-3 163.5q-4 65 -25.5 98t-68.5 42v40q68 -9 99 -51
t35 -129q2 -54 3 -166.5t-5 -277.5h-254zM318 -8v41q49 7 70.5 37.5t23.5 99.5q2 45 1.5 96.5t-3.5 115.5h40q3 -64 3.5 -116t-1.5 -96q-4 -85 -32 -127.5t-102 -50.5zM146 1280l110 198h42l110 -198h-46l-84 156l-86 -156h-46zM254 1558l110 198h42l-110 -198h-42z" />
    <glyph glyph-name="uni1EC0" unicode="&#x1ec0;" horiz-adv-x="488" 
d="M120 0v1600h40v-1600h-40zM240 1560v40h198v-40h-198zM240 780v40h178v-40h-178zM240 0v40h198v-40h-198zM140 1680l110 198h42l110 -198h-46l-84 156l-86 -156h-46zM238 1940l-110 198h42l110 -198h-42z" />
    <glyph glyph-name="uni1EC1" unicode="&#x1ec1;" horiz-adv-x="541" 
d="M100 170q-9 429 0 858q2 86 34 128.5t104 51.5v-41q-51 -8 -73.5 -41t-24.5 -98q-2 -127 -3 -229.5t-1 -198t1 -199t3 -231.5q2 -70 24.5 -101t73.5 -37v-40q-74 8 -105 50.5t-33 127.5zM196 584v40h216q3 134 3 240.5t-3 163.5q-4 65 -25.5 98t-68.5 42v40q68 -9 99 -51
t35 -129q2 -54 3 -166.5t-5 -277.5h-254zM318 -8v41q49 7 70.5 37.5t23.5 99.5q2 45 1.5 96.5t-3.5 115.5h40q3 -64 3.5 -116t-1.5 -96q-4 -85 -32 -127.5t-102 -50.5zM146 1280l110 198h42l110 -198h-46l-84 156l-86 -156h-46zM244 1540l-110 198h42l110 -198h-42z" />
    <glyph glyph-name="uni1EC2" unicode="&#x1ec2;" horiz-adv-x="488" 
d="M120 0v1600h40v-1600h-40zM240 1560v40h198v-40h-198zM240 780v40h178v-40h-178zM240 0v40h198v-40h-198zM140 1680l110 198h42l110 -198h-46l-84 156l-86 -156h-46zM347 1914l13 64q8 38 -38 38h-40v32h40q88 0 74 -70l-13 -64h-36z" />
    <glyph glyph-name="uni1EC3" unicode="&#x1ec3;" horiz-adv-x="541" 
d="M100 170q-9 429 0 858q2 86 34 128.5t104 51.5v-41q-51 -8 -73.5 -41t-24.5 -98q-2 -127 -3 -229.5t-1 -198t1 -199t3 -231.5q2 -70 24.5 -101t73.5 -37v-40q-74 8 -105 50.5t-33 127.5zM196 584v40h216q3 134 3 240.5t-3 163.5q-4 65 -25.5 98t-68.5 42v40q68 -9 99 -51
t35 -129q2 -54 3 -166.5t-5 -277.5h-254zM318 -8v41q49 7 70.5 37.5t23.5 99.5q2 45 1.5 96.5t-3.5 115.5h40q3 -64 3.5 -116t-1.5 -96q-4 -85 -32 -127.5t-102 -50.5zM146 1280l110 198h42l110 -198h-46l-84 156l-86 -156h-46zM353 1514l13 64q8 38 -38 38h-40v32h40
q88 0 74 -70l-13 -64h-36z" />
    <glyph glyph-name="uni1EC4" unicode="&#x1ec4;" horiz-adv-x="488" 
d="M120 0v1600h40v-1600h-40zM240 1560v40h198v-40h-198zM240 780v40h178v-40h-178zM240 0v40h198v-40h-198zM140 1680l110 198h42l110 -198h-46l-84 156l-86 -156h-46zM410 2032h38q3 -49 -28.5 -80.5t-81.5 -25.5q-31 4 -48.5 18.5t-33 29.5t-40.5 22q-22 6 -51.5 -5.5
t-34.5 -58.5h-38q6 68 47.5 90.5t84.5 11.5q31 -7 48.5 -23t32 -31t35.5 -18q33 -4 52.5 18t17.5 52z" />
    <glyph glyph-name="uni1EC5" unicode="&#x1ec5;" horiz-adv-x="541" 
d="M100 170q-9 429 0 858q2 86 34 128.5t104 51.5v-41q-51 -8 -73.5 -41t-24.5 -98q-2 -127 -3 -229.5t-1 -198t1 -199t3 -231.5q2 -70 24.5 -101t73.5 -37v-40q-74 8 -105 50.5t-33 127.5zM196 584v40h216q3 134 3 240.5t-3 163.5q-4 65 -25.5 98t-68.5 42v40q68 -9 99 -51
t35 -129q2 -54 3 -166.5t-5 -277.5h-254zM318 -8v41q49 7 70.5 37.5t23.5 99.5q2 45 1.5 96.5t-3.5 115.5h40q3 -64 3.5 -116t-1.5 -96q-4 -85 -32 -127.5t-102 -50.5zM146 1280l110 198h42l110 -198h-46l-84 156l-86 -156h-46zM416 1632h38q3 -49 -28.5 -80.5t-81.5 -25.5
q-31 4 -48.5 18.5t-33 29.5t-40.5 22q-22 6 -51.5 -5.5t-34.5 -58.5h-38q6 68 47.5 90.5t84.5 11.5q31 -7 48.5 -23t32 -31t35.5 -18q33 -4 52.5 18t17.5 52z" />
    <glyph glyph-name="uni1EC6" unicode="&#x1ec6;" horiz-adv-x="488" 
d="M120 0v1600h40v-1600h-40zM240 1560v40h198v-40h-198zM240 780v40h178v-40h-178zM240 0v40h198v-40h-198zM240 -140v60h60v-60h-60zM140 1680l110 198h42l110 -198h-46l-84 156l-86 -156h-46z" />
    <glyph glyph-name="uni1EC7" unicode="&#x1ec7;" horiz-adv-x="541" 
d="M100 170q-9 429 0 858q2 86 34 128.5t104 51.5v-41q-51 -8 -73.5 -41t-24.5 -98q-2 -127 -3 -229.5t-1 -198t1 -199t3 -231.5q2 -70 24.5 -101t73.5 -37v-40q-74 8 -105 50.5t-33 127.5zM196 584v40h216q3 134 3 240.5t-3 163.5q-4 65 -25.5 98t-68.5 42v40q68 -9 99 -51
t35 -129q2 -54 3 -166.5t-5 -277.5h-254zM318 -8v41q49 7 70.5 37.5t23.5 99.5q2 45 1.5 96.5t-3.5 115.5h40q3 -64 3.5 -116t-1.5 -96q-4 -85 -32 -127.5t-102 -50.5zM246 -140v60h60v-60h-60zM146 1280l110 198h42l110 -198h-46l-84 156l-86 -156h-46z" />
    <glyph glyph-name="uni1EC8" unicode="&#x1ec8;" 
d="M120 0v1600h40v-1600h-40zM125 1720l13 64q8 38 -38 38h-40v32h40q88 0 74 -70l-13 -64h-36z" />
    <glyph glyph-name="uni1EC9" unicode="&#x1ec9;" 
d="M120 0v1200h40v-1200h-40zM125 1320l13 64q8 38 -38 38h-40v32h40q88 0 74 -70l-13 -64h-36z" />
    <glyph glyph-name="uni1ECA" unicode="&#x1eca;" 
d="M120 0v1600h40v-1600h-40zM110 -140v60h60v-60h-60z" />
    <glyph glyph-name="uni1ECB" unicode="&#x1ecb;" 
d="M60 1476v124h160v-124h-160zM124 0v1200h40v-1200h-40zM114 -140v60h60v-60h-60z" />
    <glyph glyph-name="uni1ECC" unicode="&#x1ecc;" horiz-adv-x="569" 
d="M244 -8q-71 9 -101.5 51t-32.5 127q-4 225 -5.5 427t0 404t5.5 427q2 86 32.5 128.5t101.5 51.5v-40q-52 -7 -73 -39t-23 -101q-5 -220 -6 -420.5t0.5 -404.5t5.5 -433q2 -67 23 -98.5t73 -39.5v-40zM324 -8v40q52 8 73.5 39.5t22.5 98.5q5 229 6 433t-1 404.5t-5 420.5
q-1 69 -23 100t-73 40v40q74 -7 106 -50t32 -130q2 -225 2.5 -427t0 -404t-2.5 -427q0 -85 -32 -127.5t-106 -50.5zM252 -140v60h60v-60h-60z" />
    <glyph glyph-name="uni1ECD" unicode="&#x1ecd;" horiz-adv-x="556" 
d="M102 170q-12 429 0 858q3 86 33.5 129t102.5 51v-40q-51 -7 -72.5 -38t-23.5 -102q-4 -127 -5.5 -230t-1.5 -199t1.5 -199t5.5 -230q2 -70 24.5 -100.5t71.5 -37.5v-40q-72 8 -102.5 50.5t-33.5 127.5zM318 -8v40q50 7 72 37.5t24 100.5q4 127 6 230t2 199t-2 199t-6 230
q-2 71 -23.5 102t-72.5 38v40q72 -8 102.5 -51t33.5 -129q12 -429 0 -858q-3 -85 -33.5 -127.5t-102.5 -50.5zM248 -140v60h60v-60h-60z" />
    <glyph glyph-name="uni1ECE" unicode="&#x1ece;" horiz-adv-x="569" 
d="M244 -8q-71 9 -101.5 51t-32.5 127q-4 225 -5.5 427t0 404t5.5 427q2 86 32.5 128.5t101.5 51.5v-40q-52 -7 -73 -39t-23 -101q-5 -220 -6 -420.5t0.5 -404.5t5.5 -433q2 -67 23 -98.5t73 -39.5v-40zM324 -8v40q52 8 73.5 39.5t22.5 98.5q5 229 6 433t-1 404.5t-5 420.5
q-1 69 -23 100t-73 40v40q74 -7 106 -50t32 -130q2 -225 2.5 -427t0 -404t-2.5 -427q0 -85 -32 -127.5t-106 -50.5zM285 1720l13 64q8 38 -38 38h-40v32h40q88 0 74 -70l-13 -64h-36z" />
    <glyph glyph-name="uni1ECF" unicode="&#x1ecf;" horiz-adv-x="556" 
d="M102 170q-12 429 0 858q3 86 33.5 129t102.5 51v-40q-51 -7 -72.5 -38t-23.5 -102q-4 -127 -5.5 -230t-1.5 -199t1.5 -199t5.5 -230q2 -70 24.5 -100.5t71.5 -37.5v-40q-72 8 -102.5 50.5t-33.5 127.5zM318 -8v40q50 7 72 37.5t24 100.5q4 127 6 230t2 199t-2 199t-6 230
q-2 71 -23.5 102t-72.5 38v40q72 -8 102.5 -51t33.5 -129q12 -429 0 -858q-3 -85 -33.5 -127.5t-102.5 -50.5zM287 1320l13 64q8 38 -38 38h-40v32h40q88 0 74 -70l-13 -64h-36z" />
    <glyph glyph-name="uni1ED0" unicode="&#x1ed0;" horiz-adv-x="569" 
d="M244 -8q-71 9 -101.5 51t-32.5 127q-4 225 -5.5 427t0 404t5.5 427q2 86 32.5 128.5t101.5 51.5v-40q-52 -7 -73 -39t-23 -101q-5 -220 -6 -420.5t0.5 -404.5t5.5 -433q2 -67 23 -98.5t73 -39.5v-40zM324 -8v40q52 8 73.5 39.5t22.5 98.5q5 229 6 433t-1 404.5t-5 420.5
q-1 69 -23 100t-73 40v40q74 -7 106 -50t32 -130q2 -225 2.5 -427t0 -404t-2.5 -427q0 -85 -32 -127.5t-106 -50.5zM152 1680l110 198h42l110 -198h-46l-84 156l-86 -156h-46zM260 1958l110 198h42l-110 -198h-42z" />
    <glyph glyph-name="uni1ED1" unicode="&#x1ed1;" horiz-adv-x="556" 
d="M102 170q-12 429 0 858q3 86 33.5 129t102.5 51v-40q-51 -7 -72.5 -38t-23.5 -102q-4 -127 -5.5 -230t-1.5 -199t1.5 -199t5.5 -230q2 -70 24.5 -100.5t71.5 -37.5v-40q-72 8 -102.5 50.5t-33.5 127.5zM318 -8v40q50 7 72 37.5t24 100.5q4 127 6 230t2 199t-2 199t-6 230
q-2 71 -23.5 102t-72.5 38v40q72 -8 102.5 -51t33.5 -129q12 -429 0 -858q-3 -85 -33.5 -127.5t-102.5 -50.5zM148 1280l110 198h42l110 -198h-46l-84 156l-86 -156h-46zM256 1558l110 198h42l-110 -198h-42z" />
    <glyph glyph-name="uni1ED2" unicode="&#x1ed2;" horiz-adv-x="569" 
d="M244 -8q-71 9 -101.5 51t-32.5 127q-4 225 -5.5 427t0 404t5.5 427q2 86 32.5 128.5t101.5 51.5v-40q-52 -7 -73 -39t-23 -101q-5 -220 -6 -420.5t0.5 -404.5t5.5 -433q2 -67 23 -98.5t73 -39.5v-40zM324 -8v40q52 8 73.5 39.5t22.5 98.5q5 229 6 433t-1 404.5t-5 420.5
q-1 69 -23 100t-73 40v40q74 -7 106 -50t32 -130q2 -225 2.5 -427t0 -404t-2.5 -427q0 -85 -32 -127.5t-106 -50.5zM152 1680l110 198h42l110 -198h-46l-84 156l-86 -156h-46zM250 1940l-110 198h42l110 -198h-42z" />
    <glyph glyph-name="uni1ED3" unicode="&#x1ed3;" horiz-adv-x="556" 
d="M102 170q-12 429 0 858q3 86 33.5 129t102.5 51v-40q-51 -7 -72.5 -38t-23.5 -102q-4 -127 -5.5 -230t-1.5 -199t1.5 -199t5.5 -230q2 -70 24.5 -100.5t71.5 -37.5v-40q-72 8 -102.5 50.5t-33.5 127.5zM318 -8v40q50 7 72 37.5t24 100.5q4 127 6 230t2 199t-2 199t-6 230
q-2 71 -23.5 102t-72.5 38v40q72 -8 102.5 -51t33.5 -129q12 -429 0 -858q-3 -85 -33.5 -127.5t-102.5 -50.5zM148 1280l110 198h42l110 -198h-46l-84 156l-86 -156h-46zM246 1540l-110 198h42l110 -198h-42z" />
    <glyph glyph-name="uni1ED4" unicode="&#x1ed4;" horiz-adv-x="569" 
d="M244 -8q-71 9 -101.5 51t-32.5 127q-4 225 -5.5 427t0 404t5.5 427q2 86 32.5 128.5t101.5 51.5v-40q-52 -7 -73 -39t-23 -101q-5 -220 -6 -420.5t0.5 -404.5t5.5 -433q2 -67 23 -98.5t73 -39.5v-40zM324 -8v40q52 8 73.5 39.5t22.5 98.5q5 229 6 433t-1 404.5t-5 420.5
q-1 69 -23 100t-73 40v40q74 -7 106 -50t32 -130q2 -225 2.5 -427t0 -404t-2.5 -427q0 -85 -32 -127.5t-106 -50.5zM152 1680l110 198h42l110 -198h-46l-84 156l-86 -156h-46zM359 1914l13 64q8 38 -38 38h-40v32h40q88 0 74 -70l-13 -64h-36z" />
    <glyph glyph-name="uni1ED5" unicode="&#x1ed5;" horiz-adv-x="556" 
d="M102 170q-12 429 0 858q3 86 33.5 129t102.5 51v-40q-51 -7 -72.5 -38t-23.5 -102q-4 -127 -5.5 -230t-1.5 -199t1.5 -199t5.5 -230q2 -70 24.5 -100.5t71.5 -37.5v-40q-72 8 -102.5 50.5t-33.5 127.5zM318 -8v40q50 7 72 37.5t24 100.5q4 127 6 230t2 199t-2 199t-6 230
q-2 71 -23.5 102t-72.5 38v40q72 -8 102.5 -51t33.5 -129q12 -429 0 -858q-3 -85 -33.5 -127.5t-102.5 -50.5zM148 1280l110 198h42l110 -198h-46l-84 156l-86 -156h-46zM355 1514l13 64q8 38 -38 38h-40v32h40q88 0 74 -70l-13 -64h-36z" />
    <glyph glyph-name="uni1ED6" unicode="&#x1ed6;" horiz-adv-x="569" 
d="M244 -8q-71 9 -101.5 51t-32.5 127q-4 225 -5.5 427t0 404t5.5 427q2 86 32.5 128.5t101.5 51.5v-40q-52 -7 -73 -39t-23 -101q-5 -220 -6 -420.5t0.5 -404.5t5.5 -433q2 -67 23 -98.5t73 -39.5v-40zM324 -8v40q52 8 73.5 39.5t22.5 98.5q5 229 6 433t-1 404.5t-5 420.5
q-1 69 -23 100t-73 40v40q74 -7 106 -50t32 -130q2 -225 2.5 -427t0 -404t-2.5 -427q0 -85 -32 -127.5t-106 -50.5zM152 1680l110 198h42l110 -198h-46l-84 156l-86 -156h-46zM422 2032h38q3 -49 -28.5 -80.5t-81.5 -25.5q-31 4 -48.5 18.5t-33 29.5t-40.5 22
q-22 6 -51.5 -5.5t-34.5 -58.5h-38q6 68 47.5 90.5t84.5 11.5q31 -7 48.5 -23t32 -31t35.5 -18q33 -4 52.5 18t17.5 52z" />
    <glyph glyph-name="uni1ED7" unicode="&#x1ed7;" horiz-adv-x="556" 
d="M102 170q-12 429 0 858q3 86 33.5 129t102.5 51v-40q-51 -7 -72.5 -38t-23.5 -102q-4 -127 -5.5 -230t-1.5 -199t1.5 -199t5.5 -230q2 -70 24.5 -100.5t71.5 -37.5v-40q-72 8 -102.5 50.5t-33.5 127.5zM318 -8v40q50 7 72 37.5t24 100.5q4 127 6 230t2 199t-2 199t-6 230
q-2 71 -23.5 102t-72.5 38v40q72 -8 102.5 -51t33.5 -129q12 -429 0 -858q-3 -85 -33.5 -127.5t-102.5 -50.5zM148 1280l110 198h42l110 -198h-46l-84 156l-86 -156h-46zM418 1632h38q3 -49 -28.5 -80.5t-81.5 -25.5q-31 4 -48.5 18.5t-33 29.5t-40.5 22q-22 6 -51.5 -5.5
t-34.5 -58.5h-38q6 68 47.5 90.5t84.5 11.5q31 -7 48.5 -23t32 -31t35.5 -18q33 -4 52.5 18t17.5 52z" />
    <glyph glyph-name="uni1ED8" unicode="&#x1ed8;" horiz-adv-x="569" 
d="M244 -8q-71 9 -101.5 51t-32.5 127q-4 225 -5.5 427t0 404t5.5 427q2 86 32.5 128.5t101.5 51.5v-40q-52 -7 -73 -39t-23 -101q-5 -220 -6 -420.5t0.5 -404.5t5.5 -433q2 -67 23 -98.5t73 -39.5v-40zM324 -8v40q52 8 73.5 39.5t22.5 98.5q5 229 6 433t-1 404.5t-5 420.5
q-1 69 -23 100t-73 40v40q74 -7 106 -50t32 -130q2 -225 2.5 -427t0 -404t-2.5 -427q0 -85 -32 -127.5t-106 -50.5zM252 -140v60h60v-60h-60zM152 1680l110 198h42l110 -198h-46l-84 156l-86 -156h-46z" />
    <glyph glyph-name="uni1ED9" unicode="&#x1ed9;" horiz-adv-x="556" 
d="M102 170q-12 429 0 858q3 86 33.5 129t102.5 51v-40q-51 -7 -72.5 -38t-23.5 -102q-4 -127 -5.5 -230t-1.5 -199t1.5 -199t5.5 -230q2 -70 24.5 -100.5t71.5 -37.5v-40q-72 8 -102.5 50.5t-33.5 127.5zM318 -8v40q50 7 72 37.5t24 100.5q4 127 6 230t2 199t-2 199t-6 230
q-2 71 -23.5 102t-72.5 38v40q72 -8 102.5 -51t33.5 -129q12 -429 0 -858q-3 -85 -33.5 -127.5t-102.5 -50.5zM248 -140v60h60v-60h-60zM148 1280l110 198h42l110 -198h-46l-84 156l-86 -156h-46z" />
    </font>
</defs>
</svg>
